M48
;DRILL file {KiCad 4.0.6-e0-6349~53~ubuntu16.04.1} date Mon Apr  3 22:16:49 2017
;FORMAT={2:4/ absolute / inch / suppress leading zeros}
FMAT,2
INCH,TZ
T1C0.016
T2C0.031
T3C0.035
T4C0.039
T5C0.047
T6C0.126
%
G90
G05
M72
T1
X26429Y-31977
X37057Y-41037
X44648Y-37219
X44976Y-32419
X46066Y-32983
X46889Y-37113
X47028Y-39263
X47028Y-41020
X47805Y-42035
X50844Y-42004
X50886Y-34502
X54714Y-39759
X56245Y-45000
X58955Y-47443
T2
X30500Y-27000
X30500Y-28000
X30500Y-29000
X30500Y-30000
X30500Y-31000
X30500Y-32000
X30500Y-33000
X30500Y-34000
X30500Y-35000
X30500Y-36000
X33500Y-27000
X33500Y-28000
X33500Y-29000
X33500Y-30000
X33500Y-31000
X33500Y-32000
X33500Y-33000
X33500Y-34000
X33500Y-35000
X33500Y-36000
X37500Y-27000
X37500Y-28000
X37500Y-29000
X37500Y-30000
X37500Y-31000
X37500Y-32000
X37500Y-33000
X37500Y-34000
X37500Y-35000
X37500Y-36000
X37500Y-43000
X37500Y-44000
X37500Y-45000
X37500Y-46000
X40500Y-27000
X40500Y-28000
X40500Y-29000
X40500Y-30000
X40500Y-31000
X40500Y-32000
X40500Y-33000
X40500Y-34000
X40500Y-35000
X40500Y-36000
X40500Y-43000
X40500Y-44000
X40500Y-45000
X40500Y-46000
X44500Y-27000
X44500Y-28000
X44500Y-29000
X44500Y-30000
X44500Y-31000
X44500Y-32000
X44500Y-33000
X44500Y-34000
X44500Y-35000
X44500Y-36000
X44500Y-43000
X44500Y-44000
X44500Y-45000
X44500Y-46000
X44500Y-47000
X44500Y-48000
X44500Y-49000
X44500Y-50000
X47500Y-27000
X47500Y-28000
X47500Y-29000
X47500Y-30000
X47500Y-31000
X47500Y-32000
X47500Y-33000
X47500Y-34000
X47500Y-35000
X47500Y-36000
X47500Y-43000
X47500Y-44000
X47500Y-45000
X47500Y-46000
X47500Y-47000
X47500Y-48000
X47500Y-49000
X47500Y-50000
X51000Y-27000
X51000Y-28000
X51000Y-29000
X51000Y-30000
X51000Y-31000
X51000Y-32000
X51000Y-33000
X51000Y-43000
X51000Y-44000
X51000Y-45000
X51000Y-46000
X51000Y-47000
X51000Y-48000
X51000Y-49000
X54000Y-27000
X54000Y-28000
X54000Y-29000
X54000Y-30000
X54000Y-31000
X54000Y-32000
X54000Y-33000
X54000Y-43000
X54000Y-44000
X54000Y-45000
X54000Y-46000
X54000Y-47000
X54000Y-48000
X54000Y-49000
T3
X21500Y-53000
X22500Y-53000
T4
X21500Y-29500
X21500Y-30500
X21500Y-31500
X21500Y-32500
X21500Y-33500
X21500Y-34500
X21500Y-35500
X21500Y-36500
X21500Y-37500
X21500Y-38500
X21500Y-39500
X21500Y-40500
X21500Y-41500
X21500Y-42500
X21500Y-43500
X21500Y-44500
X21500Y-45500
X21500Y-46500
X21500Y-47500
X21500Y-48500
X22500Y-29500
X22500Y-30500
X22500Y-31500
X22500Y-32500
X22500Y-33500
X22500Y-34500
X22500Y-35500
X22500Y-36500
X22500Y-37500
X22500Y-38500
X22500Y-39500
X22500Y-40500
X22500Y-41500
X22500Y-42500
X22500Y-43500
X22500Y-44500
X22500Y-45500
X22500Y-46500
X22500Y-47500
X22500Y-48500
X63000Y-27000
X63000Y-28000
X63000Y-29000
X63000Y-30000
X63000Y-31000
X63000Y-32000
X63000Y-33000
X63000Y-34000
X63000Y-35000
X63000Y-36000
X63000Y-37000
X63000Y-38000
X63000Y-39000
X63000Y-40000
X63000Y-41000
X63000Y-42000
X63000Y-43000
X63000Y-44000
X63000Y-45000
X63000Y-46000
X63000Y-47000
X63000Y-48000
X63000Y-49000
X63000Y-50000
X63000Y-51000
X64000Y-27000
X64000Y-28000
X64000Y-29000
X64000Y-30000
X64000Y-31000
X64000Y-32000
X64000Y-33000
X64000Y-34000
X64000Y-35000
X64000Y-36000
X64000Y-37000
X64000Y-38000
X64000Y-39000
X64000Y-40000
X64000Y-41000
X64000Y-42000
X64000Y-43000
X64000Y-44000
X64000Y-45000
X64000Y-46000
X64000Y-47000
X64000Y-48000
X64000Y-49000
X64000Y-50000
X64000Y-51000
T5
X26000Y-43500
X26000Y-47500
X26000Y-50000
X31000Y-43500
X31000Y-47500
X31000Y-50000
X58000Y-27000
X58000Y-32000
T6
X20500Y-18000
X20750Y-57500
X65000Y-18000
X65000Y-57500
T0
M30
