G04 #@! TF.FileFunction,Copper,L2,Bot,Signal*
%FSLAX46Y46*%
G04 Gerber Fmt 4.6, Leading zero omitted, Abs format (unit mm)*
G04 Created by KiCad (PCBNEW 4.0.6-e0-6349~53~ubuntu16.04.1) date Tue Jun 13 06:23:48 2017*
%MOMM*%
%LPD*%
G01*
G04 APERTURE LIST*
%ADD10C,0.100000*%
%ADD11R,1.600000X1.600000*%
%ADD12C,1.600000*%
%ADD13O,1.600000X1.600000*%
%ADD14R,1.800000X1.800000*%
%ADD15C,1.800000*%
%ADD16R,1.727200X1.727200*%
%ADD17O,1.727200X1.727200*%
%ADD18R,3.500000X3.500000*%
%ADD19C,6.400000*%
%ADD20O,0.900000X1.500000*%
%ADD21R,0.900000X1.500000*%
%ADD22C,2.400000*%
%ADD23O,2.400000X2.400000*%
%ADD24R,1.700000X1.700000*%
%ADD25O,1.700000X1.700000*%
%ADD26C,2.000000*%
%ADD27O,1.800000X1.800000*%
%ADD28C,1.500000*%
%ADD29C,0.600000*%
%ADD30C,1.000000*%
%ADD31C,0.250000*%
G04 APERTURE END LIST*
D10*
D11*
X50800000Y-117475000D03*
D12*
X50800000Y-114975000D03*
D11*
X50800000Y-98425000D03*
D12*
X50800000Y-95925000D03*
D11*
X50800000Y-108585000D03*
D12*
X50800000Y-111085000D03*
D11*
X69850000Y-114935000D03*
D12*
X72350000Y-114935000D03*
D11*
X50800000Y-102235000D03*
D12*
X50800000Y-104735000D03*
X69850000Y-107950000D03*
X72350000Y-107950000D03*
D11*
X191770000Y-84455000D03*
D12*
X191770000Y-86955000D03*
D11*
X193675000Y-95250000D03*
D12*
X191675000Y-95250000D03*
X40640000Y-81280000D03*
X40640000Y-83780000D03*
X66040000Y-67310000D03*
X68540000Y-67310000D03*
X90805000Y-64770000D03*
X93305000Y-64770000D03*
X81915000Y-90805000D03*
X81915000Y-88305000D03*
X78740000Y-132080000D03*
X78740000Y-129580000D03*
X107950000Y-109220000D03*
X107950000Y-111720000D03*
X133350000Y-131445000D03*
X133350000Y-128945000D03*
X165100000Y-63500000D03*
X167600000Y-63500000D03*
X72390000Y-90805000D03*
X69890000Y-90805000D03*
X186055000Y-65405000D03*
X183555000Y-65405000D03*
X148590000Y-73660000D03*
X148590000Y-76160000D03*
X166370000Y-57785000D03*
X166370000Y-55285000D03*
D11*
X158115000Y-59055000D03*
D12*
X155615000Y-59055000D03*
D11*
X95885000Y-118110000D03*
D13*
X95885000Y-110490000D03*
D11*
X100965000Y-118110000D03*
D13*
X100965000Y-110490000D03*
D14*
X197485000Y-137795000D03*
D15*
X197485000Y-135255000D03*
D16*
X37465000Y-103505000D03*
D17*
X40005000Y-103505000D03*
X37465000Y-106045000D03*
X40005000Y-106045000D03*
X37465000Y-108585000D03*
X40005000Y-108585000D03*
X37465000Y-111125000D03*
X40005000Y-111125000D03*
X37465000Y-113665000D03*
X40005000Y-113665000D03*
D16*
X39370000Y-146050000D03*
D17*
X39370000Y-143510000D03*
X41910000Y-146050000D03*
X41910000Y-143510000D03*
X44450000Y-146050000D03*
X44450000Y-143510000D03*
X46990000Y-146050000D03*
X46990000Y-143510000D03*
X49530000Y-146050000D03*
X49530000Y-143510000D03*
X52070000Y-146050000D03*
X52070000Y-143510000D03*
X54610000Y-146050000D03*
X54610000Y-143510000D03*
D16*
X66040000Y-146050000D03*
D17*
X66040000Y-143510000D03*
X68580000Y-146050000D03*
X68580000Y-143510000D03*
X71120000Y-146050000D03*
X71120000Y-143510000D03*
X73660000Y-146050000D03*
X73660000Y-143510000D03*
X76200000Y-146050000D03*
X76200000Y-143510000D03*
X78740000Y-146050000D03*
X78740000Y-143510000D03*
X81280000Y-146050000D03*
X81280000Y-143510000D03*
D18*
X198120000Y-55880000D03*
X204120000Y-55880000D03*
X201120000Y-51180000D03*
D16*
X92710000Y-146050000D03*
D17*
X92710000Y-143510000D03*
X95250000Y-146050000D03*
X95250000Y-143510000D03*
X97790000Y-146050000D03*
X97790000Y-143510000D03*
X100330000Y-146050000D03*
X100330000Y-143510000D03*
X102870000Y-146050000D03*
X102870000Y-143510000D03*
X105410000Y-146050000D03*
X105410000Y-143510000D03*
X107950000Y-146050000D03*
X107950000Y-143510000D03*
D16*
X119380000Y-146050000D03*
D17*
X119380000Y-143510000D03*
X121920000Y-146050000D03*
X121920000Y-143510000D03*
X124460000Y-146050000D03*
X124460000Y-143510000D03*
X127000000Y-146050000D03*
X127000000Y-143510000D03*
X129540000Y-146050000D03*
X129540000Y-143510000D03*
X132080000Y-146050000D03*
X132080000Y-143510000D03*
X134620000Y-146050000D03*
X134620000Y-143510000D03*
D19*
X29845000Y-147955000D03*
X29845000Y-43180000D03*
X203835000Y-43180000D03*
X203835000Y-147955000D03*
D16*
X146050000Y-146050000D03*
D17*
X146050000Y-143510000D03*
X148590000Y-146050000D03*
X148590000Y-143510000D03*
X151130000Y-146050000D03*
X151130000Y-143510000D03*
X153670000Y-146050000D03*
X153670000Y-143510000D03*
X156210000Y-146050000D03*
X156210000Y-143510000D03*
X158750000Y-146050000D03*
X158750000Y-143510000D03*
X161290000Y-146050000D03*
X161290000Y-143510000D03*
X163830000Y-146050000D03*
X163830000Y-143510000D03*
X166370000Y-146050000D03*
X166370000Y-143510000D03*
X168910000Y-146050000D03*
X168910000Y-143510000D03*
X171450000Y-146050000D03*
X171450000Y-143510000D03*
X173990000Y-146050000D03*
X173990000Y-143510000D03*
X176530000Y-146050000D03*
X176530000Y-143510000D03*
X179070000Y-146050000D03*
X179070000Y-143510000D03*
X181610000Y-146050000D03*
X181610000Y-143510000D03*
X184150000Y-146050000D03*
X184150000Y-143510000D03*
X186690000Y-146050000D03*
X186690000Y-143510000D03*
X189230000Y-146050000D03*
X189230000Y-143510000D03*
X191770000Y-146050000D03*
X191770000Y-143510000D03*
X194310000Y-146050000D03*
X194310000Y-143510000D03*
D20*
X107950000Y-53340000D03*
X109220000Y-53340000D03*
D21*
X106680000Y-53340000D03*
D22*
X175895000Y-66040000D03*
D23*
X175895000Y-53340000D03*
D22*
X155575000Y-73660000D03*
D23*
X155575000Y-86360000D03*
D22*
X165735000Y-67945000D03*
D23*
X153035000Y-67945000D03*
D22*
X165100000Y-73660000D03*
D23*
X165100000Y-86360000D03*
D22*
X166370000Y-46990000D03*
D23*
X179070000Y-46990000D03*
D22*
X191135000Y-137795000D03*
D23*
X191135000Y-125095000D03*
D22*
X184150000Y-137160000D03*
D23*
X171450000Y-137160000D03*
D22*
X184150000Y-130810000D03*
D23*
X171450000Y-130810000D03*
D22*
X156210000Y-90805000D03*
D23*
X143510000Y-90805000D03*
D24*
X97155000Y-83820000D03*
D25*
X97155000Y-86360000D03*
X97155000Y-88900000D03*
X97155000Y-91440000D03*
X97155000Y-93980000D03*
X97155000Y-96520000D03*
X97155000Y-99060000D03*
X97155000Y-101600000D03*
D26*
X104775000Y-47680000D03*
X104775000Y-43180000D03*
X111275000Y-47680000D03*
X111275000Y-43180000D03*
D11*
X36195000Y-43180000D03*
D13*
X51435000Y-91440000D03*
X36195000Y-45720000D03*
X51435000Y-88900000D03*
X36195000Y-48260000D03*
X51435000Y-86360000D03*
X36195000Y-50800000D03*
X51435000Y-83820000D03*
X36195000Y-53340000D03*
X51435000Y-81280000D03*
X36195000Y-55880000D03*
X51435000Y-78740000D03*
X36195000Y-58420000D03*
X51435000Y-76200000D03*
X36195000Y-60960000D03*
X51435000Y-73660000D03*
X36195000Y-63500000D03*
X51435000Y-71120000D03*
X36195000Y-66040000D03*
X51435000Y-68580000D03*
X36195000Y-68580000D03*
X51435000Y-66040000D03*
X36195000Y-71120000D03*
X51435000Y-63500000D03*
X36195000Y-73660000D03*
X51435000Y-60960000D03*
X36195000Y-76200000D03*
X51435000Y-58420000D03*
X36195000Y-78740000D03*
X51435000Y-55880000D03*
X36195000Y-81280000D03*
X51435000Y-53340000D03*
X36195000Y-83820000D03*
X51435000Y-50800000D03*
X36195000Y-86360000D03*
X51435000Y-48260000D03*
X36195000Y-88900000D03*
X51435000Y-45720000D03*
X36195000Y-91440000D03*
X51435000Y-43180000D03*
D11*
X59690000Y-43180000D03*
D13*
X74930000Y-76200000D03*
X59690000Y-45720000D03*
X74930000Y-73660000D03*
X59690000Y-48260000D03*
X74930000Y-71120000D03*
X59690000Y-50800000D03*
X74930000Y-68580000D03*
X59690000Y-53340000D03*
X74930000Y-66040000D03*
X59690000Y-55880000D03*
X74930000Y-63500000D03*
X59690000Y-58420000D03*
X74930000Y-60960000D03*
X59690000Y-60960000D03*
X74930000Y-58420000D03*
X59690000Y-63500000D03*
X74930000Y-55880000D03*
X59690000Y-66040000D03*
X74930000Y-53340000D03*
X59690000Y-68580000D03*
X74930000Y-50800000D03*
X59690000Y-71120000D03*
X74930000Y-48260000D03*
X59690000Y-73660000D03*
X74930000Y-45720000D03*
X59690000Y-76200000D03*
X74930000Y-43180000D03*
D11*
X83185000Y-43180000D03*
D13*
X98425000Y-76200000D03*
X83185000Y-45720000D03*
X98425000Y-73660000D03*
X83185000Y-48260000D03*
X98425000Y-71120000D03*
X83185000Y-50800000D03*
X98425000Y-68580000D03*
X83185000Y-53340000D03*
X98425000Y-66040000D03*
X83185000Y-55880000D03*
X98425000Y-63500000D03*
X83185000Y-58420000D03*
X98425000Y-60960000D03*
X83185000Y-60960000D03*
X98425000Y-58420000D03*
X83185000Y-63500000D03*
X98425000Y-55880000D03*
X83185000Y-66040000D03*
X98425000Y-53340000D03*
X83185000Y-68580000D03*
X98425000Y-50800000D03*
X83185000Y-71120000D03*
X98425000Y-48260000D03*
X83185000Y-73660000D03*
X98425000Y-45720000D03*
X83185000Y-76200000D03*
X98425000Y-43180000D03*
D11*
X56515000Y-99695000D03*
D13*
X64135000Y-117475000D03*
X56515000Y-102235000D03*
X64135000Y-114935000D03*
X56515000Y-104775000D03*
X64135000Y-112395000D03*
X56515000Y-107315000D03*
X64135000Y-109855000D03*
X56515000Y-109855000D03*
X64135000Y-107315000D03*
X56515000Y-112395000D03*
X64135000Y-104775000D03*
X56515000Y-114935000D03*
X64135000Y-102235000D03*
X56515000Y-117475000D03*
X64135000Y-99695000D03*
D11*
X76200000Y-85090000D03*
D13*
X91440000Y-118110000D03*
X76200000Y-87630000D03*
X91440000Y-115570000D03*
X76200000Y-90170000D03*
X91440000Y-113030000D03*
X76200000Y-92710000D03*
X91440000Y-110490000D03*
X76200000Y-95250000D03*
X91440000Y-107950000D03*
X76200000Y-97790000D03*
X91440000Y-105410000D03*
X76200000Y-100330000D03*
X91440000Y-102870000D03*
X76200000Y-102870000D03*
X91440000Y-100330000D03*
X76200000Y-105410000D03*
X91440000Y-97790000D03*
X76200000Y-107950000D03*
X91440000Y-95250000D03*
X76200000Y-110490000D03*
X91440000Y-92710000D03*
X76200000Y-113030000D03*
X91440000Y-90170000D03*
X76200000Y-115570000D03*
X91440000Y-87630000D03*
X76200000Y-118110000D03*
X91440000Y-85090000D03*
D11*
X36195000Y-137160000D03*
D13*
X84455000Y-121920000D03*
X38735000Y-137160000D03*
X81915000Y-121920000D03*
X41275000Y-137160000D03*
X79375000Y-121920000D03*
X43815000Y-137160000D03*
X76835000Y-121920000D03*
X46355000Y-137160000D03*
X74295000Y-121920000D03*
X48895000Y-137160000D03*
X71755000Y-121920000D03*
X51435000Y-137160000D03*
X69215000Y-121920000D03*
X53975000Y-137160000D03*
X66675000Y-121920000D03*
X56515000Y-137160000D03*
X64135000Y-121920000D03*
X59055000Y-137160000D03*
X61595000Y-121920000D03*
X61595000Y-137160000D03*
X59055000Y-121920000D03*
X64135000Y-137160000D03*
X56515000Y-121920000D03*
X66675000Y-137160000D03*
X53975000Y-121920000D03*
X69215000Y-137160000D03*
X51435000Y-121920000D03*
X71755000Y-137160000D03*
X48895000Y-121920000D03*
X74295000Y-137160000D03*
X46355000Y-121920000D03*
X76835000Y-137160000D03*
X43815000Y-121920000D03*
X79375000Y-137160000D03*
X41275000Y-121920000D03*
X81915000Y-137160000D03*
X38735000Y-121920000D03*
X84455000Y-137160000D03*
X36195000Y-121920000D03*
D11*
X104775000Y-118110000D03*
D13*
X137795000Y-102870000D03*
X107315000Y-118110000D03*
X135255000Y-102870000D03*
X109855000Y-118110000D03*
X132715000Y-102870000D03*
X112395000Y-118110000D03*
X130175000Y-102870000D03*
X114935000Y-118110000D03*
X127635000Y-102870000D03*
X117475000Y-118110000D03*
X125095000Y-102870000D03*
X120015000Y-118110000D03*
X122555000Y-102870000D03*
X122555000Y-118110000D03*
X120015000Y-102870000D03*
X125095000Y-118110000D03*
X117475000Y-102870000D03*
X127635000Y-118110000D03*
X114935000Y-102870000D03*
X130175000Y-118110000D03*
X112395000Y-102870000D03*
X132715000Y-118110000D03*
X109855000Y-102870000D03*
X135255000Y-118110000D03*
X107315000Y-102870000D03*
X137795000Y-118110000D03*
X104775000Y-102870000D03*
D11*
X128270000Y-43180000D03*
D13*
X135890000Y-58420000D03*
X128270000Y-45720000D03*
X135890000Y-55880000D03*
X128270000Y-48260000D03*
X135890000Y-53340000D03*
X128270000Y-50800000D03*
X135890000Y-50800000D03*
X128270000Y-53340000D03*
X135890000Y-48260000D03*
X128270000Y-55880000D03*
X135890000Y-45720000D03*
X128270000Y-58420000D03*
X135890000Y-43180000D03*
D11*
X116840000Y-43180000D03*
D13*
X124460000Y-58420000D03*
X116840000Y-45720000D03*
X124460000Y-55880000D03*
X116840000Y-48260000D03*
X124460000Y-53340000D03*
X116840000Y-50800000D03*
X124460000Y-50800000D03*
X116840000Y-53340000D03*
X124460000Y-48260000D03*
X116840000Y-55880000D03*
X124460000Y-45720000D03*
X116840000Y-58420000D03*
X124460000Y-43180000D03*
D11*
X139700000Y-43180000D03*
D13*
X147320000Y-60960000D03*
X139700000Y-45720000D03*
X147320000Y-58420000D03*
X139700000Y-48260000D03*
X147320000Y-55880000D03*
X139700000Y-50800000D03*
X147320000Y-53340000D03*
X139700000Y-53340000D03*
X147320000Y-50800000D03*
X139700000Y-55880000D03*
X147320000Y-48260000D03*
X139700000Y-58420000D03*
X147320000Y-45720000D03*
X139700000Y-60960000D03*
X147320000Y-43180000D03*
D14*
X206375000Y-85090000D03*
D27*
X206375000Y-87630000D03*
X206375000Y-90170000D03*
D11*
X89535000Y-137160000D03*
D13*
X137795000Y-121920000D03*
X92075000Y-137160000D03*
X135255000Y-121920000D03*
X94615000Y-137160000D03*
X132715000Y-121920000D03*
X97155000Y-137160000D03*
X130175000Y-121920000D03*
X99695000Y-137160000D03*
X127635000Y-121920000D03*
X102235000Y-137160000D03*
X125095000Y-121920000D03*
X104775000Y-137160000D03*
X122555000Y-121920000D03*
X107315000Y-137160000D03*
X120015000Y-121920000D03*
X109855000Y-137160000D03*
X117475000Y-121920000D03*
X112395000Y-137160000D03*
X114935000Y-121920000D03*
X114935000Y-137160000D03*
X112395000Y-121920000D03*
X117475000Y-137160000D03*
X109855000Y-121920000D03*
X120015000Y-137160000D03*
X107315000Y-121920000D03*
X122555000Y-137160000D03*
X104775000Y-121920000D03*
X125095000Y-137160000D03*
X102235000Y-121920000D03*
X127635000Y-137160000D03*
X99695000Y-121920000D03*
X130175000Y-137160000D03*
X97155000Y-121920000D03*
X132715000Y-137160000D03*
X94615000Y-121920000D03*
X135255000Y-137160000D03*
X92075000Y-121920000D03*
X137795000Y-137160000D03*
X89535000Y-121920000D03*
D11*
X104775000Y-99695000D03*
D13*
X137795000Y-84455000D03*
X107315000Y-99695000D03*
X135255000Y-84455000D03*
X109855000Y-99695000D03*
X132715000Y-84455000D03*
X112395000Y-99695000D03*
X130175000Y-84455000D03*
X114935000Y-99695000D03*
X127635000Y-84455000D03*
X117475000Y-99695000D03*
X125095000Y-84455000D03*
X120015000Y-99695000D03*
X122555000Y-84455000D03*
X122555000Y-99695000D03*
X120015000Y-84455000D03*
X125095000Y-99695000D03*
X117475000Y-84455000D03*
X127635000Y-99695000D03*
X114935000Y-84455000D03*
X130175000Y-99695000D03*
X112395000Y-84455000D03*
X132715000Y-99695000D03*
X109855000Y-84455000D03*
X135255000Y-99695000D03*
X107315000Y-84455000D03*
X137795000Y-99695000D03*
X104775000Y-84455000D03*
D11*
X104775000Y-80010000D03*
D13*
X120015000Y-72390000D03*
X107315000Y-80010000D03*
X117475000Y-72390000D03*
X109855000Y-80010000D03*
X114935000Y-72390000D03*
X112395000Y-80010000D03*
X112395000Y-72390000D03*
X114935000Y-80010000D03*
X109855000Y-72390000D03*
X117475000Y-80010000D03*
X107315000Y-72390000D03*
X120015000Y-80010000D03*
X104775000Y-72390000D03*
D11*
X171450000Y-102870000D03*
D13*
X186690000Y-95250000D03*
X173990000Y-102870000D03*
X184150000Y-95250000D03*
X176530000Y-102870000D03*
X181610000Y-95250000D03*
X179070000Y-102870000D03*
X179070000Y-95250000D03*
X181610000Y-102870000D03*
X176530000Y-95250000D03*
X184150000Y-102870000D03*
X173990000Y-95250000D03*
X186690000Y-102870000D03*
X171450000Y-95250000D03*
D11*
X171450000Y-114300000D03*
D13*
X189230000Y-106680000D03*
X173990000Y-114300000D03*
X186690000Y-106680000D03*
X176530000Y-114300000D03*
X184150000Y-106680000D03*
X179070000Y-114300000D03*
X181610000Y-106680000D03*
X181610000Y-114300000D03*
X179070000Y-106680000D03*
X184150000Y-114300000D03*
X176530000Y-106680000D03*
X186690000Y-114300000D03*
X173990000Y-106680000D03*
X189230000Y-114300000D03*
X171450000Y-106680000D03*
D11*
X143510000Y-102870000D03*
D13*
X158750000Y-95250000D03*
X146050000Y-102870000D03*
X156210000Y-95250000D03*
X148590000Y-102870000D03*
X153670000Y-95250000D03*
X151130000Y-102870000D03*
X151130000Y-95250000D03*
X153670000Y-102870000D03*
X148590000Y-95250000D03*
X156210000Y-102870000D03*
X146050000Y-95250000D03*
X158750000Y-102870000D03*
X143510000Y-95250000D03*
D11*
X171450000Y-125730000D03*
D13*
X186690000Y-118110000D03*
X173990000Y-125730000D03*
X184150000Y-118110000D03*
X176530000Y-125730000D03*
X181610000Y-118110000D03*
X179070000Y-125730000D03*
X179070000Y-118110000D03*
X181610000Y-125730000D03*
X176530000Y-118110000D03*
X184150000Y-125730000D03*
X173990000Y-118110000D03*
X186690000Y-125730000D03*
X171450000Y-118110000D03*
D11*
X143510000Y-137160000D03*
D13*
X166370000Y-129540000D03*
X146050000Y-137160000D03*
X163830000Y-129540000D03*
X148590000Y-137160000D03*
X161290000Y-129540000D03*
X151130000Y-137160000D03*
X158750000Y-129540000D03*
X153670000Y-137160000D03*
X156210000Y-129540000D03*
X156210000Y-137160000D03*
X153670000Y-129540000D03*
X158750000Y-137160000D03*
X151130000Y-129540000D03*
X161290000Y-137160000D03*
X148590000Y-129540000D03*
X163830000Y-137160000D03*
X146050000Y-129540000D03*
X166370000Y-137160000D03*
X143510000Y-129540000D03*
D11*
X143510000Y-125730000D03*
D13*
X166370000Y-118110000D03*
X146050000Y-125730000D03*
X163830000Y-118110000D03*
X148590000Y-125730000D03*
X161290000Y-118110000D03*
X151130000Y-125730000D03*
X158750000Y-118110000D03*
X153670000Y-125730000D03*
X156210000Y-118110000D03*
X156210000Y-125730000D03*
X153670000Y-118110000D03*
X158750000Y-125730000D03*
X151130000Y-118110000D03*
X161290000Y-125730000D03*
X148590000Y-118110000D03*
X163830000Y-125730000D03*
X146050000Y-118110000D03*
X166370000Y-125730000D03*
X143510000Y-118110000D03*
D11*
X143510000Y-114300000D03*
D13*
X166370000Y-106680000D03*
X146050000Y-114300000D03*
X163830000Y-106680000D03*
X148590000Y-114300000D03*
X161290000Y-106680000D03*
X151130000Y-114300000D03*
X158750000Y-106680000D03*
X153670000Y-114300000D03*
X156210000Y-106680000D03*
X156210000Y-114300000D03*
X153670000Y-106680000D03*
X158750000Y-114300000D03*
X151130000Y-106680000D03*
X161290000Y-114300000D03*
X148590000Y-106680000D03*
X163830000Y-114300000D03*
X146050000Y-106680000D03*
X166370000Y-114300000D03*
X143510000Y-106680000D03*
D11*
X104775000Y-59055000D03*
D13*
X112395000Y-66675000D03*
X104775000Y-61595000D03*
X112395000Y-64135000D03*
X104775000Y-64135000D03*
X112395000Y-61595000D03*
X104775000Y-66675000D03*
X112395000Y-59055000D03*
D28*
X71120000Y-96520000D03*
X71120000Y-101520000D03*
D12*
X109855000Y-92075000D03*
X112355000Y-92075000D03*
D11*
X180975000Y-53975000D03*
D13*
X188595000Y-61595000D03*
X180975000Y-56515000D03*
X188595000Y-59055000D03*
X180975000Y-59055000D03*
X188595000Y-56515000D03*
X180975000Y-61595000D03*
X188595000Y-53975000D03*
D29*
X114401900Y-97200800D03*
X123011700Y-95269700D03*
X103568700Y-126828500D03*
X45236900Y-107233900D03*
X138988800Y-119354700D03*
X138829500Y-100632200D03*
X137831300Y-127359700D03*
X98315800Y-140441100D03*
X129969300Y-113141400D03*
X95290400Y-114751900D03*
X139742600Y-100660800D03*
X140503600Y-119071700D03*
X108152700Y-132180100D03*
X128301700Y-93641100D03*
X107021400Y-149803800D03*
X146967500Y-148616200D03*
X108732000Y-144780000D03*
X167640000Y-141379400D03*
X115992400Y-129077700D03*
X163280600Y-111314700D03*
X165796200Y-121767400D03*
X154678300Y-134333100D03*
X169155000Y-116631000D03*
X53194400Y-59823000D03*
X118962800Y-120776900D03*
X108780700Y-123909700D03*
X56135500Y-62709100D03*
X99147300Y-41604700D03*
X62359300Y-93404200D03*
X85916100Y-54556600D03*
X68515900Y-84741600D03*
X83290400Y-125968100D03*
X76362100Y-125968100D03*
X85283600Y-125164200D03*
X73398600Y-125164200D03*
X55572600Y-69516700D03*
X133386800Y-112888500D03*
X86196800Y-124476200D03*
X131563200Y-120733200D03*
X119824800Y-114346500D03*
X66764600Y-114458100D03*
X135134400Y-112861800D03*
X137484000Y-110826300D03*
X113147800Y-112105900D03*
X152920100Y-110826300D03*
X111680400Y-110389400D03*
X62841400Y-75446900D03*
X103070000Y-123609600D03*
X60969300Y-116205000D03*
X99366800Y-74879300D03*
X172616900Y-96684300D03*
X123183000Y-113816700D03*
X50083300Y-65238200D03*
X102191100Y-119880200D03*
X99778100Y-73474800D03*
X116159100Y-97427600D03*
X99847800Y-88519000D03*
X94204000Y-57736700D03*
X39067500Y-63354600D03*
X99645300Y-117570000D03*
X83047900Y-112057600D03*
X69593900Y-118727400D03*
X115606700Y-52690900D03*
X95931800Y-63597800D03*
X119955900Y-58620100D03*
X73206100Y-64469100D03*
X86277600Y-126444500D03*
X98407600Y-40533200D03*
X68088200Y-82405400D03*
X85921200Y-87859700D03*
X47589000Y-68322600D03*
X68038500Y-83402800D03*
X69316200Y-84810500D03*
X69677500Y-84002200D03*
X130324100Y-101532100D03*
X74115900Y-88679500D03*
X89433800Y-81672600D03*
X152514400Y-110099900D03*
X101976300Y-80250200D03*
X91491600Y-80250200D03*
X83041500Y-128819000D03*
X101870500Y-98564100D03*
X93439100Y-102508900D03*
X85852100Y-127552400D03*
X102851300Y-103270900D03*
X102818800Y-105820700D03*
X119170600Y-88765500D03*
X141147300Y-92116900D03*
X141235200Y-120432600D03*
X105478100Y-113085500D03*
X94202800Y-114841700D03*
X126987200Y-111983800D03*
X94574900Y-114058600D03*
X177487100Y-111239900D03*
D30*
X180975000Y-61595000D02*
X180975000Y-63095300D01*
X186690000Y-102870000D02*
X186690000Y-101369700D01*
X190742800Y-111286900D02*
X190742800Y-101369700D01*
X189230000Y-112799700D02*
X190742800Y-111286900D01*
X186690000Y-101369700D02*
X190742800Y-101369700D01*
X189230000Y-114300000D02*
X189230000Y-112799700D01*
X119062500Y-101282500D02*
X117475000Y-99695000D01*
X120967500Y-101282500D02*
X119062500Y-101282500D01*
X122555000Y-102870000D02*
X120967500Y-101282500D01*
X109220000Y-53340000D02*
X109220000Y-51889700D01*
X106275400Y-65174600D02*
X104775000Y-66675000D01*
X106275400Y-56975200D02*
X106275400Y-65174600D01*
X105529600Y-56229400D02*
X106275400Y-56975200D01*
X105529600Y-52274700D02*
X105529600Y-56229400D01*
X107476900Y-50327400D02*
X105529600Y-52274700D01*
X107476900Y-45881900D02*
X107476900Y-50327400D01*
X104775000Y-43180000D02*
X107476900Y-45881900D01*
X109039200Y-51889700D02*
X109220000Y-51889700D01*
X107476900Y-50327400D02*
X109039200Y-51889700D01*
X179070000Y-46990000D02*
X179070000Y-48890300D01*
X201669700Y-54180000D02*
X201669700Y-55880000D01*
X201120000Y-53630300D02*
X201669700Y-54180000D01*
X204120000Y-55880000D02*
X201669700Y-55880000D01*
X48300000Y-91440000D02*
X51435000Y-91440000D01*
X40640000Y-83780000D02*
X48300000Y-91440000D01*
X166370000Y-114300000D02*
X166370000Y-112799700D01*
X165100000Y-102521700D02*
X164751700Y-102870000D01*
X165100000Y-86360000D02*
X165100000Y-102521700D01*
X164751700Y-102870000D02*
X158750000Y-102870000D01*
X166370000Y-114300000D02*
X166370000Y-115800300D01*
X179070000Y-106680000D02*
X179070000Y-108180300D01*
X50800000Y-117475000D02*
X52300300Y-117475000D01*
X51435000Y-91440000D02*
X51435000Y-92940300D01*
X64135000Y-102235000D02*
X62634700Y-102235000D01*
X61553100Y-102235000D02*
X62634700Y-102235000D01*
X72350000Y-110450000D02*
X69850000Y-107950000D01*
X72350000Y-114935000D02*
X72350000Y-110450000D01*
X69628700Y-107728700D02*
X69850000Y-107950000D01*
X69628700Y-100162300D02*
X69628700Y-107728700D01*
X72571300Y-97219700D02*
X69628700Y-100162300D01*
X72571300Y-90986300D02*
X72571300Y-97219700D01*
X72390000Y-90805000D02*
X72571300Y-90986300D01*
X115339700Y-58309400D02*
X110370300Y-53340000D01*
X115339700Y-58420000D02*
X115339700Y-58309400D01*
X109220000Y-53340000D02*
X110370300Y-53340000D01*
X116840000Y-58420000D02*
X115339700Y-58420000D01*
X178839700Y-63095300D02*
X175895000Y-66040000D01*
X180975000Y-63095300D02*
X178839700Y-63095300D01*
X201120000Y-51180000D02*
X201120000Y-52405100D01*
X201120000Y-52405100D02*
X201120000Y-53630300D01*
X61553100Y-102107200D02*
X61553100Y-102235000D01*
X52386200Y-92940300D02*
X61553100Y-102107200D01*
X51435000Y-92940300D02*
X52386200Y-92940300D01*
X137795000Y-118110000D02*
X137795000Y-119610300D01*
X167881100Y-128741400D02*
X166370000Y-127230300D01*
X167881100Y-134148600D02*
X167881100Y-128741400D01*
X166370000Y-135659700D02*
X167881100Y-134148600D01*
X166370000Y-137160000D02*
X166370000Y-135659700D01*
X166370000Y-125730000D02*
X166370000Y-127230300D01*
X166370000Y-125730000D02*
X166370000Y-124229700D01*
X178114800Y-141925200D02*
X176530000Y-143510000D01*
X180025200Y-141925200D02*
X178114800Y-141925200D01*
X166370000Y-137160000D02*
X166370000Y-138660300D01*
X171293800Y-143584100D02*
X166370000Y-138660300D01*
X171367900Y-143510000D02*
X171293800Y-143584100D01*
X171450000Y-143510000D02*
X171367900Y-143510000D01*
X168910000Y-145967900D02*
X168910000Y-146050000D01*
X171293800Y-143584100D02*
X168910000Y-145967900D01*
X184150000Y-143510000D02*
X182586100Y-143510000D01*
X180025200Y-141925200D02*
X181610000Y-143510000D01*
X181610000Y-143510000D02*
X182586100Y-143510000D01*
X191675000Y-100437500D02*
X191675000Y-95250000D01*
X190742800Y-101369700D02*
X191675000Y-100437500D01*
X191675000Y-87050000D02*
X191770000Y-86955000D01*
X191675000Y-95250000D02*
X191675000Y-87050000D01*
X91440000Y-113030000D02*
X91440000Y-114530300D01*
X91440000Y-115570000D02*
X91440000Y-114530300D01*
X167870400Y-111299300D02*
X166370000Y-112799700D01*
X167870400Y-105988700D02*
X167870400Y-111299300D01*
X164751700Y-102870000D02*
X167870400Y-105988700D01*
X186690000Y-131892500D02*
X186690000Y-125730000D01*
X180025200Y-138557300D02*
X186690000Y-131892500D01*
X180025200Y-141925200D02*
X180025200Y-138557300D01*
X189230000Y-121689700D02*
X189230000Y-114300000D01*
X186690000Y-124229700D02*
X189230000Y-121689700D01*
X186690000Y-125730000D02*
X186690000Y-124229700D01*
X181245300Y-63095300D02*
X180975000Y-63095300D01*
X183555000Y-65405000D02*
X181245300Y-63095300D01*
X180975000Y-56515000D02*
X182475300Y-56515000D01*
X179070000Y-48890300D02*
X182584800Y-52405100D01*
X182584800Y-52405100D02*
X201120000Y-52405100D01*
X182475300Y-52514600D02*
X182475300Y-56515000D01*
X182584800Y-52405100D02*
X182475300Y-52514600D01*
X182475300Y-60094700D02*
X180975000Y-61595000D01*
X182475300Y-56515000D02*
X182475300Y-60094700D01*
X53834200Y-119008900D02*
X52300300Y-117475000D01*
X57114800Y-119008900D02*
X53834200Y-119008900D01*
X59871000Y-116252700D02*
X57114800Y-119008900D01*
X59871000Y-103917100D02*
X59871000Y-116252700D01*
X61553100Y-102235000D02*
X59871000Y-103917100D01*
X39370000Y-146050000D02*
X39370000Y-143510000D01*
X40956500Y-147636500D02*
X39370000Y-146050000D01*
X62889600Y-147636500D02*
X40956500Y-147636500D01*
X64476100Y-146050000D02*
X62889600Y-147636500D01*
X66040000Y-146050000D02*
X64476100Y-146050000D01*
X139308300Y-122986700D02*
X133350000Y-128945000D01*
X139308300Y-121123600D02*
X139308300Y-122986700D01*
X137795000Y-119610300D02*
X139308300Y-121123600D01*
X92710000Y-146050000D02*
X92710000Y-143510000D01*
X92710000Y-143510000D02*
X92710000Y-141946100D01*
X66040000Y-69850000D02*
X59690000Y-76200000D01*
X66040000Y-67310000D02*
X66040000Y-69850000D01*
X167257100Y-115800300D02*
X167914100Y-116457300D01*
X166370000Y-115800300D02*
X167257100Y-115800300D01*
X168740700Y-115630700D02*
X167914100Y-116457300D01*
X169569400Y-115630700D02*
X168740700Y-115630700D01*
X169763900Y-115825200D02*
X169569400Y-115630700D01*
X175004800Y-115825200D02*
X169763900Y-115825200D01*
X176530000Y-114300000D02*
X175004800Y-115825200D01*
X167914100Y-122685600D02*
X166370000Y-124229700D01*
X167914100Y-116457300D02*
X167914100Y-122685600D01*
X176486800Y-112756500D02*
X176530000Y-112799700D01*
X176486800Y-110763500D02*
X176486800Y-112756500D01*
X179070000Y-108180300D02*
X176486800Y-110763500D01*
X176530000Y-114300000D02*
X176530000Y-112799700D01*
X89535000Y-138771100D02*
X89535000Y-137160000D01*
X92710000Y-141946100D02*
X89535000Y-138771100D01*
X76200000Y-85090000D02*
X78700000Y-85090000D01*
X78700000Y-85090000D02*
X81915000Y-88305000D01*
X83185000Y-80605000D02*
X78700000Y-85090000D01*
X83185000Y-76200000D02*
X83185000Y-80605000D01*
X90805000Y-68580000D02*
X90805000Y-64770000D01*
X83185000Y-76200000D02*
X90805000Y-68580000D01*
X155575000Y-86360000D02*
X155575000Y-84459700D01*
X148590000Y-77474700D02*
X148590000Y-76160000D01*
X155575000Y-84459700D02*
X148590000Y-77474700D01*
X139700000Y-67270000D02*
X139700000Y-60960000D01*
X148590000Y-76160000D02*
X139700000Y-67270000D01*
X128270000Y-58420000D02*
X126769700Y-58420000D01*
X116840000Y-58420000D02*
X118340300Y-58420000D01*
X120015000Y-80010000D02*
X120015000Y-78509700D01*
X121551300Y-76973400D02*
X120015000Y-78509700D01*
X121551300Y-59974400D02*
X121551300Y-76973400D01*
X119894700Y-59974400D02*
X121551300Y-59974400D01*
X118340300Y-58420000D02*
X119894700Y-59974400D01*
X125215300Y-59974400D02*
X126769700Y-58420000D01*
X121551300Y-59974400D02*
X125215300Y-59974400D01*
X89535000Y-134340500D02*
X85013800Y-129819300D01*
X89535000Y-137160000D02*
X89535000Y-134340500D01*
X78979300Y-129819300D02*
X85013800Y-129819300D01*
X78740000Y-129580000D02*
X78979300Y-129819300D01*
X91440000Y-115772300D02*
X91440000Y-115570000D01*
X87756200Y-119456100D02*
X91440000Y-115772300D01*
X87756200Y-127076900D02*
X87756200Y-119456100D01*
X85013800Y-129819300D02*
X87756200Y-127076900D01*
D31*
X51925300Y-98770600D02*
X51925300Y-98425000D01*
X55389700Y-102235000D02*
X51925300Y-98770600D01*
X56515000Y-102235000D02*
X55389700Y-102235000D01*
X50800000Y-98425000D02*
X51925300Y-98425000D01*
D30*
X143510000Y-95883500D02*
X143510000Y-96750300D01*
X143510000Y-95883500D02*
X143510000Y-95250000D01*
X143510000Y-95250000D02*
X143510000Y-90805000D01*
X109855000Y-99695000D02*
X109855000Y-92075000D01*
X74930000Y-43180000D02*
X74930000Y-45720000D01*
X143510000Y-105929800D02*
X143510000Y-105179700D01*
X143510000Y-105929800D02*
X143510000Y-106680000D01*
X143510000Y-106680000D02*
X143510000Y-108180300D01*
X134620000Y-146050000D02*
X134620000Y-143510000D01*
X54610000Y-143510000D02*
X54610000Y-146050000D01*
X142009600Y-109680700D02*
X143510000Y-108180300D01*
X142009600Y-115420100D02*
X142009600Y-109680700D01*
X143199200Y-116609700D02*
X142009600Y-115420100D01*
X143510000Y-116609700D02*
X143199200Y-116609700D01*
X104775000Y-80010000D02*
X104775000Y-73890300D01*
X112395000Y-80010000D02*
X112395000Y-81510300D01*
X124690300Y-81510300D02*
X112395000Y-81510300D01*
X127635000Y-84455000D02*
X124690300Y-81510300D01*
X106275300Y-81510300D02*
X104775000Y-80010000D01*
X112395000Y-81510300D02*
X106275300Y-81510300D01*
X147320000Y-43180000D02*
X145819700Y-43180000D01*
X135890000Y-43180000D02*
X137390300Y-43180000D01*
X144635400Y-44364300D02*
X143510000Y-44364300D01*
X145819700Y-43180000D02*
X144635400Y-44364300D01*
X140825300Y-41679600D02*
X143510000Y-44364300D01*
X138609400Y-41679600D02*
X140825300Y-41679600D01*
X137390300Y-42898700D02*
X138609400Y-41679600D01*
X137390300Y-43180000D02*
X137390300Y-42898700D01*
X143510000Y-52070000D02*
X139700000Y-55880000D01*
X143510000Y-44364300D02*
X143510000Y-52070000D01*
X143510000Y-118036000D02*
X143510000Y-116609700D01*
X193675000Y-120654700D02*
X191135000Y-123194700D01*
X193675000Y-95250000D02*
X193675000Y-120654700D01*
X191135000Y-125095000D02*
X191135000Y-123194700D01*
X104775000Y-73023500D02*
X104775000Y-73890300D01*
X104775000Y-73023500D02*
X104775000Y-72390000D01*
X104775000Y-72390000D02*
X104775000Y-70889700D01*
X112395000Y-59055000D02*
X110894700Y-59055000D01*
X110894700Y-64770000D02*
X110894700Y-59055000D01*
X104775000Y-70889700D02*
X110894700Y-64770000D01*
X107950000Y-56110300D02*
X107950000Y-53340000D01*
X110894700Y-59055000D02*
X107950000Y-56110300D01*
X169924600Y-98275700D02*
X171450000Y-96750300D01*
X169924600Y-103935600D02*
X169924600Y-98275700D01*
X171168700Y-105179700D02*
X169924600Y-103935600D01*
X171450000Y-105179700D02*
X171168700Y-105179700D01*
X171450000Y-106680000D02*
X171450000Y-105179700D01*
X171450000Y-95250000D02*
X171450000Y-96750300D01*
X69850000Y-114935000D02*
X69850000Y-113434700D01*
X64135000Y-99695000D02*
X65635300Y-99695000D01*
X68349700Y-102409400D02*
X65635300Y-99695000D01*
X68349700Y-111934400D02*
X68349700Y-102409400D01*
X69850000Y-113434700D02*
X68349700Y-111934400D01*
X137795000Y-138771100D02*
X134620000Y-141946100D01*
X137795000Y-137160000D02*
X137795000Y-138771100D01*
X134620000Y-143510000D02*
X134620000Y-141946100D01*
X169902100Y-121158200D02*
X171450000Y-119610300D01*
X169902100Y-127361800D02*
X169902100Y-121158200D01*
X171450000Y-128909700D02*
X169902100Y-127361800D01*
X171450000Y-130810000D02*
X171450000Y-128909700D01*
X171450000Y-118110000D02*
X171450000Y-119610300D01*
X107731700Y-145831700D02*
X107950000Y-146050000D01*
X107731700Y-143728300D02*
X107731700Y-145831700D01*
X107950000Y-143510000D02*
X107731700Y-143728300D01*
X130175000Y-128270000D02*
X130175000Y-121920000D01*
X133350000Y-131445000D02*
X130175000Y-128270000D01*
X141996400Y-98263900D02*
X143510000Y-96750300D01*
X141996400Y-103947400D02*
X141996400Y-98263900D01*
X143228700Y-105179700D02*
X141996400Y-103947400D01*
X143510000Y-105179700D02*
X143228700Y-105179700D01*
X143510000Y-129540000D02*
X143510000Y-131040300D01*
X137795000Y-137160000D02*
X137795000Y-135959800D01*
X142414300Y-131040300D02*
X137795000Y-135659600D01*
X143510000Y-131040300D02*
X142414300Y-131040300D01*
X137795000Y-135959800D02*
X137795000Y-135659600D01*
X137564600Y-135659600D02*
X133350000Y-131445000D01*
X137795000Y-135659600D02*
X137564600Y-135659600D01*
X186055000Y-61595000D02*
X186055000Y-65405000D01*
X188595000Y-59055000D02*
X186055000Y-61595000D01*
X81280000Y-146050000D02*
X81280000Y-143510000D01*
X84455000Y-138771100D02*
X84455000Y-137160000D01*
X81280000Y-141946100D02*
X84455000Y-138771100D01*
X81280000Y-143510000D02*
X81280000Y-141946100D01*
X36195000Y-60960000D02*
X37695300Y-60960000D01*
X93180000Y-64645000D02*
X93305000Y-64770000D01*
X93180000Y-48425000D02*
X93180000Y-64645000D01*
X98425000Y-43180000D02*
X93180000Y-48425000D01*
X38087600Y-60960000D02*
X37695300Y-60960000D01*
X40640000Y-63512400D02*
X38087600Y-60960000D01*
X40640000Y-81280000D02*
X40640000Y-63512400D01*
X39124000Y-82796000D02*
X40640000Y-81280000D01*
X39124000Y-84402200D02*
X39124000Y-82796000D01*
X50646800Y-95925000D02*
X39124000Y-84402200D01*
X50800000Y-95925000D02*
X50646800Y-95925000D01*
X77378700Y-123964000D02*
X76835000Y-123420300D01*
X77378700Y-127004400D02*
X77378700Y-123964000D01*
X77213400Y-127169700D02*
X77378700Y-127004400D01*
X77213400Y-130553400D02*
X77213400Y-127169700D01*
X78740000Y-132080000D02*
X77213400Y-130553400D01*
X76835000Y-121920000D02*
X76835000Y-123420300D01*
X68540000Y-52110000D02*
X68540000Y-67310000D01*
X74930000Y-45720000D02*
X68540000Y-52110000D01*
X68349600Y-96980700D02*
X65635300Y-99695000D01*
X68349700Y-96980700D02*
X68349600Y-96980700D01*
X68349700Y-90156100D02*
X68349700Y-96980700D01*
X70412800Y-88093000D02*
X68349700Y-90156100D01*
X70875800Y-87630000D02*
X76200000Y-87630000D01*
X70412800Y-88093000D02*
X70875800Y-87630000D01*
X80875300Y-90805000D02*
X81915000Y-90805000D01*
X77700300Y-87630000D02*
X80875300Y-90805000D01*
X76200000Y-87630000D02*
X77700300Y-87630000D01*
X143510000Y-118036000D02*
X143510000Y-118110000D01*
X143199200Y-128039700D02*
X143510000Y-128039700D01*
X142006900Y-126847400D02*
X143199200Y-128039700D01*
X142006900Y-121113400D02*
X142006900Y-126847400D01*
X143510000Y-119610300D02*
X142006900Y-121113400D01*
X143510000Y-118110000D02*
X143510000Y-119610300D01*
X143510000Y-129540000D02*
X143510000Y-128039700D01*
X67031700Y-84712000D02*
X70412800Y-88093000D01*
X67031700Y-81979200D02*
X67031700Y-84712000D01*
X67087900Y-81923000D02*
X67031700Y-81979200D01*
X67087900Y-81424900D02*
X67087900Y-81923000D01*
X68540000Y-79972800D02*
X67087900Y-81424900D01*
X68540000Y-67310000D02*
X68540000Y-79972800D01*
D31*
X72350000Y-102750000D02*
X72350000Y-107950000D01*
X71120000Y-101520000D02*
X72350000Y-102750000D01*
X153035000Y-67945000D02*
X153035000Y-68707600D01*
X152395000Y-69347600D02*
X152395000Y-70480000D01*
X153035000Y-68707600D02*
X152395000Y-69347600D01*
X151770000Y-70480000D02*
X152395000Y-70480000D01*
X148590000Y-73660000D02*
X151770000Y-70480000D01*
X152395000Y-70480000D02*
X155575000Y-73660000D01*
X175895000Y-53340000D02*
X176657700Y-53340000D01*
X167600000Y-62397700D02*
X167600000Y-63500000D01*
X176657700Y-53340000D02*
X167600000Y-62397700D01*
X176657700Y-53893700D02*
X176657700Y-53340000D01*
X180693700Y-57929700D02*
X176657700Y-53893700D01*
X180975000Y-57929700D02*
X180693700Y-57929700D01*
X180975000Y-59055000D02*
X180975000Y-57929700D01*
X69890000Y-95290000D02*
X69890000Y-90805000D01*
X71120000Y-96520000D02*
X69890000Y-95290000D01*
X166370000Y-46990000D02*
X166370000Y-55285000D01*
X116333000Y-95269700D02*
X114401900Y-97200800D01*
X123011700Y-95269700D02*
X116333000Y-95269700D01*
X113759800Y-97842900D02*
X114401900Y-97200800D01*
X113759800Y-104443800D02*
X113759800Y-97842900D01*
X114935000Y-105619000D02*
X113759800Y-104443800D01*
X114935000Y-118110000D02*
X114935000Y-105619000D01*
X97155000Y-101600000D02*
X97155000Y-102775300D01*
X95885000Y-104045300D02*
X97155000Y-102775300D01*
X95885000Y-110490000D02*
X95885000Y-104045300D01*
X103714900Y-126682300D02*
X103568700Y-126828500D01*
X103714900Y-123340800D02*
X103714900Y-126682300D01*
X103353500Y-122979400D02*
X103714900Y-123340800D01*
X102779200Y-122979400D02*
X103353500Y-122979400D01*
X102709600Y-123049000D02*
X102779200Y-122979400D01*
X101707200Y-123049000D02*
X102709600Y-123049000D01*
X100965000Y-122306800D02*
X101707200Y-123049000D01*
X100965000Y-118110000D02*
X100965000Y-122306800D01*
X197485000Y-142057600D02*
X197485000Y-137795000D01*
X194681500Y-144861100D02*
X197485000Y-142057600D01*
X194310000Y-144861100D02*
X194681500Y-144861100D01*
X194310000Y-146050000D02*
X194310000Y-144861100D01*
X40005000Y-103505000D02*
X41193900Y-103505000D01*
X56515000Y-117475000D02*
X55389700Y-117475000D01*
X51455400Y-113540700D02*
X55389700Y-117475000D01*
X50659400Y-113540700D02*
X51455400Y-113540700D01*
X41193900Y-104075200D02*
X50659400Y-113540700D01*
X41193900Y-103505000D02*
X41193900Y-104075200D01*
X56515000Y-114935000D02*
X55389700Y-114935000D01*
X50643000Y-112640000D02*
X45236900Y-107233900D01*
X53094700Y-112640000D02*
X50643000Y-112640000D01*
X55389700Y-114935000D02*
X53094700Y-112640000D01*
X41538400Y-144861100D02*
X41910000Y-144861100D01*
X40721100Y-144043800D02*
X41538400Y-144861100D01*
X40721100Y-140271400D02*
X40721100Y-144043800D01*
X38735000Y-138285300D02*
X40721100Y-140271400D01*
X38735000Y-137160000D02*
X38735000Y-138285300D01*
X41910000Y-146050000D02*
X41910000Y-144861100D01*
X41910000Y-138920300D02*
X41910000Y-143510000D01*
X41275000Y-138285300D02*
X41910000Y-138920300D01*
X41275000Y-137160000D02*
X41275000Y-138285300D01*
X44078400Y-144861100D02*
X44450000Y-144861100D01*
X43261100Y-144043800D02*
X44078400Y-144861100D01*
X43261100Y-138839200D02*
X43261100Y-144043800D01*
X43815000Y-138285300D02*
X43261100Y-138839200D01*
X43815000Y-137160000D02*
X43815000Y-138285300D01*
X44450000Y-146050000D02*
X44450000Y-144861100D01*
X46355000Y-140416100D02*
X44450000Y-142321100D01*
X46355000Y-137160000D02*
X46355000Y-140416100D01*
X44450000Y-143510000D02*
X44450000Y-142321100D01*
X47361600Y-144861100D02*
X46990000Y-144861100D01*
X48178900Y-144043800D02*
X47361600Y-144861100D01*
X48178900Y-139001400D02*
X48178900Y-144043800D01*
X48895000Y-138285300D02*
X48178900Y-139001400D01*
X48895000Y-137160000D02*
X48895000Y-138285300D01*
X46990000Y-146050000D02*
X46990000Y-144861100D01*
X36476300Y-123045300D02*
X36195000Y-123045300D01*
X50165000Y-136734000D02*
X36476300Y-123045300D01*
X50165000Y-141169200D02*
X50165000Y-136734000D01*
X50881100Y-141885300D02*
X50165000Y-141169200D01*
X50881100Y-144043800D02*
X50881100Y-141885300D01*
X51698400Y-144861100D02*
X50881100Y-144043800D01*
X52070000Y-144861100D02*
X51698400Y-144861100D01*
X52070000Y-146050000D02*
X52070000Y-144861100D01*
X36195000Y-121920000D02*
X36195000Y-123045300D01*
X55117200Y-139273900D02*
X52070000Y-142321100D01*
X55117200Y-136705800D02*
X55117200Y-139273900D01*
X41456700Y-123045300D02*
X55117200Y-136705800D01*
X40704200Y-123045300D02*
X41456700Y-123045300D01*
X39860300Y-122201400D02*
X40704200Y-123045300D01*
X39860300Y-121920000D02*
X39860300Y-122201400D01*
X38735000Y-121920000D02*
X39860300Y-121920000D01*
X52070000Y-143510000D02*
X52070000Y-142321100D01*
X67391100Y-145158300D02*
X67391100Y-146050000D01*
X67093900Y-144861100D02*
X67391100Y-145158300D01*
X65630800Y-144861100D02*
X67093900Y-144861100D01*
X59055000Y-138285300D02*
X65630800Y-144861100D01*
X59055000Y-137160000D02*
X59055000Y-138285300D01*
X68580000Y-146050000D02*
X67391100Y-146050000D01*
X65478900Y-139220000D02*
X68580000Y-142321100D01*
X65478900Y-136906100D02*
X65478900Y-139220000D01*
X64592800Y-136020000D02*
X65478900Y-136906100D01*
X63579000Y-136020000D02*
X64592800Y-136020000D01*
X62720300Y-136878700D02*
X63579000Y-136020000D01*
X62720300Y-137160000D02*
X62720300Y-136878700D01*
X61595000Y-137160000D02*
X62720300Y-137160000D01*
X68580000Y-143510000D02*
X68580000Y-142321100D01*
X69931100Y-145678400D02*
X69931100Y-146050000D01*
X69113800Y-144861100D02*
X69931100Y-145678400D01*
X68248600Y-144861100D02*
X69113800Y-144861100D01*
X67229000Y-143841500D02*
X68248600Y-144861100D01*
X67229000Y-142771600D02*
X67229000Y-143841500D01*
X64135000Y-139677600D02*
X67229000Y-142771600D01*
X64135000Y-137160000D02*
X64135000Y-139677600D01*
X71120000Y-146050000D02*
X69931100Y-146050000D01*
X70710800Y-142321100D02*
X71120000Y-142321100D01*
X66675000Y-138285300D02*
X70710800Y-142321100D01*
X66675000Y-137160000D02*
X66675000Y-138285300D01*
X71120000Y-143510000D02*
X71120000Y-142321100D01*
X73288400Y-144861100D02*
X73660000Y-144861100D01*
X72471100Y-144043800D02*
X73288400Y-144861100D01*
X72471100Y-141541400D02*
X72471100Y-144043800D01*
X69215000Y-138285300D02*
X72471100Y-141541400D01*
X69215000Y-137160000D02*
X69215000Y-138285300D01*
X73660000Y-146050000D02*
X73660000Y-144861100D01*
X73660000Y-140190300D02*
X73660000Y-143510000D01*
X71755000Y-138285300D02*
X73660000Y-140190300D01*
X71755000Y-137160000D02*
X71755000Y-138285300D01*
X75828400Y-144861100D02*
X76200000Y-144861100D01*
X75011100Y-144043800D02*
X75828400Y-144861100D01*
X75011100Y-139001400D02*
X75011100Y-144043800D01*
X74295000Y-138285300D02*
X75011100Y-139001400D01*
X74295000Y-137160000D02*
X74295000Y-138285300D01*
X76200000Y-146050000D02*
X76200000Y-144861100D01*
X76835000Y-141686100D02*
X76200000Y-142321100D01*
X76835000Y-137160000D02*
X76835000Y-141686100D01*
X76200000Y-143510000D02*
X76200000Y-142321100D01*
X77531300Y-140129000D02*
X79375000Y-138285300D01*
X77531300Y-144023900D02*
X77531300Y-140129000D01*
X78368500Y-144861100D02*
X77531300Y-144023900D01*
X78740000Y-144861100D02*
X78368500Y-144861100D01*
X78740000Y-146050000D02*
X78740000Y-144861100D01*
X79375000Y-137160000D02*
X79375000Y-138285300D01*
X78740000Y-141460300D02*
X78740000Y-143510000D01*
X81915000Y-138285300D02*
X78740000Y-141460300D01*
X81915000Y-137160000D02*
X81915000Y-138285300D01*
X137795000Y-99695000D02*
X137795000Y-100820300D01*
X138988800Y-102014100D02*
X138988800Y-119354700D01*
X137795000Y-100820300D02*
X138988800Y-102014100D01*
X97790000Y-140966900D02*
X97790000Y-143510000D01*
X98315800Y-140441100D02*
X97790000Y-140966900D01*
X140191200Y-124999800D02*
X137831300Y-127359700D01*
X140191200Y-119647700D02*
X140191200Y-124999800D01*
X139652800Y-119109300D02*
X140191200Y-119647700D01*
X139652800Y-101455500D02*
X139652800Y-119109300D01*
X138829500Y-100632200D02*
X139652800Y-101455500D01*
X100330000Y-146050000D02*
X99141100Y-146050000D01*
X132715000Y-99695000D02*
X132715000Y-100820300D01*
X131589600Y-111521100D02*
X129969300Y-113141400D01*
X131589600Y-101945700D02*
X131589600Y-111521100D01*
X132715000Y-100820300D02*
X131589600Y-101945700D01*
X94759600Y-115282700D02*
X95290400Y-114751900D01*
X94759600Y-119690100D02*
X94759600Y-115282700D01*
X95759300Y-120689800D02*
X94759600Y-119690100D01*
X95759300Y-123174800D02*
X95759300Y-120689800D01*
X93453400Y-125480700D02*
X95759300Y-123174800D01*
X93453400Y-138391100D02*
X93453400Y-125480700D01*
X96601000Y-141538700D02*
X93453400Y-138391100D01*
X96601000Y-144024300D02*
X96601000Y-141538700D01*
X97437800Y-144861100D02*
X96601000Y-144024300D01*
X98323800Y-144861100D02*
X97437800Y-144861100D01*
X99141100Y-145678400D02*
X98323800Y-144861100D01*
X99141100Y-146050000D02*
X99141100Y-145678400D01*
X100330000Y-143510000D02*
X100330000Y-142321100D01*
X140503600Y-101421800D02*
X140503600Y-119071700D01*
X139742600Y-100660800D02*
X140503600Y-101421800D01*
X103505000Y-136827800D02*
X108152700Y-132180100D01*
X103505000Y-139146100D02*
X103505000Y-136827800D01*
X100330000Y-142321100D02*
X103505000Y-139146100D01*
X106623800Y-149803800D02*
X102870000Y-146050000D01*
X107021400Y-149803800D02*
X106623800Y-149803800D01*
X127635000Y-99695000D02*
X127635000Y-98569700D01*
X128301700Y-97903000D02*
X128301700Y-93641100D01*
X127635000Y-98569700D02*
X128301700Y-97903000D01*
X112568200Y-148616200D02*
X146967500Y-148616200D01*
X108732000Y-144780000D02*
X112568200Y-148616200D01*
X105410000Y-146050000D02*
X106598900Y-146050000D01*
X106598900Y-146421500D02*
X106598900Y-146050000D01*
X109425800Y-149248400D02*
X106598900Y-146421500D01*
X162377500Y-149248400D02*
X109425800Y-149248400D01*
X165018900Y-146607000D02*
X162377500Y-149248400D01*
X165018900Y-145718700D02*
X165018900Y-146607000D01*
X165957600Y-144780000D02*
X165018900Y-145718700D01*
X166796800Y-144780000D02*
X165957600Y-144780000D01*
X167640000Y-143936800D02*
X166796800Y-144780000D01*
X167640000Y-141379400D02*
X167640000Y-143936800D01*
X118019900Y-98543900D02*
X118889700Y-99413700D01*
X116995400Y-98543900D02*
X118019900Y-98543900D01*
X116316000Y-99223300D02*
X116995400Y-98543900D01*
X116316000Y-128516900D02*
X116316000Y-99223300D01*
X116617700Y-128818600D02*
X116316000Y-128516900D01*
X116617700Y-129336800D02*
X116617700Y-128818600D01*
X116251500Y-129703000D02*
X116617700Y-129336800D01*
X115719400Y-129703000D02*
X116251500Y-129703000D01*
X108585000Y-136837400D02*
X115719400Y-129703000D01*
X108585000Y-139146100D02*
X108585000Y-136837400D01*
X120015000Y-99695000D02*
X118889700Y-99695000D01*
X105410000Y-143510000D02*
X105410000Y-142321100D01*
X118889700Y-99413700D02*
X118889700Y-99695000D01*
X105410000Y-142321100D02*
X108585000Y-139146100D01*
X120731100Y-145158300D02*
X120731100Y-146050000D01*
X120433900Y-144861100D02*
X120731100Y-145158300D01*
X118970800Y-144861100D02*
X120433900Y-144861100D01*
X112395000Y-138285300D02*
X118970800Y-144861100D01*
X112395000Y-137160000D02*
X112395000Y-138285300D01*
X121920000Y-146050000D02*
X120731100Y-146050000D01*
X118600400Y-139001500D02*
X121920000Y-142321100D01*
X118600400Y-136689100D02*
X118600400Y-139001500D01*
X117897200Y-135985900D02*
X118600400Y-136689100D01*
X116953100Y-135985900D02*
X117897200Y-135985900D01*
X116060300Y-136878700D02*
X116953100Y-135985900D01*
X116060300Y-137160000D02*
X116060300Y-136878700D01*
X114935000Y-137160000D02*
X116060300Y-137160000D01*
X121920000Y-143510000D02*
X121920000Y-142321100D01*
X123271100Y-145678400D02*
X123271100Y-146050000D01*
X122453800Y-144861100D02*
X123271100Y-145678400D01*
X121588600Y-144861100D02*
X122453800Y-144861100D01*
X120569000Y-143841500D02*
X121588600Y-144861100D01*
X120569000Y-142771600D02*
X120569000Y-143841500D01*
X117475000Y-139677600D02*
X120569000Y-142771600D01*
X117475000Y-137160000D02*
X117475000Y-139677600D01*
X124460000Y-146050000D02*
X123271100Y-146050000D01*
X124050800Y-142321100D02*
X124460000Y-142321100D01*
X120015000Y-138285300D02*
X124050800Y-142321100D01*
X120015000Y-137160000D02*
X120015000Y-138285300D01*
X124460000Y-143510000D02*
X124460000Y-142321100D01*
X126628400Y-144861100D02*
X127000000Y-144861100D01*
X125811100Y-144043800D02*
X126628400Y-144861100D01*
X125811100Y-141541400D02*
X125811100Y-144043800D01*
X122555000Y-138285300D02*
X125811100Y-141541400D01*
X122555000Y-137160000D02*
X122555000Y-138285300D01*
X127000000Y-146050000D02*
X127000000Y-144861100D01*
X127000000Y-140190300D02*
X127000000Y-143510000D01*
X125095000Y-138285300D02*
X127000000Y-140190300D01*
X125095000Y-137160000D02*
X125095000Y-138285300D01*
X129168400Y-144861100D02*
X129540000Y-144861100D01*
X128351100Y-144043800D02*
X129168400Y-144861100D01*
X128351100Y-139001400D02*
X128351100Y-144043800D01*
X127635000Y-138285300D02*
X128351100Y-139001400D01*
X127635000Y-137160000D02*
X127635000Y-138285300D01*
X129540000Y-146050000D02*
X129540000Y-144861100D01*
X130175000Y-141686100D02*
X129540000Y-142321100D01*
X130175000Y-137160000D02*
X130175000Y-141686100D01*
X129540000Y-143510000D02*
X129540000Y-142321100D01*
X130871300Y-140129000D02*
X132715000Y-138285300D01*
X130871300Y-144023900D02*
X130871300Y-140129000D01*
X131708500Y-144861100D02*
X130871300Y-144023900D01*
X132080000Y-144861100D02*
X131708500Y-144861100D01*
X132080000Y-146050000D02*
X132080000Y-144861100D01*
X132715000Y-137160000D02*
X132715000Y-138285300D01*
X132080000Y-141460300D02*
X132080000Y-143510000D01*
X135255000Y-138285300D02*
X132080000Y-141460300D01*
X135255000Y-137160000D02*
X135255000Y-138285300D01*
X52560300Y-122201400D02*
X52560300Y-121920000D01*
X53404200Y-123045300D02*
X52560300Y-122201400D01*
X64678700Y-123045300D02*
X53404200Y-123045300D01*
X65405000Y-122319000D02*
X64678700Y-123045300D01*
X65405000Y-121592500D02*
X65405000Y-122319000D01*
X69766800Y-117230700D02*
X65405000Y-121592500D01*
X71690400Y-117230700D02*
X69766800Y-117230700D01*
X75074700Y-113846400D02*
X71690400Y-117230700D01*
X75074700Y-94679200D02*
X75074700Y-113846400D01*
X75918600Y-93835300D02*
X75074700Y-94679200D01*
X76200000Y-93835300D02*
X75918600Y-93835300D01*
X76200000Y-92710000D02*
X76200000Y-93835300D01*
X51435000Y-121920000D02*
X52560300Y-121920000D01*
X97155000Y-88900000D02*
X97155000Y-90075300D01*
X106680000Y-53340000D02*
X106680000Y-54415300D01*
X107124600Y-54859900D02*
X106680000Y-54415300D01*
X107124600Y-66658000D02*
X107124600Y-54859900D01*
X102511700Y-71270900D02*
X107124600Y-66658000D01*
X102511700Y-78827200D02*
X102511700Y-71270900D01*
X101167000Y-80171900D02*
X102511700Y-78827200D01*
X101167000Y-89240200D02*
X101167000Y-80171900D01*
X97754000Y-92653200D02*
X101167000Y-89240200D01*
X95971900Y-92653200D02*
X97754000Y-92653200D01*
X95971900Y-90891100D02*
X95971900Y-92653200D01*
X96787700Y-90075300D02*
X95971900Y-90891100D01*
X97155000Y-90075300D02*
X96787700Y-90075300D01*
X104775000Y-120641500D02*
X104775000Y-121920000D01*
X103649600Y-119516100D02*
X104775000Y-120641500D01*
X103649600Y-105756900D02*
X103649600Y-119516100D01*
X98330400Y-100437700D02*
X103649600Y-105756900D01*
X98330400Y-98504600D02*
X98330400Y-100437700D01*
X97615800Y-97790000D02*
X98330400Y-98504600D01*
X96741900Y-97790000D02*
X97615800Y-97790000D01*
X95971900Y-97020000D02*
X96741900Y-97790000D01*
X95971900Y-92653200D02*
X95971900Y-97020000D01*
X113665000Y-126750300D02*
X115992400Y-129077700D01*
X113665000Y-120505300D02*
X113665000Y-126750300D01*
X112395000Y-119235300D02*
X113665000Y-120505300D01*
X112395000Y-118110000D02*
X112395000Y-119235300D01*
X148590000Y-146050000D02*
X149778900Y-146050000D01*
X163830000Y-125730000D02*
X163830000Y-129540000D01*
X166370000Y-106680000D02*
X166370000Y-107805300D01*
X149778900Y-146421600D02*
X149778900Y-146050000D01*
X151496900Y-148139600D02*
X149778900Y-146421600D01*
X160941900Y-148139600D02*
X151496900Y-148139600D01*
X162583000Y-146498500D02*
X160941900Y-148139600D01*
X162583000Y-145605300D02*
X162583000Y-146498500D01*
X163408300Y-144780000D02*
X162583000Y-145605300D01*
X164298000Y-144780000D02*
X163408300Y-144780000D01*
X165070600Y-144007400D02*
X164298000Y-144780000D01*
X165070600Y-141683800D02*
X165070600Y-144007400D01*
X162696800Y-139310000D02*
X165070600Y-141683800D01*
X162696800Y-136531000D02*
X162696800Y-139310000D01*
X163830000Y-135397800D02*
X162696800Y-136531000D01*
X163830000Y-129540000D02*
X163830000Y-135397800D01*
X163830000Y-119872200D02*
X163830000Y-125730000D01*
X162655300Y-118697500D02*
X163830000Y-119872200D01*
X162655300Y-111055700D02*
X162655300Y-118697500D01*
X165905700Y-107805300D02*
X162655300Y-111055700D01*
X166370000Y-107805300D02*
X165905700Y-107805300D01*
X148590000Y-140825300D02*
X148590000Y-143510000D01*
X146050000Y-138285300D02*
X148590000Y-140825300D01*
X146050000Y-137160000D02*
X146050000Y-138285300D01*
X144924700Y-134909400D02*
X146050000Y-136034700D01*
X144924700Y-120998800D02*
X144924700Y-134909400D01*
X146050000Y-119873500D02*
X144924700Y-120998800D01*
X146050000Y-118110000D02*
X146050000Y-119873500D01*
X146050000Y-137160000D02*
X146050000Y-136034700D01*
X151130000Y-146050000D02*
X152318900Y-146050000D01*
X163830000Y-106680000D02*
X163830000Y-107805300D01*
X152318900Y-146403900D02*
X152318900Y-146050000D01*
X153604300Y-147689300D02*
X152318900Y-146403900D01*
X158845700Y-147689300D02*
X153604300Y-147689300D01*
X159938900Y-146596100D02*
X158845700Y-147689300D01*
X159938900Y-145718700D02*
X159938900Y-146596100D01*
X160958600Y-144699000D02*
X159938900Y-145718700D01*
X161804300Y-144699000D02*
X160958600Y-144699000D01*
X162503700Y-143999600D02*
X161804300Y-144699000D01*
X162503700Y-142264700D02*
X162503700Y-143999600D01*
X160156800Y-139917800D02*
X162503700Y-142264700D01*
X160156800Y-136531000D02*
X160156800Y-139917800D01*
X161290000Y-135397800D02*
X160156800Y-136531000D01*
X161290000Y-129540000D02*
X161290000Y-135397800D01*
X161290000Y-119905200D02*
X161290000Y-125730000D01*
X160164600Y-118779800D02*
X161290000Y-119905200D01*
X160164600Y-111470700D02*
X160164600Y-118779800D01*
X163830000Y-107805300D02*
X160164600Y-111470700D01*
X161290000Y-125730000D02*
X161290000Y-129540000D01*
X147464700Y-134909400D02*
X148590000Y-136034700D01*
X147464700Y-120360600D02*
X147464700Y-134909400D01*
X148590000Y-119235300D02*
X147464700Y-120360600D01*
X148590000Y-118110000D02*
X148590000Y-119235300D01*
X148590000Y-137160000D02*
X148590000Y-136034700D01*
X161290000Y-106680000D02*
X161290000Y-107805300D01*
X158750000Y-119872200D02*
X158750000Y-125730000D01*
X157616800Y-118739000D02*
X158750000Y-119872200D01*
X157616800Y-111478500D02*
X157616800Y-118739000D01*
X161290000Y-107805300D02*
X157616800Y-111478500D01*
X153670000Y-146050000D02*
X154858900Y-146050000D01*
X158750000Y-125730000D02*
X158750000Y-129540000D01*
X154858900Y-146421600D02*
X154858900Y-146050000D01*
X155676200Y-147238900D02*
X154858900Y-146421600D01*
X156721600Y-147238900D02*
X155676200Y-147238900D01*
X157480000Y-146480500D02*
X156721600Y-147238900D01*
X157480000Y-145616700D02*
X157480000Y-146480500D01*
X158235700Y-144861000D02*
X157480000Y-145616700D01*
X159095900Y-144861000D02*
X158235700Y-144861000D01*
X159955500Y-144001400D02*
X159095900Y-144861000D01*
X159955500Y-142788100D02*
X159955500Y-144001400D01*
X157620700Y-140453300D02*
X159955500Y-142788100D01*
X157620700Y-136489100D02*
X157620700Y-140453300D01*
X158750000Y-135359800D02*
X157620700Y-136489100D01*
X158750000Y-129540000D02*
X158750000Y-135359800D01*
X153670000Y-140825300D02*
X153670000Y-143510000D01*
X151130000Y-138285300D02*
X153670000Y-140825300D01*
X151130000Y-137160000D02*
X151130000Y-138285300D01*
X150004700Y-134909400D02*
X151130000Y-136034700D01*
X150004700Y-120360600D02*
X150004700Y-134909400D01*
X151130000Y-119235300D02*
X150004700Y-120360600D01*
X151130000Y-118110000D02*
X151130000Y-119235300D01*
X151130000Y-137160000D02*
X151130000Y-136034700D01*
X156210000Y-125730000D02*
X156210000Y-129540000D01*
X156210000Y-146050000D02*
X156210000Y-144861100D01*
X156210000Y-129540000D02*
X156210000Y-130665300D01*
X156210000Y-133685800D02*
X156210000Y-130665300D01*
X155020400Y-134875400D02*
X156210000Y-133685800D01*
X155020400Y-144043000D02*
X155020400Y-134875400D01*
X155838500Y-144861100D02*
X155020400Y-144043000D01*
X156210000Y-144861100D02*
X155838500Y-144861100D01*
X165796200Y-119625900D02*
X165796200Y-121767400D01*
X164975300Y-118805000D02*
X165796200Y-119625900D01*
X164975300Y-113009400D02*
X164975300Y-118805000D01*
X163280600Y-111314700D02*
X164975300Y-113009400D01*
X153670000Y-118110000D02*
X153670000Y-119235300D01*
X153670000Y-137160000D02*
X153670000Y-136034700D01*
X153670000Y-120509100D02*
X153670000Y-119235300D01*
X152544700Y-121634400D02*
X153670000Y-120509100D01*
X152544700Y-134909400D02*
X152544700Y-121634400D01*
X153670000Y-136034700D02*
X152544700Y-134909400D01*
X153670000Y-125730000D02*
X153670000Y-129540000D01*
X154678300Y-131673600D02*
X154678300Y-134333100D01*
X153670000Y-130665300D02*
X154678300Y-131673600D01*
X153670000Y-129540000D02*
X153670000Y-130665300D01*
X154795300Y-123479400D02*
X153670000Y-124604700D01*
X154795300Y-109220000D02*
X154795300Y-123479400D01*
X156210000Y-107805300D02*
X154795300Y-109220000D01*
X156210000Y-106680000D02*
X156210000Y-107805300D01*
X153670000Y-125730000D02*
X153670000Y-124604700D01*
X156210000Y-139781100D02*
X158750000Y-142321100D01*
X156210000Y-137160000D02*
X156210000Y-139781100D01*
X158750000Y-143510000D02*
X158750000Y-142321100D01*
X157335300Y-134909400D02*
X156210000Y-136034700D01*
X157335300Y-120360600D02*
X157335300Y-134909400D01*
X156210000Y-119235300D02*
X157335300Y-120360600D01*
X156210000Y-118110000D02*
X156210000Y-119235300D01*
X156210000Y-137160000D02*
X156210000Y-136034700D01*
X151130000Y-125730000D02*
X151130000Y-129540000D01*
X153670000Y-106680000D02*
X153670000Y-107805300D01*
X151130000Y-125730000D02*
X151130000Y-124604700D01*
X151130000Y-122093900D02*
X151130000Y-124604700D01*
X152263300Y-120960600D02*
X151130000Y-122093900D01*
X152263300Y-111333400D02*
X152263300Y-120960600D01*
X151889100Y-110959200D02*
X152263300Y-111333400D01*
X151889100Y-109586200D02*
X151889100Y-110959200D01*
X153670000Y-107805300D02*
X151889100Y-109586200D01*
X159875300Y-134909400D02*
X158750000Y-136034700D01*
X159875300Y-120360600D02*
X159875300Y-134909400D01*
X158750000Y-119235300D02*
X159875300Y-120360600D01*
X158750000Y-118110000D02*
X158750000Y-119235300D01*
X158750000Y-137160000D02*
X158750000Y-136034700D01*
X148590000Y-125730000D02*
X148590000Y-129540000D01*
X151130000Y-106680000D02*
X151130000Y-107805300D01*
X148590000Y-121028100D02*
X148590000Y-125730000D01*
X149768600Y-119849500D02*
X148590000Y-121028100D01*
X149768600Y-109166700D02*
X149768600Y-119849500D01*
X151130000Y-107805300D02*
X149768600Y-109166700D01*
X163830000Y-143510000D02*
X163830000Y-142321100D01*
X161290000Y-139781100D02*
X161290000Y-137160000D01*
X163830000Y-142321100D02*
X161290000Y-139781100D01*
X162415300Y-134909400D02*
X161290000Y-136034700D01*
X162415300Y-120360600D02*
X162415300Y-134909400D01*
X161290000Y-119235300D02*
X162415300Y-120360600D01*
X161290000Y-118110000D02*
X161290000Y-119235300D01*
X161290000Y-137160000D02*
X161290000Y-136034700D01*
X146050000Y-129540000D02*
X146050000Y-125730000D01*
X146619600Y-124035100D02*
X146050000Y-124604700D01*
X146619600Y-119630100D02*
X146619600Y-124035100D01*
X147320000Y-118929700D02*
X146619600Y-119630100D01*
X147320000Y-111741900D02*
X147320000Y-118929700D01*
X148590000Y-110471900D02*
X147320000Y-111741900D01*
X148590000Y-106680000D02*
X148590000Y-110471900D01*
X146050000Y-125730000D02*
X146050000Y-124604700D01*
X163830000Y-139781100D02*
X166370000Y-142321100D01*
X163830000Y-137160000D02*
X163830000Y-139781100D01*
X166370000Y-143510000D02*
X166370000Y-142321100D01*
X164955300Y-134909400D02*
X163830000Y-136034700D01*
X164955300Y-120360600D02*
X164955300Y-134909400D01*
X163830000Y-119235300D02*
X164955300Y-120360600D01*
X163830000Y-118110000D02*
X163830000Y-119235300D01*
X163830000Y-137160000D02*
X163830000Y-136034700D01*
X174361600Y-144861100D02*
X173990000Y-144861100D01*
X175178900Y-144043800D02*
X174361600Y-144861100D01*
X175178900Y-136298300D02*
X175178900Y-144043800D01*
X185564700Y-125912500D02*
X175178900Y-136298300D01*
X185564700Y-97500600D02*
X185564700Y-125912500D01*
X186690000Y-96375300D02*
X185564700Y-97500600D01*
X186690000Y-95250000D02*
X186690000Y-96375300D01*
X173990000Y-146050000D02*
X173990000Y-144861100D01*
X143510000Y-113737300D02*
X143510000Y-113174700D01*
X143510000Y-113737300D02*
X143510000Y-114300000D01*
X144792500Y-111892200D02*
X143510000Y-113174700D01*
X144792500Y-106324700D02*
X144792500Y-111892200D01*
X146671600Y-104445600D02*
X144792500Y-106324700D01*
X151250500Y-104445600D02*
X146671600Y-104445600D01*
X152544700Y-103151400D02*
X151250500Y-104445600D01*
X152544700Y-102870000D02*
X152544700Y-103151400D01*
X176530000Y-146050000D02*
X175341100Y-146050000D01*
X172575300Y-126011400D02*
X172575300Y-125730000D01*
X173016600Y-126452700D02*
X172575300Y-126011400D01*
X173016600Y-137750700D02*
X173016600Y-126452700D01*
X172775100Y-137992200D02*
X173016600Y-137750700D01*
X172775100Y-146546100D02*
X172775100Y-137992200D01*
X173477700Y-147248700D02*
X172775100Y-146546100D01*
X174511900Y-147248700D02*
X173477700Y-147248700D01*
X175341100Y-146419500D02*
X174511900Y-147248700D01*
X175341100Y-146050000D02*
X175341100Y-146419500D01*
X171450000Y-125730000D02*
X172575300Y-125730000D01*
X153670000Y-102870000D02*
X152544700Y-102870000D01*
X172575300Y-123479400D02*
X171450000Y-124604700D01*
X172575300Y-117632900D02*
X172575300Y-123479400D01*
X171787500Y-116845100D02*
X172575300Y-117632900D01*
X169369100Y-116845100D02*
X171787500Y-116845100D01*
X169155000Y-116631000D02*
X169369100Y-116845100D01*
X171450000Y-125730000D02*
X171450000Y-124604700D01*
X97155000Y-121920000D02*
X97155000Y-123045300D01*
X186690000Y-146050000D02*
X185501100Y-146050000D01*
X43815000Y-121920000D02*
X43815000Y-120794700D01*
X95984400Y-124215900D02*
X97155000Y-123045300D01*
X95984400Y-137586100D02*
X95984400Y-124215900D01*
X98214100Y-139815800D02*
X95984400Y-137586100D01*
X98603700Y-139815800D02*
X98214100Y-139815800D01*
X99141100Y-140353200D02*
X98603700Y-139815800D01*
X99141100Y-144024400D02*
X99141100Y-140353200D01*
X99929400Y-144812700D02*
X99141100Y-144024400D01*
X100779500Y-144812700D02*
X99929400Y-144812700D01*
X101600000Y-145633200D02*
X100779500Y-144812700D01*
X101600000Y-146532800D02*
X101600000Y-145633200D01*
X105496300Y-150429100D02*
X101600000Y-146532800D01*
X181493500Y-150429100D02*
X105496300Y-150429100D01*
X185501100Y-146421500D02*
X181493500Y-150429100D01*
X185501100Y-146050000D02*
X185501100Y-146421500D01*
X36195000Y-66040000D02*
X36195000Y-67165300D01*
X42907200Y-120794700D02*
X43815000Y-120794700D01*
X34161400Y-112048900D02*
X42907200Y-120794700D01*
X34161400Y-68917600D02*
X34161400Y-112048900D01*
X35913700Y-67165300D02*
X34161400Y-68917600D01*
X36195000Y-67165300D02*
X35913700Y-67165300D01*
X44940300Y-122201300D02*
X44940300Y-121920000D01*
X46243600Y-123504600D02*
X44940300Y-122201300D01*
X66708800Y-123504600D02*
X46243600Y-123504600D01*
X67945000Y-122268400D02*
X66708800Y-123504600D01*
X67945000Y-121532100D02*
X67945000Y-122268400D01*
X70241800Y-119235300D02*
X67945000Y-121532100D01*
X73949400Y-119235300D02*
X70241800Y-119235300D01*
X75074700Y-118110000D02*
X73949400Y-119235300D01*
X76200000Y-118110000D02*
X75074700Y-118110000D01*
X43815000Y-121920000D02*
X44940300Y-121920000D01*
X188041100Y-146421500D02*
X188041100Y-146050000D01*
X183583100Y-150879500D02*
X188041100Y-146421500D01*
X100878900Y-150879500D02*
X183583100Y-150879500D01*
X96520000Y-146520600D02*
X100878900Y-150879500D01*
X96520000Y-145628300D02*
X96520000Y-146520600D01*
X95694700Y-144803000D02*
X96520000Y-145628300D01*
X94839700Y-144803000D02*
X95694700Y-144803000D01*
X94061000Y-144024300D02*
X94839700Y-144803000D01*
X94061000Y-141182200D02*
X94061000Y-144024300D01*
X90928900Y-138050100D02*
X94061000Y-141182200D01*
X90928900Y-126731400D02*
X90928900Y-138050100D01*
X94615000Y-123045300D02*
X90928900Y-126731400D01*
X94615000Y-121920000D02*
X94615000Y-123045300D01*
X189230000Y-146050000D02*
X188041100Y-146050000D01*
X59690000Y-66040000D02*
X58564700Y-66040000D01*
X35913700Y-64625300D02*
X36195000Y-64625300D01*
X33689700Y-66849300D02*
X35913700Y-64625300D01*
X33689700Y-113209400D02*
X33689700Y-66849300D01*
X41275000Y-120794700D02*
X33689700Y-113209400D01*
X41275000Y-121920000D02*
X41275000Y-120794700D01*
X36195000Y-63500000D02*
X36195000Y-64625300D01*
X53194400Y-60669700D02*
X58564700Y-66040000D01*
X53194400Y-59823000D02*
X53194400Y-60669700D01*
X122555000Y-118110000D02*
X121429700Y-118110000D01*
X121429700Y-118310000D02*
X118962800Y-120776900D01*
X121429700Y-118110000D02*
X121429700Y-118310000D01*
X189230000Y-143510000D02*
X188041100Y-143510000D01*
X108780700Y-133791200D02*
X108780700Y-123909700D01*
X106189600Y-136382300D02*
X108780700Y-133791200D01*
X106189600Y-140020400D02*
X106189600Y-136382300D01*
X104191000Y-142019000D02*
X106189600Y-140020400D01*
X104191000Y-146523900D02*
X104191000Y-142019000D01*
X106845600Y-149178500D02*
X104191000Y-146523900D01*
X107280500Y-149178500D02*
X106845600Y-149178500D01*
X107867200Y-149765200D02*
X107280500Y-149178500D01*
X174544400Y-149765200D02*
X107867200Y-149765200D01*
X177881000Y-146428600D02*
X174544400Y-149765200D01*
X177881000Y-145501200D02*
X177881000Y-146428600D01*
X178683300Y-144698900D02*
X177881000Y-145501200D01*
X187223800Y-144698900D02*
X178683300Y-144698900D01*
X188041100Y-143881600D02*
X187223800Y-144698900D01*
X188041100Y-143510000D02*
X188041100Y-143881600D01*
X35913700Y-69705300D02*
X36195000Y-69705300D01*
X34611800Y-71007200D02*
X35913700Y-69705300D01*
X34611800Y-104950200D02*
X34611800Y-71007200D01*
X36976600Y-107315000D02*
X34611800Y-104950200D01*
X37877400Y-107315000D02*
X36976600Y-107315000D01*
X38816000Y-108253600D02*
X37877400Y-107315000D01*
X38816000Y-109150600D02*
X38816000Y-108253600D01*
X39520400Y-109855000D02*
X38816000Y-109150600D01*
X40426100Y-109855000D02*
X39520400Y-109855000D01*
X46355000Y-115783900D02*
X40426100Y-109855000D01*
X46355000Y-121920000D02*
X46355000Y-115783900D01*
X36195000Y-68580000D02*
X36195000Y-69705300D01*
X59690000Y-60960000D02*
X58564700Y-60960000D01*
X56815600Y-62709100D02*
X58564700Y-60960000D01*
X56135500Y-62709100D02*
X56815600Y-62709100D01*
X190581100Y-143138500D02*
X190581100Y-143510000D01*
X184602600Y-137160000D02*
X190581100Y-143138500D01*
X184150000Y-137160000D02*
X184602600Y-137160000D01*
X191770000Y-143510000D02*
X190581100Y-143510000D01*
X151130000Y-102870000D02*
X151130000Y-101744700D01*
X153670000Y-99204700D02*
X153670000Y-95250000D01*
X151130000Y-101744700D02*
X153670000Y-99204700D01*
X153670000Y-93345000D02*
X156210000Y-90805000D01*
X153670000Y-95250000D02*
X153670000Y-93345000D01*
X146050000Y-99204700D02*
X143510000Y-101744700D01*
X146050000Y-95250000D02*
X146050000Y-99204700D01*
X143510000Y-102870000D02*
X143510000Y-101744700D01*
X97155000Y-91440000D02*
X98330300Y-91440000D01*
X100491600Y-89278700D02*
X98330300Y-91440000D01*
X100491600Y-80210400D02*
X100491600Y-89278700D01*
X100941900Y-79760100D02*
X100491600Y-80210400D01*
X100941900Y-64383500D02*
X100941900Y-79760100D01*
X98788400Y-62230000D02*
X100941900Y-64383500D01*
X98026300Y-62230000D02*
X98788400Y-62230000D01*
X97248400Y-61452100D02*
X98026300Y-62230000D01*
X97248400Y-47800000D02*
X97248400Y-61452100D01*
X98058400Y-46990000D02*
X97248400Y-47800000D01*
X98817300Y-46990000D02*
X98058400Y-46990000D01*
X99562400Y-46244900D02*
X98817300Y-46990000D01*
X99562400Y-42019800D02*
X99562400Y-46244900D01*
X99147300Y-41604700D02*
X99562400Y-42019800D01*
X104775000Y-118110000D02*
X104775000Y-116984700D01*
X97155000Y-93980000D02*
X97155000Y-95155300D01*
X97522300Y-95155300D02*
X97155000Y-95155300D01*
X101718000Y-99351000D02*
X97522300Y-95155300D01*
X101718000Y-103022200D02*
X101718000Y-99351000D01*
X104775000Y-106079200D02*
X101718000Y-103022200D01*
X104775000Y-116984700D02*
X104775000Y-106079200D01*
X54045100Y-85090000D02*
X62359300Y-93404200D01*
X51097000Y-85090000D02*
X54045100Y-85090000D01*
X49006300Y-82999300D02*
X51097000Y-85090000D01*
X49006300Y-56612700D02*
X49006300Y-82999300D01*
X51153700Y-54465300D02*
X49006300Y-56612700D01*
X51435000Y-54465300D02*
X51153700Y-54465300D01*
X51435000Y-53340000D02*
X51435000Y-54465300D01*
X82903600Y-46845300D02*
X83185000Y-46845300D01*
X82059700Y-47689200D02*
X82903600Y-46845300D01*
X82059700Y-48803600D02*
X82059700Y-47689200D01*
X82786100Y-49530000D02*
X82059700Y-48803600D01*
X83512500Y-49530000D02*
X82786100Y-49530000D01*
X85916100Y-51933600D02*
X83512500Y-49530000D01*
X85916100Y-54556600D02*
X85916100Y-51933600D01*
X83185000Y-45720000D02*
X83185000Y-46845300D01*
X51153700Y-87774700D02*
X51435000Y-87774700D01*
X48555900Y-85176900D02*
X51153700Y-87774700D01*
X48555900Y-54619600D02*
X48555900Y-85176900D01*
X51105500Y-52070000D02*
X48555900Y-54619600D01*
X52214700Y-52070000D02*
X51105500Y-52070000D01*
X58564700Y-45720000D02*
X52214700Y-52070000D01*
X59690000Y-45720000D02*
X58564700Y-45720000D01*
X51435000Y-88900000D02*
X51435000Y-87774700D01*
X74930000Y-48260000D02*
X74930000Y-49385300D01*
X75211300Y-49385300D02*
X74930000Y-49385300D01*
X76079600Y-50253600D02*
X75211300Y-49385300D01*
X76079600Y-53804800D02*
X76079600Y-50253600D01*
X75274400Y-54610000D02*
X76079600Y-53804800D01*
X74545000Y-54610000D02*
X75274400Y-54610000D01*
X71037400Y-58117600D02*
X74545000Y-54610000D01*
X71037400Y-81752200D02*
X71037400Y-58117600D01*
X68515900Y-84273700D02*
X71037400Y-81752200D01*
X68515900Y-84741600D02*
X68515900Y-84273700D01*
X62411100Y-41584200D02*
X60815300Y-43180000D01*
X80463900Y-41584200D02*
X62411100Y-41584200D01*
X82059700Y-43180000D02*
X80463900Y-41584200D01*
X83185000Y-43180000D02*
X82059700Y-43180000D01*
X59690000Y-43180000D02*
X60702700Y-43180000D01*
X60702700Y-43180000D02*
X60815300Y-43180000D01*
X51435000Y-83820000D02*
X51435000Y-82694700D01*
X60815300Y-46230600D02*
X60815300Y-43180000D01*
X60200500Y-46845400D02*
X60815300Y-46230600D01*
X59487100Y-46845400D02*
X60200500Y-46845400D01*
X52944900Y-53387600D02*
X59487100Y-46845400D01*
X52944900Y-56031200D02*
X52944900Y-53387600D01*
X51826100Y-57150000D02*
X52944900Y-56031200D01*
X51067800Y-57150000D02*
X51826100Y-57150000D01*
X49457900Y-58759900D02*
X51067800Y-57150000D01*
X49457900Y-80922200D02*
X49457900Y-58759900D01*
X51230400Y-82694700D02*
X49457900Y-80922200D01*
X51435000Y-82694700D02*
X51230400Y-82694700D01*
X128270000Y-43180000D02*
X128270000Y-45720000D01*
X128270000Y-43180000D02*
X127144700Y-43180000D01*
X56248700Y-81280000D02*
X51435000Y-81280000D01*
X62216100Y-75312600D02*
X56248700Y-81280000D01*
X62216100Y-75187900D02*
X62216100Y-75312600D01*
X67369700Y-70034300D02*
X62216100Y-75187900D01*
X67369700Y-49115200D02*
X67369700Y-70034300D01*
X74450300Y-42034600D02*
X67369700Y-49115200D01*
X76473800Y-42034600D02*
X74450300Y-42034600D01*
X78744600Y-44305400D02*
X76473800Y-42034600D01*
X86128500Y-44305400D02*
X78744600Y-44305400D01*
X90567100Y-39866800D02*
X86128500Y-44305400D01*
X123831500Y-39866800D02*
X90567100Y-39866800D01*
X127144700Y-43180000D02*
X123831500Y-39866800D01*
X91440000Y-92710000D02*
X91440000Y-91584700D01*
X98425000Y-66040000D02*
X98425000Y-67165300D01*
X125095000Y-121920000D02*
X125095000Y-120794700D01*
X127635000Y-102870000D02*
X127635000Y-103995300D01*
X126220300Y-105410000D02*
X127635000Y-103995300D01*
X126220300Y-119669400D02*
X126220300Y-105410000D01*
X125095000Y-120794700D02*
X126220300Y-119669400D01*
X72880300Y-122486300D02*
X76362100Y-125968100D01*
X72880300Y-121920000D02*
X72880300Y-122486300D01*
X71755000Y-121920000D02*
X72880300Y-121920000D01*
X83290400Y-120781100D02*
X83290400Y-125968100D01*
X87563200Y-116508300D02*
X83290400Y-120781100D01*
X87563200Y-96586800D02*
X87563200Y-116508300D01*
X91440000Y-92710000D02*
X87563200Y-96586800D01*
X91635100Y-91584700D02*
X91440000Y-91584700D01*
X92768400Y-90451400D02*
X91635100Y-91584700D01*
X92768400Y-72540600D02*
X92768400Y-90451400D01*
X98143700Y-67165300D02*
X92768400Y-72540600D01*
X98425000Y-67165300D02*
X98143700Y-67165300D01*
X91440000Y-95250000D02*
X91440000Y-94124700D01*
X98425000Y-68580000D02*
X98425000Y-69705300D01*
X123680300Y-122201400D02*
X123680300Y-121920000D01*
X124524200Y-123045300D02*
X123680300Y-122201400D01*
X125601400Y-123045300D02*
X124524200Y-123045300D01*
X126365000Y-122281700D02*
X125601400Y-123045300D01*
X126365000Y-121389800D02*
X126365000Y-122281700D01*
X129049700Y-118705100D02*
X126365000Y-121389800D01*
X129049700Y-105120600D02*
X129049700Y-118705100D01*
X130175000Y-103995300D02*
X129049700Y-105120600D01*
X130175000Y-102870000D02*
X130175000Y-103995300D01*
X122555000Y-121920000D02*
X123680300Y-121920000D01*
X69215000Y-121920000D02*
X70340300Y-121920000D01*
X91440000Y-95250000D02*
X91440000Y-96375300D01*
X70340300Y-122105900D02*
X73398600Y-125164200D01*
X70340300Y-121920000D02*
X70340300Y-122105900D01*
X85283600Y-123875000D02*
X85283600Y-125164200D01*
X85591200Y-123567400D02*
X85283600Y-123875000D01*
X85591200Y-119117200D02*
X85591200Y-123567400D01*
X88463800Y-116244600D02*
X85591200Y-119117200D01*
X88463800Y-99070200D02*
X88463800Y-116244600D01*
X91158700Y-96375300D02*
X88463800Y-99070200D01*
X91440000Y-96375300D02*
X91158700Y-96375300D01*
X91721300Y-94124700D02*
X91440000Y-94124700D01*
X93218700Y-92627300D02*
X91721300Y-94124700D01*
X93218700Y-74630300D02*
X93218700Y-92627300D01*
X98143700Y-69705300D02*
X93218700Y-74630300D01*
X98425000Y-69705300D02*
X98143700Y-69705300D01*
X51716300Y-75074700D02*
X51435000Y-75074700D01*
X55572600Y-71218400D02*
X51716300Y-75074700D01*
X55572600Y-69516700D02*
X55572600Y-71218400D01*
X51435000Y-76200000D02*
X51435000Y-75074700D01*
X98425000Y-71120000D02*
X98425000Y-72245300D01*
X86196800Y-119148500D02*
X86196800Y-124476200D01*
X89392000Y-115953300D02*
X86196800Y-119148500D01*
X89392000Y-99838000D02*
X89392000Y-115953300D01*
X91440000Y-97790000D02*
X89392000Y-99838000D01*
X93669000Y-95561000D02*
X91440000Y-97790000D01*
X93669000Y-76720000D02*
X93669000Y-95561000D01*
X98143700Y-72245300D02*
X93669000Y-76720000D01*
X98425000Y-72245300D02*
X98143700Y-72245300D01*
X132715000Y-112216700D02*
X132715000Y-102870000D01*
X133386800Y-112888500D02*
X132715000Y-112216700D01*
X131563200Y-114712100D02*
X131563200Y-120733200D01*
X133386800Y-112888500D02*
X131563200Y-114712100D01*
X118600300Y-115571000D02*
X119824800Y-114346500D01*
X118600300Y-119669400D02*
X118600300Y-115571000D01*
X117475000Y-120794700D02*
X118600300Y-119669400D01*
X117475000Y-121920000D02*
X117475000Y-120794700D01*
X64135000Y-121920000D02*
X64135000Y-120794700D01*
X66764600Y-118165100D02*
X66764600Y-114458100D01*
X64135000Y-120794700D02*
X66764600Y-118165100D01*
X135134400Y-104115900D02*
X135134400Y-112861800D01*
X135255000Y-103995300D02*
X135134400Y-104115900D01*
X135255000Y-102870000D02*
X135255000Y-103995300D01*
X91440000Y-100330000D02*
X91440000Y-99204700D01*
X98425000Y-73660000D02*
X98425000Y-74785300D01*
X91721300Y-99204700D02*
X91440000Y-99204700D01*
X94119300Y-96806700D02*
X91721300Y-99204700D01*
X94119300Y-78809700D02*
X94119300Y-96806700D01*
X98143700Y-74785300D02*
X94119300Y-78809700D01*
X98425000Y-74785300D02*
X98143700Y-74785300D01*
X91440000Y-102870000D02*
X91440000Y-101744700D01*
X98425000Y-76200000D02*
X98425000Y-77325300D01*
X137795000Y-102870000D02*
X137795000Y-103995300D01*
X137484000Y-104306300D02*
X137484000Y-110826300D01*
X137795000Y-103995300D02*
X137484000Y-104306300D01*
X153670000Y-114300000D02*
X153670000Y-113174700D01*
X113520400Y-112478500D02*
X113147800Y-112105900D01*
X113520400Y-118640400D02*
X113520400Y-112478500D01*
X114935000Y-120055000D02*
X113520400Y-118640400D01*
X114935000Y-121920000D02*
X114935000Y-120055000D01*
X111680400Y-110638500D02*
X111680400Y-110389400D01*
X113147800Y-112105900D02*
X111680400Y-110638500D01*
X152920100Y-112424800D02*
X152920100Y-110826300D01*
X153670000Y-113174700D02*
X152920100Y-112424800D01*
X91721300Y-101744700D02*
X91440000Y-101744700D01*
X94569600Y-98896400D02*
X91721300Y-101744700D01*
X94569600Y-81180700D02*
X94569600Y-98896400D01*
X98425000Y-77325300D02*
X94569600Y-81180700D01*
X62439000Y-120794700D02*
X61595000Y-120794700D01*
X65282100Y-117951600D02*
X62439000Y-120794700D01*
X65282100Y-101710200D02*
X65282100Y-117951600D01*
X64536900Y-100965000D02*
X65282100Y-101710200D01*
X63813300Y-100965000D02*
X64536900Y-100965000D01*
X62930200Y-100081900D02*
X63813300Y-100965000D01*
X62930200Y-98873200D02*
X62930200Y-100081900D01*
X63016500Y-98786900D02*
X62930200Y-98873200D01*
X63016500Y-75622000D02*
X63016500Y-98786900D01*
X62841400Y-75446900D02*
X63016500Y-75622000D01*
X61595000Y-121920000D02*
X61595000Y-120794700D01*
X59055000Y-121920000D02*
X59055000Y-120794700D01*
X60969300Y-118880400D02*
X60969300Y-116205000D01*
X59055000Y-120794700D02*
X60969300Y-118880400D01*
X91440000Y-105972600D02*
X91440000Y-106535300D01*
X99747400Y-123609600D02*
X103070000Y-123609600D01*
X98351100Y-122213300D02*
X99747400Y-123609600D01*
X98351100Y-116912700D02*
X98351100Y-122213300D01*
X93173100Y-111734700D02*
X98351100Y-116912700D01*
X91083200Y-111734700D02*
X93173100Y-111734700D01*
X90292800Y-110944300D02*
X91083200Y-111734700D01*
X90292800Y-107401200D02*
X90292800Y-110944300D01*
X91158700Y-106535300D02*
X90292800Y-107401200D01*
X91440000Y-106535300D02*
X91158700Y-106535300D01*
X59690000Y-73660000D02*
X59690000Y-72534700D01*
X51435000Y-66040000D02*
X52560300Y-66040000D01*
X91440000Y-105410000D02*
X91440000Y-105972600D01*
X52980300Y-66040000D02*
X52560300Y-66040000D01*
X56197900Y-69257600D02*
X52980300Y-66040000D01*
X56197900Y-69467600D02*
X56197900Y-69257600D01*
X59265000Y-72534700D02*
X56197900Y-69467600D01*
X59690000Y-72534700D02*
X59265000Y-72534700D01*
X95019900Y-101830100D02*
X91440000Y-105410000D01*
X95019900Y-81520900D02*
X95019900Y-101830100D01*
X99550400Y-76990400D02*
X95019900Y-81520900D01*
X99550400Y-75062900D02*
X99550400Y-76990400D01*
X99366800Y-74879300D02*
X99550400Y-75062900D01*
X173990000Y-114300000D02*
X173990000Y-113174700D01*
X176530000Y-106680000D02*
X176530000Y-107805300D01*
X173990000Y-110345300D02*
X173990000Y-113174700D01*
X176530000Y-107805300D02*
X173990000Y-110345300D01*
X175404700Y-105963600D02*
X175404700Y-106680000D01*
X172616900Y-103175800D02*
X175404700Y-105963600D01*
X172616900Y-96684300D02*
X172616900Y-103175800D01*
X176530000Y-106680000D02*
X175404700Y-106680000D01*
X120015000Y-118110000D02*
X120015000Y-116984700D01*
X120015000Y-116984700D02*
X123183000Y-113816700D01*
X35913600Y-72245300D02*
X36195000Y-72245300D01*
X35069700Y-73089200D02*
X35913600Y-72245300D01*
X35069700Y-94211200D02*
X35069700Y-73089200D01*
X38749200Y-97890700D02*
X35069700Y-94211200D01*
X38749200Y-103933700D02*
X38749200Y-97890700D01*
X39590500Y-104775000D02*
X38749200Y-103933700D01*
X40448800Y-104775000D02*
X39590500Y-104775000D01*
X48895000Y-113221200D02*
X40448800Y-104775000D01*
X48895000Y-121920000D02*
X48895000Y-113221200D01*
X36195000Y-71120000D02*
X36195000Y-72245300D01*
X53367700Y-58420000D02*
X59690000Y-58420000D01*
X52097700Y-59690000D02*
X53367700Y-58420000D01*
X51079400Y-59690000D02*
X52097700Y-59690000D01*
X50083300Y-60686100D02*
X51079400Y-59690000D01*
X50083300Y-65238200D02*
X50083300Y-60686100D01*
X59690000Y-71120000D02*
X58564700Y-71120000D01*
X51435000Y-63500000D02*
X51435000Y-64625300D01*
X91440000Y-107950000D02*
X92115200Y-107950000D01*
X52202500Y-64625300D02*
X51435000Y-64625300D01*
X58564700Y-70987500D02*
X52202500Y-64625300D01*
X58564700Y-71120000D02*
X58564700Y-70987500D01*
X92115200Y-108333100D02*
X92115200Y-107950000D01*
X95509200Y-111727100D02*
X92115200Y-108333100D01*
X96642200Y-111727100D02*
X95509200Y-111727100D01*
X102191100Y-117276000D02*
X96642200Y-111727100D01*
X102191100Y-119880200D02*
X102191100Y-117276000D01*
X100000800Y-73697500D02*
X99778100Y-73474800D01*
X100000800Y-78527400D02*
X100000800Y-73697500D01*
X95470300Y-83057900D02*
X100000800Y-78527400D01*
X95470300Y-103823100D02*
X95470300Y-83057900D01*
X92115200Y-107178200D02*
X95470300Y-103823100D01*
X92115200Y-107950000D02*
X92115200Y-107178200D01*
X119360100Y-97427600D02*
X116159100Y-97427600D01*
X121285000Y-99352500D02*
X119360100Y-97427600D01*
X121285000Y-100146700D02*
X121285000Y-99352500D01*
X122580100Y-101441800D02*
X121285000Y-100146700D01*
X122718800Y-101441800D02*
X122580100Y-101441800D01*
X123688700Y-102411700D02*
X122718800Y-101441800D01*
X123688700Y-104557600D02*
X123688700Y-102411700D01*
X117475000Y-110771300D02*
X123688700Y-104557600D01*
X117475000Y-118110000D02*
X117475000Y-110771300D01*
X39067500Y-70787500D02*
X36195000Y-73660000D01*
X39067500Y-63354600D02*
X39067500Y-70787500D01*
X99847800Y-80217300D02*
X99847800Y-88519000D01*
X100456100Y-79609000D02*
X99847800Y-80217300D01*
X100456100Y-66460800D02*
X100456100Y-79609000D01*
X98909900Y-64914600D02*
X100456100Y-66460800D01*
X98184500Y-64914600D02*
X98909900Y-64914600D01*
X94204000Y-60934100D02*
X98184500Y-64914600D01*
X94204000Y-57736700D02*
X94204000Y-60934100D01*
X91440000Y-110490000D02*
X92565300Y-110490000D01*
X92565300Y-110490000D02*
X99645300Y-117570000D01*
X83185000Y-68580000D02*
X83185000Y-69705300D01*
X83047900Y-90335200D02*
X83047900Y-112057600D01*
X82264700Y-89552000D02*
X83047900Y-90335200D01*
X81542300Y-89552000D02*
X82264700Y-89552000D01*
X78205700Y-86215400D02*
X81542300Y-89552000D01*
X75215300Y-86215400D02*
X78205700Y-86215400D01*
X75074600Y-86074700D02*
X75215300Y-86215400D01*
X75074600Y-83472300D02*
X75074600Y-86074700D01*
X82059700Y-76487200D02*
X75074600Y-83472300D01*
X82059700Y-70549200D02*
X82059700Y-76487200D01*
X82903600Y-69705300D02*
X82059700Y-70549200D01*
X83185000Y-69705300D02*
X82903600Y-69705300D01*
X72530100Y-118727400D02*
X69593900Y-118727400D01*
X74343600Y-116913900D02*
X72530100Y-118727400D01*
X78191600Y-116913900D02*
X74343600Y-116913900D01*
X83047900Y-112057600D02*
X78191600Y-116913900D01*
X52070000Y-62085300D02*
X51435000Y-62085300D01*
X58564700Y-68580000D02*
X52070000Y-62085300D01*
X51435000Y-60960000D02*
X51435000Y-62085300D01*
X59690000Y-68580000D02*
X58564700Y-68580000D01*
X116321600Y-51976000D02*
X115606700Y-52690900D01*
X117464200Y-51976000D02*
X116321600Y-51976000D01*
X119910200Y-49530000D02*
X117464200Y-51976000D01*
X130426000Y-49530000D02*
X119910200Y-49530000D01*
X135650700Y-44305300D02*
X130426000Y-49530000D01*
X137449400Y-44305300D02*
X135650700Y-44305300D01*
X138574700Y-43180000D02*
X137449400Y-44305300D01*
X139700000Y-43180000D02*
X138574700Y-43180000D01*
X91440000Y-85090000D02*
X91440000Y-86215300D01*
X91440000Y-85090000D02*
X91440000Y-83964700D01*
X128270000Y-53340000D02*
X128270000Y-50800000D01*
X124110700Y-54465300D02*
X119955900Y-58620100D01*
X126019400Y-54465300D02*
X124110700Y-54465300D01*
X127144700Y-53340000D02*
X126019400Y-54465300D01*
X128270000Y-53340000D02*
X127144700Y-53340000D01*
X92155600Y-83249100D02*
X92155600Y-65942700D01*
X91440000Y-83964700D02*
X92155600Y-83249100D01*
X87112900Y-115596800D02*
X81915000Y-120794700D01*
X87112900Y-90261100D02*
X87112900Y-115596800D01*
X91158700Y-86215300D02*
X87112900Y-90261100D01*
X91440000Y-86215300D02*
X91158700Y-86215300D01*
X95931800Y-63796700D02*
X95931800Y-63597800D01*
X93785800Y-65942700D02*
X95931800Y-63796700D01*
X92155600Y-65942700D02*
X93785800Y-65942700D01*
X73362400Y-64625400D02*
X73206100Y-64469100D01*
X85748700Y-64625400D02*
X73362400Y-64625400D01*
X86729500Y-63644600D02*
X85748700Y-64625400D01*
X91290700Y-63644600D02*
X86729500Y-63644600D01*
X92155600Y-64509500D02*
X91290700Y-63644600D01*
X92155600Y-65942700D02*
X92155600Y-64509500D01*
X81915000Y-121357300D02*
X81915000Y-120794700D01*
X81915000Y-121357300D02*
X81915000Y-121920000D01*
X86105800Y-126616300D02*
X86277600Y-126444500D01*
X82980200Y-126616300D02*
X86105800Y-126616300D01*
X81915000Y-125551100D02*
X82980200Y-126616300D01*
X81915000Y-121920000D02*
X81915000Y-125551100D01*
X92037100Y-40533200D02*
X84310300Y-48260000D01*
X98407600Y-40533200D02*
X92037100Y-40533200D01*
X83185000Y-48260000D02*
X84310300Y-48260000D01*
X116840000Y-45720000D02*
X115714700Y-45720000D01*
X98425000Y-50800000D02*
X98425000Y-49674700D01*
X110877300Y-40882600D02*
X115714700Y-45720000D01*
X103918400Y-40882600D02*
X110877300Y-40882600D01*
X100085100Y-44715900D02*
X103918400Y-40882600D01*
X100085100Y-48295900D02*
X100085100Y-44715900D01*
X98706300Y-49674700D02*
X100085100Y-48295900D01*
X98425000Y-49674700D02*
X98706300Y-49674700D01*
X69685200Y-80808400D02*
X68088200Y-82405400D01*
X69685200Y-56888800D02*
X69685200Y-80808400D01*
X74648700Y-51925300D02*
X69685200Y-56888800D01*
X74930000Y-51925300D02*
X74648700Y-51925300D01*
X74930000Y-50800000D02*
X74930000Y-51925300D01*
X151130000Y-95250000D02*
X151130000Y-95408300D01*
X137795000Y-84455000D02*
X137795000Y-85580300D01*
X127635000Y-121920000D02*
X128760300Y-121920000D01*
X148590000Y-102870000D02*
X148590000Y-101744700D01*
X151130000Y-95408300D02*
X150773700Y-95408300D01*
X150773700Y-99561000D02*
X148590000Y-101744700D01*
X150773700Y-95408300D02*
X150773700Y-99561000D01*
X137795000Y-85580300D02*
X142149500Y-89934700D01*
X142838700Y-89245500D02*
X142149500Y-89934700D01*
X144610900Y-89245500D02*
X142838700Y-89245500D01*
X150773700Y-95408300D02*
X144610900Y-89245500D01*
X136428500Y-95655700D02*
X142149500Y-89934700D01*
X136428500Y-122343400D02*
X136428500Y-95655700D01*
X135713600Y-123058300D02*
X136428500Y-122343400D01*
X132261500Y-123058300D02*
X135713600Y-123058300D01*
X131445000Y-122241800D02*
X132261500Y-123058300D01*
X131445000Y-121552700D02*
X131445000Y-122241800D01*
X130676800Y-120784500D02*
X131445000Y-121552700D01*
X129614500Y-120784500D02*
X130676800Y-120784500D01*
X128760300Y-121638700D02*
X129614500Y-120784500D01*
X128760300Y-121920000D02*
X128760300Y-121638700D01*
X74295000Y-121920000D02*
X74295000Y-120794700D01*
X75208900Y-120794700D02*
X74295000Y-120794700D01*
X84426600Y-111577000D02*
X75208900Y-120794700D01*
X84426600Y-89354300D02*
X84426600Y-111577000D01*
X85921200Y-87859700D02*
X84426600Y-89354300D01*
X47589000Y-54646000D02*
X51435000Y-50800000D01*
X47589000Y-68322600D02*
X47589000Y-54646000D01*
X98425000Y-53340000D02*
X98425000Y-52214700D01*
X116840000Y-48260000D02*
X115714700Y-48260000D01*
X70520600Y-80920700D02*
X68038500Y-83402800D01*
X70520600Y-57749400D02*
X70520600Y-80920700D01*
X74930000Y-53340000D02*
X70520600Y-57749400D01*
X98636000Y-52214700D02*
X98425000Y-52214700D01*
X102632000Y-48218700D02*
X98636000Y-52214700D01*
X102632000Y-42805900D02*
X102632000Y-48218700D01*
X104077200Y-41360700D02*
X102632000Y-42805900D01*
X107420600Y-41360700D02*
X104077200Y-41360700D01*
X111329700Y-45269800D02*
X107420600Y-41360700D01*
X112724500Y-45269800D02*
X111329700Y-45269800D01*
X115714700Y-48260000D02*
X112724500Y-45269800D01*
X74930000Y-60960000D02*
X74930000Y-62085300D01*
X69758000Y-84810500D02*
X69316200Y-84810500D01*
X71938000Y-82630500D02*
X69758000Y-84810500D01*
X71938000Y-64796000D02*
X71938000Y-82630500D01*
X74648700Y-62085300D02*
X71938000Y-64796000D01*
X74930000Y-62085300D02*
X74648700Y-62085300D01*
X98706300Y-59834700D02*
X98425000Y-59834700D01*
X103391200Y-55149800D02*
X98706300Y-59834700D01*
X103391200Y-42683600D02*
X103391200Y-55149800D01*
X104263700Y-41811100D02*
X103391200Y-42683600D01*
X105606300Y-41811100D02*
X104263700Y-41811100D01*
X110149800Y-46354600D02*
X105606300Y-41811100D01*
X111831900Y-46354600D02*
X110149800Y-46354600D01*
X115714700Y-50237400D02*
X111831900Y-46354600D01*
X115714700Y-50800000D02*
X115714700Y-50237400D01*
X116840000Y-50800000D02*
X115714700Y-50800000D01*
X98425000Y-60960000D02*
X98425000Y-59834700D01*
X74930000Y-55880000D02*
X74930000Y-57005300D01*
X74648700Y-57005300D02*
X74930000Y-57005300D01*
X71487700Y-60166300D02*
X74648700Y-57005300D01*
X71487700Y-82192000D02*
X71487700Y-60166300D01*
X69677500Y-84002200D02*
X71487700Y-82192000D01*
X116840000Y-43180000D02*
X115714700Y-43180000D01*
X74930000Y-63500000D02*
X76055300Y-63500000D01*
X112947000Y-40412300D02*
X115714700Y-43180000D01*
X99446000Y-40412300D02*
X112947000Y-40412300D01*
X86541400Y-53316900D02*
X99446000Y-40412300D01*
X86541400Y-54815700D02*
X86541400Y-53316900D01*
X84207100Y-57150000D02*
X86541400Y-54815700D01*
X82405300Y-57150000D02*
X84207100Y-57150000D01*
X76055300Y-63500000D02*
X82405300Y-57150000D01*
X128270000Y-55880000D02*
X128270000Y-57005300D01*
X135890000Y-55880000D02*
X134764700Y-55880000D01*
X131304600Y-100551600D02*
X130324100Y-101532100D01*
X131304600Y-57262600D02*
X131304600Y-100551600D01*
X131047300Y-57005300D02*
X131304600Y-57262600D01*
X128270000Y-57005300D02*
X131047300Y-57005300D01*
X133382100Y-57262600D02*
X134764700Y-55880000D01*
X131304600Y-57262600D02*
X133382100Y-57262600D01*
X138140600Y-57294700D02*
X137015300Y-58420000D01*
X141614800Y-57294700D02*
X138140600Y-57294700D01*
X146706300Y-52203200D02*
X141614800Y-57294700D01*
X147775000Y-52203200D02*
X146706300Y-52203200D01*
X149773800Y-54202000D02*
X147775000Y-52203200D01*
X149773800Y-55438200D02*
X149773800Y-54202000D01*
X177800000Y-83464400D02*
X149773800Y-55438200D01*
X177800000Y-97934700D02*
X177800000Y-83464400D01*
X181610000Y-101744700D02*
X177800000Y-97934700D01*
X181610000Y-102870000D02*
X181610000Y-101744700D01*
X135890000Y-58420000D02*
X137015300Y-58420000D01*
X75074700Y-89638300D02*
X74115900Y-88679500D01*
X75074700Y-90170000D02*
X75074700Y-89638300D01*
X76200000Y-90170000D02*
X75074700Y-90170000D01*
X79375000Y-117265500D02*
X79375000Y-121920000D01*
X86212200Y-110428300D02*
X79375000Y-117265500D01*
X86212200Y-88771700D02*
X86212200Y-110428300D01*
X86662600Y-88321300D02*
X86212200Y-88771700D01*
X86662600Y-84443800D02*
X86662600Y-88321300D01*
X89433800Y-81672600D02*
X86662600Y-84443800D01*
X147320000Y-55880000D02*
X147320000Y-57005300D01*
X155084600Y-107529700D02*
X152514400Y-110099900D01*
X155084600Y-106005200D02*
X155084600Y-107529700D01*
X157480000Y-103609800D02*
X155084600Y-106005200D01*
X157480000Y-91692300D02*
X157480000Y-103609800D01*
X157764900Y-91407400D02*
X157480000Y-91692300D01*
X157764900Y-67168900D02*
X157764900Y-91407400D01*
X147601300Y-57005300D02*
X157764900Y-67168900D01*
X147320000Y-57005300D02*
X147601300Y-57005300D01*
X124460000Y-58420000D02*
X124460000Y-57294700D01*
X135890000Y-45720000D02*
X135890000Y-46845300D01*
X139700000Y-50800000D02*
X138574700Y-50800000D01*
X135608600Y-46845300D02*
X135890000Y-46845300D01*
X134763700Y-47690200D02*
X135608600Y-46845300D01*
X134763700Y-49530000D02*
X134763700Y-47690200D01*
X129683700Y-54610000D02*
X134763700Y-49530000D01*
X127939800Y-54610000D02*
X129683700Y-54610000D01*
X125255100Y-57294700D02*
X127939800Y-54610000D01*
X124460000Y-57294700D02*
X125255100Y-57294700D01*
X137304700Y-49530000D02*
X138574700Y-50800000D01*
X134763700Y-49530000D02*
X137304700Y-49530000D01*
X134129600Y-119380100D02*
X132715000Y-120794700D01*
X134129600Y-64868200D02*
X134129600Y-119380100D01*
X139452500Y-59545300D02*
X134129600Y-64868200D01*
X145069400Y-59545300D02*
X139452500Y-59545300D01*
X146194700Y-58420000D02*
X145069400Y-59545300D01*
X147320000Y-58420000D02*
X146194700Y-58420000D01*
X132715000Y-121920000D02*
X132715000Y-120794700D01*
X181610000Y-125730000D02*
X181610000Y-124604700D01*
X179070000Y-102870000D02*
X179070000Y-103882700D01*
X179070000Y-103882700D02*
X179070000Y-103995300D01*
X175115300Y-103151400D02*
X175115300Y-102870000D01*
X175959200Y-103995300D02*
X175115300Y-103151400D01*
X179070000Y-103995300D02*
X175959200Y-103995300D01*
X173990000Y-102870000D02*
X175115300Y-102870000D01*
X147320000Y-53340000D02*
X147320000Y-54465300D01*
X173990000Y-102870000D02*
X173990000Y-101744700D01*
X148164000Y-54465300D02*
X147320000Y-54465300D01*
X172864700Y-79166000D02*
X148164000Y-54465300D01*
X172864700Y-96047800D02*
X172864700Y-79166000D01*
X172864800Y-96047800D02*
X172864700Y-96047800D01*
X173990000Y-97173000D02*
X172864800Y-96047800D01*
X173990000Y-101744700D02*
X173990000Y-97173000D01*
X180483400Y-105408700D02*
X179070000Y-103995300D01*
X180483400Y-123478100D02*
X180483400Y-105408700D01*
X181610000Y-124604700D02*
X180483400Y-123478100D01*
X104775000Y-84455000D02*
X104775000Y-83329700D01*
X101976300Y-80531000D02*
X101976300Y-80250200D01*
X104775000Y-83329700D02*
X101976300Y-80531000D01*
X91491600Y-80499200D02*
X91491600Y-80250200D01*
X89123100Y-82867700D02*
X91491600Y-80499200D01*
X89123000Y-82867700D02*
X89123100Y-82867700D01*
X89123000Y-86816100D02*
X89123000Y-82867700D01*
X86662600Y-89276500D02*
X89123000Y-86816100D01*
X86662600Y-110967200D02*
X86662600Y-89276500D01*
X80747400Y-116882400D02*
X86662600Y-110967200D01*
X80747400Y-126524900D02*
X80747400Y-116882400D01*
X83041500Y-128819000D02*
X80747400Y-126524900D01*
X107315000Y-84455000D02*
X107315000Y-85580300D01*
X101870500Y-91024800D02*
X101870500Y-98564100D01*
X107315000Y-85580300D02*
X101870500Y-91024800D01*
X91808000Y-104140000D02*
X93439100Y-102508900D01*
X91111500Y-104140000D02*
X91808000Y-104140000D01*
X89842400Y-105409100D02*
X91111500Y-104140000D01*
X89842400Y-116202700D02*
X89842400Y-105409100D01*
X86930900Y-119114200D02*
X89842400Y-116202700D01*
X86930900Y-126735000D02*
X86930900Y-119114200D01*
X86113500Y-127552400D02*
X86930900Y-126735000D01*
X85852100Y-127552400D02*
X86113500Y-127552400D01*
X97155000Y-137160000D02*
X97155000Y-136034700D01*
X109855000Y-84455000D02*
X109855000Y-85580300D01*
X102851300Y-92584000D02*
X102851300Y-103270900D01*
X109855000Y-85580300D02*
X102851300Y-92584000D01*
X104213600Y-128976100D02*
X97155000Y-136034700D01*
X104213600Y-123042100D02*
X104213600Y-128976100D01*
X103360400Y-122188900D02*
X104213600Y-123042100D01*
X103360400Y-120510100D02*
X103360400Y-122188900D01*
X102818800Y-119968500D02*
X103360400Y-120510100D01*
X102818800Y-105820700D02*
X102818800Y-119968500D01*
X106189600Y-129540100D02*
X99695000Y-136034700D01*
X106189600Y-91785700D02*
X106189600Y-129540100D01*
X112395000Y-85580300D02*
X106189600Y-91785700D01*
X112395000Y-84455000D02*
X112395000Y-85580300D01*
X99695000Y-137160000D02*
X99695000Y-136034700D01*
X114935000Y-84455000D02*
X114935000Y-85580300D01*
X102235000Y-137160000D02*
X102235000Y-136034700D01*
X108036000Y-130233700D02*
X102235000Y-136034700D01*
X108036000Y-123667900D02*
X108036000Y-130233700D01*
X108486300Y-123217600D02*
X108036000Y-123667900D01*
X108486300Y-113088700D02*
X108486300Y-123217600D01*
X109117500Y-112457500D02*
X108486300Y-113088700D01*
X109117500Y-104037500D02*
X109117500Y-112457500D01*
X108726700Y-103646700D02*
X109117500Y-104037500D01*
X108726700Y-91507300D02*
X108726700Y-103646700D01*
X114653700Y-85580300D02*
X108726700Y-91507300D01*
X114935000Y-85580300D02*
X114653700Y-85580300D01*
X117475000Y-87069900D02*
X119170600Y-88765500D01*
X117475000Y-84455000D02*
X117475000Y-87069900D01*
X141147300Y-120344700D02*
X141235200Y-120432600D01*
X141147300Y-92116900D02*
X141147300Y-120344700D01*
X120015000Y-84455000D02*
X120015000Y-85580300D01*
X107315000Y-137160000D02*
X107315000Y-136034700D01*
X120015000Y-88814600D02*
X120015000Y-85580300D01*
X111046400Y-97783200D02*
X120015000Y-88814600D01*
X111046400Y-132303300D02*
X111046400Y-97783200D01*
X107315000Y-136034700D02*
X111046400Y-132303300D01*
X121285000Y-125730000D02*
X109855000Y-137160000D01*
X121285000Y-121003700D02*
X121285000Y-125730000D01*
X123825000Y-118463700D02*
X121285000Y-121003700D01*
X123825000Y-105940300D02*
X123825000Y-118463700D01*
X126232200Y-103533100D02*
X123825000Y-105940300D01*
X126232200Y-89257500D02*
X126232200Y-103533100D01*
X122555000Y-85580300D02*
X126232200Y-89257500D01*
X122555000Y-84455000D02*
X122555000Y-85580300D01*
X111051100Y-85540700D02*
X103625000Y-92966800D01*
X111051100Y-84180000D02*
X111051100Y-85540700D01*
X111911400Y-83319700D02*
X111051100Y-84180000D01*
X123115700Y-83319700D02*
X111911400Y-83319700D01*
X123969700Y-84173700D02*
X123115700Y-83319700D01*
X94202800Y-118666900D02*
X92075000Y-120794700D01*
X94202800Y-114841700D02*
X94202800Y-118666900D01*
X92075000Y-121920000D02*
X92075000Y-120794700D01*
X125095000Y-84455000D02*
X123969700Y-84455000D01*
X105478100Y-105685900D02*
X105478100Y-113085500D01*
X103625000Y-103832800D02*
X105478100Y-105685900D01*
X103625000Y-92966800D02*
X103625000Y-103832800D01*
X123969700Y-84455000D02*
X123969700Y-84173700D01*
X89535000Y-121920000D02*
X89535000Y-120794700D01*
X130175000Y-84455000D02*
X130175000Y-85580300D01*
X129049700Y-86705600D02*
X130175000Y-85580300D01*
X129049700Y-103217500D02*
X129049700Y-86705600D01*
X126987200Y-105280000D02*
X129049700Y-103217500D01*
X126987200Y-111983800D02*
X126987200Y-105280000D01*
X90379000Y-120794700D02*
X89535000Y-120794700D01*
X92617900Y-118555800D02*
X90379000Y-120794700D01*
X92617900Y-115542300D02*
X92617900Y-118555800D01*
X94101600Y-114058600D02*
X92617900Y-115542300D01*
X94574900Y-114058600D02*
X94101600Y-114058600D01*
X110980300Y-77759400D02*
X109855000Y-78884700D01*
X110980300Y-69215000D02*
X110980300Y-77759400D01*
X112395000Y-67800300D02*
X110980300Y-69215000D01*
X112395000Y-66675000D02*
X112395000Y-67800300D01*
X109855000Y-80010000D02*
X109855000Y-78884700D01*
X156210000Y-95250000D02*
X156210000Y-96375300D01*
X143510000Y-125730000D02*
X143510000Y-124604700D01*
X143510000Y-121699600D02*
X143510000Y-124604700D01*
X144635400Y-120574200D02*
X143510000Y-121699600D01*
X144635400Y-113712800D02*
X144635400Y-120574200D01*
X147320000Y-111028200D02*
X144635400Y-113712800D01*
X147320000Y-106350300D02*
X147320000Y-111028200D01*
X148115700Y-105554600D02*
X147320000Y-106350300D01*
X152612700Y-105554600D02*
X148115700Y-105554600D01*
X155084700Y-103082600D02*
X152612700Y-105554600D01*
X155084700Y-97500600D02*
X155084700Y-103082600D01*
X156210000Y-96375300D02*
X155084700Y-97500600D01*
X184150000Y-98915300D02*
X184150000Y-102870000D01*
X181610000Y-96375300D02*
X184150000Y-98915300D01*
X181610000Y-95250000D02*
X181610000Y-96375300D01*
X174271300Y-96375300D02*
X173990000Y-96375300D01*
X180340000Y-102444000D02*
X174271300Y-96375300D01*
X180340000Y-103730700D02*
X180340000Y-102444000D01*
X183024700Y-106415400D02*
X180340000Y-103730700D01*
X183024700Y-123479400D02*
X183024700Y-106415400D01*
X184150000Y-124604700D02*
X183024700Y-123479400D01*
X184150000Y-125730000D02*
X184150000Y-124604700D01*
X173990000Y-95250000D02*
X173990000Y-96375300D01*
X177658700Y-111411500D02*
X177487100Y-111239900D01*
X177658700Y-123476000D02*
X177658700Y-111411500D01*
X176530000Y-124604700D02*
X177658700Y-123476000D01*
X176530000Y-125730000D02*
X176530000Y-124604700D01*
D30*
X191770000Y-84455000D02*
X191770000Y-82954700D01*
X198120000Y-55880000D02*
X198120000Y-58330300D01*
X191770000Y-64680300D02*
X191770000Y-82954700D01*
X198120000Y-58330300D02*
X191770000Y-64680300D01*
M02*
