M48
;DRILL file {KiCad 4.0.6-e0-6349~53~ubuntu16.04.1} date Tue Jun 13 06:25:46 2017
;FORMAT={2:4/ absolute / inch / suppress trailing zeros}
FMAT,2
INCH,LZ
T1C0.016
T2C0.024
T3C0.031
T4C0.035
T5C0.039
T6C0.040
T7C0.043
T8C0.047
T9C0.126
T10C0.059
%
G90
G05
M72
T1
X015381Y-024943
X01781Y-042218
X018736Y-026899
X019718Y-025684
X020943Y-023552
X021879Y-027369
X022101Y-024689
X024004Y-04575
X024551Y-036773
X024741Y-029704
X026285Y-045062
X026787Y-032836
X026806Y-032443
X026975Y-033363
X02729Y-03339
X027399Y-046743
X027432Y-033072
X028821Y-025382
X028897Y-049277
X029179Y-034913
X030064Y-049594
X032694Y-050716
X032696Y-044117
X032791Y-049594
X033576Y-049277
X0338Y-050217
X033825Y-021479
X033827Y-03459
X033936Y-049006
X033968Y-049781
X03521Y-032155
X03602Y-031595
X036787Y-040358
X037088Y-045213
X037088Y-022731
X037234Y-044905
X037516Y-045178
X037768Y-025039
X038707Y-055292
X038743Y-015958
X039034Y-01638
X039121Y-02948
X03923Y-046287
X039283Y-028927
X03931Y-03485
X040106Y-038805
X040148Y-031595
X040233Y-047197
X04048Y-041662
X040493Y-040658
X040579Y-048665
X040775Y-049932
X041527Y-044522
X042134Y-058978
X04258Y-052039
X042808Y-057
X042827Y-048783
X043969Y-04346
X044546Y-044136
X04504Y-038268
X045514Y-020744
X045666Y-050818
X045732Y-038357
X046836Y-04755
X046918Y-034947
X047175Y-045018
X047227Y-023079
X04843Y-037508
X048497Y-04481
X049995Y-044088
X050512Y-036867
X051169Y-044544
X051309Y-039973
X051797Y-047533
X052514Y-044444
X053203Y-044434
X054128Y-043632
X054264Y-050142
X054657Y-039619
X05472Y-04699
X055017Y-03963
X055316Y-046879
X05557Y-036266
X055604Y-047414
X057861Y-05851
X060045Y-043346
X060205Y-043632
X060897Y-052887
X064284Y-043825
X065274Y-04794
X066Y-055661
X066596Y-045918
X067959Y-038065
X069877Y-043795
T2
X042Y-021
X0425Y-021
X043Y-021
T3
X01425Y-017
X01425Y-018
X01425Y-019
X01425Y-02
X01425Y-021
X01425Y-022
X01425Y-023
X01425Y-024
X01425Y-025
X01425Y-026
X01425Y-027
X01425Y-028
X01425Y-029
X01425Y-03
X01425Y-031
X01425Y-032
X01425Y-033
X01425Y-034
X01425Y-035
X01425Y-036
X01425Y-048
X01425Y-054
X01525Y-048
X01525Y-054
X016Y-032
X016Y-032984
X01625Y-048
X01625Y-054
X01725Y-048
X01725Y-054
X01825Y-048
X01825Y-054
X01925Y-048
X01925Y-054
X02Y-037766
X02Y-03875
X02Y-04025
X02Y-041234
X02Y-04275
X02Y-043734
X02Y-045266
X02Y-04625
X02025Y-017
X02025Y-018
X02025Y-019
X02025Y-02
X02025Y-021
X02025Y-022
X02025Y-023
X02025Y-024
X02025Y-025
X02025Y-026
X02025Y-027
X02025Y-028
X02025Y-029
X02025Y-03
X02025Y-031
X02025Y-032
X02025Y-033
X02025Y-034
X02025Y-035
X02025Y-036
X02025Y-048
X02025Y-054
X02125Y-048
X02125Y-054
X02225Y-03925
X02225Y-04025
X02225Y-04125
X02225Y-04225
X02225Y-04325
X02225Y-04425
X02225Y-04525
X02225Y-04625
X02225Y-048
X02225Y-054
X02325Y-048
X02325Y-054
X0235Y-017
X0235Y-018
X0235Y-019
X0235Y-02
X0235Y-021
X0235Y-022
X0235Y-023
X0235Y-024
X0235Y-025
X0235Y-026
X0235Y-027
X0235Y-028
X0235Y-029
X0235Y-03
X02425Y-048
X02425Y-054
X02525Y-03925
X02525Y-04025
X02525Y-04125
X02525Y-04225
X02525Y-04325
X02525Y-04425
X02525Y-04525
X02525Y-04625
X02525Y-048
X02525Y-054
X026Y-0265
X02625Y-048
X02625Y-054
X026984Y-0265
X02725Y-048
X02725Y-054
X0275Y-0425
X0275Y-04525
X027516Y-03575
X028Y-038
X028Y-039969
X02825Y-048
X02825Y-054
X028484Y-0425
X028484Y-04525
X0285Y-03575
X02925Y-048
X02925Y-054
X0295Y-017
X0295Y-018
X0295Y-019
X0295Y-02
X0295Y-021
X0295Y-022
X0295Y-023
X0295Y-024
X0295Y-025
X0295Y-026
X0295Y-027
X0295Y-028
X0295Y-029
X0295Y-03
X03Y-0335
X03Y-0345
X03Y-0355
X03Y-0365
X03Y-0375
X03Y-0385
X03Y-0395
X03Y-0405
X03Y-0415
X03Y-0425
X03Y-0435
X03Y-0445
X03Y-0455
X03Y-0465
X03025Y-048
X03025Y-054
X031Y-051016
X031Y-052
X03125Y-048
X03125Y-054
X03225Y-034766
X03225Y-03575
X03225Y-048
X03225Y-054
X03275Y-017
X03275Y-018
X03275Y-019
X03275Y-02
X03275Y-021
X03275Y-022
X03275Y-023
X03275Y-024
X03275Y-025
X03275Y-026
X03275Y-027
X03275Y-028
X03275Y-029
X03275Y-03
X03325Y-048
X03325Y-054
X03525Y-048
X03525Y-054
X03575Y-0255
X036Y-0335
X036Y-0345
X036Y-0355
X036Y-0365
X036Y-0375
X036Y-0385
X036Y-0395
X036Y-0405
X036Y-0415
X036Y-0425
X036Y-0435
X036Y-0445
X036Y-0455
X036Y-0465
X03625Y-048
X03625Y-054
X036734Y-0255
X03725Y-048
X03725Y-054
X03775Y-0435
X03775Y-0465
X03825Y-048
X03825Y-054
X03875Y-017
X03875Y-018
X03875Y-019
X03875Y-02
X03875Y-021
X03875Y-022
X03875Y-023
X03875Y-024
X03875Y-025
X03875Y-026
X03875Y-027
X03875Y-028
X03875Y-029
X03875Y-03
X03925Y-048
X03925Y-054
X03975Y-0435
X03975Y-0465
X04025Y-048
X04025Y-054
X04125Y-02325
X04125Y-02425
X04125Y-02525
X04125Y-02625
X04125Y-0285
X04125Y-0315
X04125Y-03325
X04125Y-03925
X04125Y-0405
X04125Y-0465
X04125Y-048
X04125Y-054
X04225Y-0285
X04225Y-0315
X04225Y-03325
X04225Y-03925
X04225Y-0405
X04225Y-0465
X04225Y-048
X04225Y-054
X0425Y-043
X0425Y-043984
X04325Y-0285
X04325Y-0315
X04325Y-03325
X04325Y-03625
X04325Y-03925
X04325Y-0405
X04325Y-0465
X04325Y-048
X04325Y-054
X044234Y-03625
X04425Y-02325
X04425Y-02425
X04425Y-02525
X04425Y-02625
X04425Y-0285
X04425Y-0315
X04425Y-03325
X04425Y-03925
X04425Y-0405
X04425Y-0465
X04425Y-048
X04425Y-054
X04525Y-0285
X04525Y-0315
X04525Y-03325
X04525Y-03925
X04525Y-0405
X04525Y-0465
X04525Y-048
X04525Y-054
X046Y-017
X046Y-018
X046Y-019
X046Y-02
X046Y-021
X046Y-022
X046Y-023
X04625Y-0285
X04625Y-0315
X04625Y-03325
X04625Y-03925
X04625Y-0405
X04625Y-0465
X04625Y-048
X04625Y-054
X04725Y-0285
X04725Y-0315
X04725Y-03325
X04725Y-03925
X04725Y-0405
X04725Y-0465
X04725Y-048
X04725Y-054
X04825Y-03325
X04825Y-03925
X04825Y-0405
X04825Y-0465
X04825Y-048
X04825Y-054
X049Y-017
X049Y-018
X049Y-019
X049Y-02
X049Y-021
X049Y-022
X049Y-023
X04925Y-03325
X04925Y-03925
X04925Y-0405
X04925Y-0465
X04925Y-048
X04925Y-054
X05025Y-03325
X05025Y-03925
X05025Y-0405
X05025Y-0465
X05025Y-048
X05025Y-054
X0505Y-017
X0505Y-018
X0505Y-019
X0505Y-02
X0505Y-021
X0505Y-022
X0505Y-023
X05125Y-03325
X05125Y-03925
X05125Y-0405
X05125Y-0465
X05125Y-048
X05125Y-054
X05225Y-03325
X05225Y-03925
X05225Y-0405
X05225Y-0465
X05225Y-048
X05225Y-054
X0525Y-050766
X0525Y-05175
X05325Y-03325
X05325Y-03925
X05325Y-0405
X05325Y-0465
X05325Y-048
X05325Y-054
X0535Y-017
X0535Y-018
X0535Y-019
X0535Y-02
X0535Y-021
X0535Y-022
X0535Y-023
X05425Y-03325
X05425Y-03925
X05425Y-0405
X05425Y-0465
X05425Y-048
X05425Y-054
X055Y-017
X055Y-018
X055Y-019
X055Y-02
X055Y-021
X055Y-022
X055Y-023
X055Y-024
X0565Y-0375
X0565Y-0405
X0565Y-042
X0565Y-045
X0565Y-0465
X0565Y-0495
X0565Y-051
X0565Y-054
X0575Y-0375
X0575Y-0405
X0575Y-042
X0575Y-045
X0575Y-0465
X0575Y-0495
X0575Y-051
X0575Y-054
X058Y-017
X058Y-018
X058Y-019
X058Y-02
X058Y-021
X058Y-022
X058Y-023
X058Y-024
X0585Y-029
X0585Y-029984
X0585Y-0375
X0585Y-0405
X0585Y-042
X0585Y-045
X0585Y-0465
X0585Y-0495
X0585Y-051
X0585Y-054
X0595Y-0375
X0595Y-0405
X0595Y-042
X0595Y-045
X0595Y-0465
X0595Y-0495
X0595Y-051
X0595Y-054
X0605Y-0375
X0605Y-0405
X0605Y-042
X0605Y-045
X0605Y-0465
X0605Y-0495
X0605Y-051
X0605Y-054
X061266Y-02325
X0615Y-0375
X0615Y-0405
X0615Y-042
X0615Y-045
X0615Y-0465
X0615Y-0495
X0615Y-051
X0615Y-054
X06225Y-02325
X0625Y-0375
X0625Y-0405
X0625Y-042
X0625Y-045
X0625Y-0465
X0625Y-0495
X0625Y-051
X0625Y-054
X0635Y-042
X0635Y-045
X0635Y-0465
X0635Y-0495
X0635Y-051
X0635Y-054
X0645Y-042
X0645Y-045
X0645Y-0465
X0645Y-0495
X0645Y-051
X0645Y-054
X065Y-025
X0655Y-021766
X0655Y-02275
X0655Y-042
X0655Y-045
X0655Y-0465
X0655Y-0495
X0655Y-051
X0655Y-054
X065984Y-025
X0675Y-0375
X0675Y-0405
X0675Y-042
X0675Y-045
X0675Y-0465
X0675Y-0495
X0685Y-0375
X0685Y-0405
X0685Y-042
X0685Y-045
X0685Y-0465
X0685Y-0495
X0695Y-0375
X0695Y-0405
X0695Y-042
X0695Y-045
X0695Y-0465
X0695Y-0495
X0705Y-0375
X0705Y-0405
X0705Y-042
X0705Y-045
X0705Y-0465
X0705Y-0495
X07125Y-02125
X07125Y-02225
X07125Y-02325
X07125Y-02425
X0715Y-0375
X0715Y-0405
X0715Y-042
X0715Y-045
X0715Y-0465
X0715Y-0495
X072266Y-02575
X0725Y-0375
X0725Y-0405
X0725Y-042
X0725Y-045
X0725Y-0465
X0725Y-0495
X07325Y-02575
X0735Y-0375
X0735Y-0405
X0735Y-042
X0735Y-045
X0735Y-0465
X0735Y-0495
X07425Y-02125
X07425Y-02225
X07425Y-02325
X07425Y-02425
X0745Y-042
X0745Y-045
X075463Y-0375
X0755Y-03325
X0755Y-034234
X07625Y-0375
T4
X07775Y-05325
X07775Y-05425
T5
X03825Y-033
X03825Y-034
X03825Y-035
X03825Y-036
X03825Y-037
X03825Y-038
X03825Y-039
X03825Y-04
X08125Y-0335
X08125Y-0345
X08125Y-0355
T6
X01475Y-04075
X01475Y-04175
X01475Y-04275
X01475Y-04375
X01475Y-04475
X0155Y-0565
X0155Y-0575
X01575Y-04075
X01575Y-04175
X01575Y-04275
X01575Y-04375
X01575Y-04475
X0165Y-0565
X0165Y-0575
X0175Y-0565
X0175Y-0575
X0185Y-0565
X0185Y-0575
X0195Y-0565
X0195Y-0575
X0205Y-0565
X0205Y-0575
X0215Y-0565
X0215Y-0575
X026Y-0565
X026Y-0575
X027Y-0565
X027Y-0575
X028Y-0565
X028Y-0575
X029Y-0565
X029Y-0575
X03Y-0565
X03Y-0575
X031Y-0565
X031Y-0575
X032Y-0565
X032Y-0575
X0365Y-0565
X0365Y-0575
X0375Y-0565
X0375Y-0575
X0385Y-0565
X0385Y-0575
X0395Y-0565
X0395Y-0575
X0405Y-0565
X0405Y-0575
X0415Y-0565
X0415Y-0575
X0425Y-0565
X0425Y-0575
X047Y-0565
X047Y-0575
X048Y-0565
X048Y-0575
X049Y-0565
X049Y-0575
X05Y-0565
X05Y-0575
X051Y-0565
X051Y-0575
X052Y-0565
X052Y-0575
X053Y-0565
X053Y-0575
X0575Y-0565
X0575Y-0575
X0585Y-0565
X0585Y-0575
X0595Y-0565
X0595Y-0575
X0605Y-0565
X0605Y-0575
X0615Y-0565
X0615Y-0575
X0625Y-0565
X0625Y-0575
X0635Y-0565
X0635Y-0575
X0645Y-0565
X0645Y-0575
X0655Y-0565
X0655Y-0575
X0665Y-0565
X0665Y-0575
X0675Y-0565
X0675Y-0575
X0685Y-0565
X0685Y-0575
X0695Y-0565
X0695Y-0575
X0705Y-0565
X0705Y-0575
X0715Y-0565
X0715Y-0575
X0725Y-0565
X0725Y-0575
X0735Y-0565
X0735Y-0575
X0745Y-0565
X0745Y-0575
X0755Y-0565
X0755Y-0575
X0765Y-0565
X0765Y-0575
T7
X04125Y-017
X04125Y-018772
X043809Y-017
X043809Y-018772
T8
X0565Y-03575
X06025Y-02675
X06125Y-029
X06125Y-034
X0615Y-03575
X065Y-029
X065Y-034
X06525Y-02675
X0655Y-0185
X0675Y-0515
X0675Y-054
X06925Y-021
X06925Y-026
X0705Y-0185
X0725Y-0515
X0725Y-054
X07525Y-04925
X07525Y-05425
T9
X01175Y-017
X01175Y-05825
X08025Y-017
X08025Y-05825
T10
X061Y-016807
X061Y-019563
T5
X078Y-022394G85X078Y-021606
G05
X079575Y-02015G85X078787Y-02015
G05
X080362Y-022394G85X080362Y-021606
G05
T0
M30
