G04 #@! TF.FileFunction,Soldermask,Bot*
%FSLAX46Y46*%
G04 Gerber Fmt 4.6, Leading zero omitted, Abs format (unit mm)*
G04 Created by KiCad (PCBNEW 4.0.6-e0-6349~53~ubuntu16.04.1) date Mon Apr  3 23:13:33 2017*
%MOMM*%
%LPD*%
G01*
G04 APERTURE LIST*
%ADD10C,0.100000*%
%ADD11R,2.000000X2.000000*%
%ADD12C,2.000000*%
%ADD13O,2.000000X2.000000*%
%ADD14R,2.100000X2.100000*%
%ADD15O,2.100000X2.100000*%
%ADD16O,1.300000X1.900000*%
%ADD17R,1.300000X1.900000*%
%ADD18C,2.400000*%
%ADD19R,2.200000X2.200000*%
%ADD20O,2.200000X2.200000*%
%ADD21C,1.900000*%
%ADD22C,6.800000*%
G04 APERTURE END LIST*
D10*
D11*
X92710000Y-114300000D03*
D12*
X92710000Y-111800000D03*
D11*
X92710000Y-101600000D03*
D12*
X92710000Y-99100000D03*
D11*
X92710000Y-105410000D03*
D12*
X92710000Y-107910000D03*
D11*
X97790000Y-86360000D03*
D12*
X97790000Y-88860000D03*
D11*
X92710000Y-92710000D03*
D12*
X92710000Y-95210000D03*
X104140000Y-74930000D03*
X106640000Y-74930000D03*
D11*
X95250000Y-55880000D03*
D12*
X97750000Y-55880000D03*
D11*
X104140000Y-54610000D03*
D12*
X104140000Y-56610000D03*
X121920000Y-49530000D03*
X119420000Y-49530000D03*
X125730000Y-64770000D03*
X125730000Y-67270000D03*
X129540000Y-104140000D03*
X129540000Y-101640000D03*
X151130000Y-133350000D03*
X153630000Y-133350000D03*
X187960000Y-44450000D03*
X187960000Y-41950000D03*
X129540000Y-78740000D03*
X129540000Y-81240000D03*
X167640000Y-44450000D03*
X167640000Y-41950000D03*
X156210000Y-110490000D03*
X158710000Y-110490000D03*
D11*
X152400000Y-109220000D03*
D13*
X152400000Y-101600000D03*
D14*
X93980000Y-119380000D03*
D15*
X96520000Y-119380000D03*
X93980000Y-121920000D03*
X96520000Y-121920000D03*
X93980000Y-124460000D03*
X96520000Y-124460000D03*
X93980000Y-127000000D03*
X96520000Y-127000000D03*
X93980000Y-129540000D03*
X96520000Y-129540000D03*
D14*
X106680000Y-140970000D03*
D15*
X106680000Y-138430000D03*
X109220000Y-140970000D03*
X109220000Y-138430000D03*
X111760000Y-140970000D03*
X111760000Y-138430000D03*
X114300000Y-140970000D03*
X114300000Y-138430000D03*
X116840000Y-140970000D03*
X116840000Y-138430000D03*
X119380000Y-140970000D03*
X119380000Y-138430000D03*
X121920000Y-140970000D03*
X121920000Y-138430000D03*
D14*
X130810000Y-140970000D03*
D15*
X130810000Y-138430000D03*
X133350000Y-140970000D03*
X133350000Y-138430000D03*
X135890000Y-140970000D03*
X135890000Y-138430000D03*
X138430000Y-140970000D03*
X138430000Y-138430000D03*
X140970000Y-140970000D03*
X140970000Y-138430000D03*
X143510000Y-140970000D03*
X143510000Y-138430000D03*
X146050000Y-140970000D03*
X146050000Y-138430000D03*
D14*
X97790000Y-66040000D03*
D15*
X95250000Y-66040000D03*
D14*
X196850000Y-48260000D03*
D15*
X199390000Y-48260000D03*
X196850000Y-50800000D03*
X199390000Y-50800000D03*
X196850000Y-53340000D03*
X199390000Y-53340000D03*
X196850000Y-55880000D03*
X199390000Y-55880000D03*
X196850000Y-58420000D03*
X199390000Y-58420000D03*
X196850000Y-60960000D03*
X199390000Y-60960000D03*
X196850000Y-63500000D03*
X199390000Y-63500000D03*
X196850000Y-66040000D03*
X199390000Y-66040000D03*
X196850000Y-68580000D03*
X199390000Y-68580000D03*
X196850000Y-71120000D03*
X199390000Y-71120000D03*
X196850000Y-73660000D03*
X199390000Y-73660000D03*
X196850000Y-76200000D03*
X199390000Y-76200000D03*
X196850000Y-78740000D03*
X199390000Y-78740000D03*
X196850000Y-81280000D03*
X199390000Y-81280000D03*
X196850000Y-83820000D03*
X199390000Y-83820000D03*
X196850000Y-86360000D03*
X199390000Y-86360000D03*
X196850000Y-88900000D03*
X199390000Y-88900000D03*
X196850000Y-91440000D03*
X199390000Y-91440000D03*
X196850000Y-93980000D03*
X199390000Y-93980000D03*
X196850000Y-96520000D03*
X199390000Y-96520000D03*
X196850000Y-99060000D03*
X199390000Y-99060000D03*
X196850000Y-101600000D03*
X199390000Y-101600000D03*
X196850000Y-104140000D03*
X199390000Y-104140000D03*
X196850000Y-106680000D03*
X199390000Y-106680000D03*
X196850000Y-109220000D03*
X199390000Y-109220000D03*
D16*
X147320000Y-49530000D03*
X146050000Y-49530000D03*
D17*
X148590000Y-49530000D03*
D14*
X129540000Y-55880000D03*
D15*
X129540000Y-58420000D03*
X129540000Y-60960000D03*
X129540000Y-63500000D03*
X129540000Y-66040000D03*
X129540000Y-68580000D03*
X129540000Y-71120000D03*
X129540000Y-73660000D03*
D18*
X123880000Y-60960000D03*
X119380000Y-60960000D03*
X123880000Y-54460000D03*
X119380000Y-54460000D03*
D11*
X133350000Y-55880000D03*
D13*
X148590000Y-104140000D03*
X133350000Y-58420000D03*
X148590000Y-101600000D03*
X133350000Y-60960000D03*
X148590000Y-99060000D03*
X133350000Y-63500000D03*
X148590000Y-96520000D03*
X133350000Y-66040000D03*
X148590000Y-93980000D03*
X133350000Y-68580000D03*
X148590000Y-91440000D03*
X133350000Y-71120000D03*
X148590000Y-88900000D03*
X133350000Y-73660000D03*
X148590000Y-86360000D03*
X133350000Y-76200000D03*
X148590000Y-83820000D03*
X133350000Y-78740000D03*
X148590000Y-81280000D03*
X133350000Y-81280000D03*
X148590000Y-78740000D03*
X133350000Y-83820000D03*
X148590000Y-76200000D03*
X133350000Y-86360000D03*
X148590000Y-73660000D03*
X133350000Y-88900000D03*
X148590000Y-71120000D03*
X133350000Y-91440000D03*
X148590000Y-68580000D03*
X133350000Y-93980000D03*
X148590000Y-66040000D03*
X133350000Y-96520000D03*
X148590000Y-63500000D03*
X133350000Y-99060000D03*
X148590000Y-60960000D03*
X133350000Y-101600000D03*
X148590000Y-58420000D03*
X133350000Y-104140000D03*
X148590000Y-55880000D03*
D11*
X172720000Y-48260000D03*
D13*
X187960000Y-81280000D03*
X172720000Y-50800000D03*
X187960000Y-78740000D03*
X172720000Y-53340000D03*
X187960000Y-76200000D03*
X172720000Y-55880000D03*
X187960000Y-73660000D03*
X172720000Y-58420000D03*
X187960000Y-71120000D03*
X172720000Y-60960000D03*
X187960000Y-68580000D03*
X172720000Y-63500000D03*
X187960000Y-66040000D03*
X172720000Y-66040000D03*
X187960000Y-63500000D03*
X172720000Y-68580000D03*
X187960000Y-60960000D03*
X172720000Y-71120000D03*
X187960000Y-58420000D03*
X172720000Y-73660000D03*
X187960000Y-55880000D03*
X172720000Y-76200000D03*
X187960000Y-53340000D03*
X172720000Y-78740000D03*
X187960000Y-50800000D03*
X172720000Y-81280000D03*
X187960000Y-48260000D03*
D11*
X152400000Y-48260000D03*
D13*
X167640000Y-81280000D03*
X152400000Y-50800000D03*
X167640000Y-78740000D03*
X152400000Y-53340000D03*
X167640000Y-76200000D03*
X152400000Y-55880000D03*
X167640000Y-73660000D03*
X152400000Y-58420000D03*
X167640000Y-71120000D03*
X152400000Y-60960000D03*
X167640000Y-68580000D03*
X152400000Y-63500000D03*
X167640000Y-66040000D03*
X152400000Y-66040000D03*
X167640000Y-63500000D03*
X152400000Y-68580000D03*
X167640000Y-60960000D03*
X152400000Y-71120000D03*
X167640000Y-58420000D03*
X152400000Y-73660000D03*
X167640000Y-55880000D03*
X152400000Y-76200000D03*
X167640000Y-53340000D03*
X152400000Y-78740000D03*
X167640000Y-50800000D03*
X152400000Y-81280000D03*
X167640000Y-48260000D03*
D11*
X99060000Y-92710000D03*
D13*
X106680000Y-110490000D03*
X99060000Y-95250000D03*
X106680000Y-107950000D03*
X99060000Y-97790000D03*
X106680000Y-105410000D03*
X99060000Y-100330000D03*
X106680000Y-102870000D03*
X99060000Y-102870000D03*
X106680000Y-100330000D03*
X99060000Y-105410000D03*
X106680000Y-97790000D03*
X99060000Y-107950000D03*
X106680000Y-95250000D03*
X99060000Y-110490000D03*
X106680000Y-92710000D03*
D11*
X110490000Y-71120000D03*
D13*
X125730000Y-104140000D03*
X110490000Y-73660000D03*
X125730000Y-101600000D03*
X110490000Y-76200000D03*
X125730000Y-99060000D03*
X110490000Y-78740000D03*
X125730000Y-96520000D03*
X110490000Y-81280000D03*
X125730000Y-93980000D03*
X110490000Y-83820000D03*
X125730000Y-91440000D03*
X110490000Y-86360000D03*
X125730000Y-88900000D03*
X110490000Y-88900000D03*
X125730000Y-86360000D03*
X110490000Y-91440000D03*
X125730000Y-83820000D03*
X110490000Y-93980000D03*
X125730000Y-81280000D03*
X110490000Y-96520000D03*
X125730000Y-78740000D03*
X110490000Y-99060000D03*
X125730000Y-76200000D03*
X110490000Y-101600000D03*
X125730000Y-73660000D03*
X110490000Y-104140000D03*
X125730000Y-71120000D03*
D11*
X102870000Y-129540000D03*
D13*
X151130000Y-114300000D03*
X105410000Y-129540000D03*
X148590000Y-114300000D03*
X107950000Y-129540000D03*
X146050000Y-114300000D03*
X110490000Y-129540000D03*
X143510000Y-114300000D03*
X113030000Y-129540000D03*
X140970000Y-114300000D03*
X115570000Y-129540000D03*
X138430000Y-114300000D03*
X118110000Y-129540000D03*
X135890000Y-114300000D03*
X120650000Y-129540000D03*
X133350000Y-114300000D03*
X123190000Y-129540000D03*
X130810000Y-114300000D03*
X125730000Y-129540000D03*
X128270000Y-114300000D03*
X128270000Y-129540000D03*
X125730000Y-114300000D03*
X130810000Y-129540000D03*
X123190000Y-114300000D03*
X133350000Y-129540000D03*
X120650000Y-114300000D03*
X135890000Y-129540000D03*
X118110000Y-114300000D03*
X138430000Y-129540000D03*
X115570000Y-114300000D03*
X140970000Y-129540000D03*
X113030000Y-114300000D03*
X143510000Y-129540000D03*
X110490000Y-114300000D03*
X146050000Y-129540000D03*
X107950000Y-114300000D03*
X148590000Y-129540000D03*
X105410000Y-114300000D03*
X151130000Y-129540000D03*
X102870000Y-114300000D03*
D11*
X156210000Y-129540000D03*
D13*
X189230000Y-114300000D03*
X158750000Y-129540000D03*
X186690000Y-114300000D03*
X161290000Y-129540000D03*
X184150000Y-114300000D03*
X163830000Y-129540000D03*
X181610000Y-114300000D03*
X166370000Y-129540000D03*
X179070000Y-114300000D03*
X168910000Y-129540000D03*
X176530000Y-114300000D03*
X171450000Y-129540000D03*
X173990000Y-114300000D03*
X173990000Y-129540000D03*
X171450000Y-114300000D03*
X176530000Y-129540000D03*
X168910000Y-114300000D03*
X179070000Y-129540000D03*
X166370000Y-114300000D03*
X181610000Y-129540000D03*
X163830000Y-114300000D03*
X184150000Y-129540000D03*
X161290000Y-114300000D03*
X186690000Y-129540000D03*
X158750000Y-114300000D03*
X189230000Y-129540000D03*
X156210000Y-114300000D03*
D11*
X167640000Y-90170000D03*
D13*
X175260000Y-105410000D03*
X167640000Y-92710000D03*
X175260000Y-102870000D03*
X167640000Y-95250000D03*
X175260000Y-100330000D03*
X167640000Y-97790000D03*
X175260000Y-97790000D03*
X167640000Y-100330000D03*
X175260000Y-95250000D03*
X167640000Y-102870000D03*
X175260000Y-92710000D03*
X167640000Y-105410000D03*
X175260000Y-90170000D03*
D11*
X156210000Y-90170000D03*
D13*
X163830000Y-105410000D03*
X156210000Y-92710000D03*
X163830000Y-102870000D03*
X156210000Y-95250000D03*
X163830000Y-100330000D03*
X156210000Y-97790000D03*
X163830000Y-97790000D03*
X156210000Y-100330000D03*
X163830000Y-95250000D03*
X156210000Y-102870000D03*
X163830000Y-92710000D03*
X156210000Y-105410000D03*
X163830000Y-90170000D03*
D11*
X179070000Y-90170000D03*
D13*
X186690000Y-107950000D03*
X179070000Y-92710000D03*
X186690000Y-105410000D03*
X179070000Y-95250000D03*
X186690000Y-102870000D03*
X179070000Y-97790000D03*
X186690000Y-100330000D03*
X179070000Y-100330000D03*
X186690000Y-97790000D03*
X179070000Y-102870000D03*
X186690000Y-95250000D03*
X179070000Y-105410000D03*
X186690000Y-92710000D03*
X179070000Y-107950000D03*
X186690000Y-90170000D03*
D19*
X95250000Y-46990000D03*
D20*
X97790000Y-46990000D03*
X100330000Y-46990000D03*
D11*
X139700000Y-49530000D03*
D12*
X132080000Y-49530000D03*
X132080000Y-41910000D03*
X139700000Y-41910000D03*
D21*
X105410000Y-81280000D03*
X105410000Y-86280000D03*
D22*
X201930000Y-140970000D03*
X88900000Y-140970000D03*
X88900000Y-40640000D03*
X201930000Y-40640000D03*
M02*
