M48
;DRILL file {KiCad 4.0.6-e0-6349~53~ubuntu16.04.1} date Mon Apr  3 23:13:39 2017
;FORMAT={2:4/ absolute / inch / suppress leading zeros}
FMAT,2
INCH,TZ
T1C0.016
T2C0.024
T3C0.031
T4C0.039
T5C0.043
T6C0.126
%
G90
G05
M72
T1
X48028Y-41613
X48289Y-41879
X49970Y-27372
X50731Y-35804
X53746Y-34868
X56823Y-29552
X58057Y-26443
X58908Y-45360
X59520Y-29272
X60393Y-46235
X61111Y-28335
X61656Y-33530
X65112Y-37067
X65243Y-38500
X65368Y-34280
X65550Y-38044
X65616Y-33107
X66701Y-40949
X67070Y-41397
X69986Y-36666
X70647Y-23145
X70747Y-33987
X71114Y-39550
X71190Y-34510
X71326Y-37057
X72181Y-22861
X74199Y-42646
T2
X57500Y-19500
X58000Y-19500
X58500Y-19500
T3
X36500Y-36500
X36500Y-37484
X36500Y-39016
X36500Y-40000
X36500Y-41500
X36500Y-42484
X36500Y-44016
X36500Y-45000
X37500Y-22000
X38484Y-22000
X38500Y-34000
X38500Y-34984
X39000Y-36500
X39000Y-37500
X39000Y-38500
X39000Y-39500
X39000Y-40500
X39000Y-41500
X39000Y-42500
X39000Y-43500
X40500Y-45000
X40500Y-51000
X41000Y-21500
X41000Y-22287
X41000Y-29500
X41500Y-32000
X41500Y-33969
X41500Y-45000
X41500Y-51000
X41984Y-29500
X42000Y-36500
X42000Y-37500
X42000Y-38500
X42000Y-39500
X42000Y-40500
X42000Y-41500
X42000Y-42500
X42000Y-43500
X42500Y-45000
X42500Y-51000
X43500Y-28000
X43500Y-29000
X43500Y-30000
X43500Y-31000
X43500Y-32000
X43500Y-33000
X43500Y-34000
X43500Y-35000
X43500Y-36000
X43500Y-37000
X43500Y-38000
X43500Y-39000
X43500Y-40000
X43500Y-41000
X43500Y-45000
X43500Y-51000
X44500Y-45000
X44500Y-51000
X45500Y-45000
X45500Y-51000
X46500Y-45000
X46500Y-51000
X47016Y-19500
X47500Y-45000
X47500Y-51000
X48000Y-19500
X48500Y-45000
X48500Y-51000
X49500Y-25500
X49500Y-26484
X49500Y-28000
X49500Y-29000
X49500Y-30000
X49500Y-31000
X49500Y-32000
X49500Y-33000
X49500Y-34000
X49500Y-35000
X49500Y-36000
X49500Y-37000
X49500Y-38000
X49500Y-39000
X49500Y-40000
X49500Y-41000
X49500Y-45000
X49500Y-51000
X50500Y-45000
X50500Y-51000
X51000Y-31000
X51000Y-31984
X51000Y-40016
X51000Y-41000
X51500Y-45000
X51500Y-51000
X52000Y-16500
X52000Y-19500
X52500Y-22000
X52500Y-23000
X52500Y-24000
X52500Y-25000
X52500Y-26000
X52500Y-27000
X52500Y-28000
X52500Y-29000
X52500Y-30000
X52500Y-31000
X52500Y-32000
X52500Y-33000
X52500Y-34000
X52500Y-35000
X52500Y-36000
X52500Y-37000
X52500Y-38000
X52500Y-39000
X52500Y-40000
X52500Y-41000
X52500Y-45000
X52500Y-51000
X53500Y-45000
X53500Y-51000
X54500Y-45000
X54500Y-51000
X55000Y-16500
X55000Y-19500
X55500Y-45000
X55500Y-51000
X56500Y-45000
X56500Y-51000
X57500Y-45000
X57500Y-51000
X58500Y-22000
X58500Y-23000
X58500Y-24000
X58500Y-25000
X58500Y-26000
X58500Y-27000
X58500Y-28000
X58500Y-29000
X58500Y-30000
X58500Y-31000
X58500Y-32000
X58500Y-33000
X58500Y-34000
X58500Y-35000
X58500Y-36000
X58500Y-37000
X58500Y-38000
X58500Y-39000
X58500Y-40000
X58500Y-41000
X58500Y-45000
X58500Y-51000
X59500Y-45000
X59500Y-51000
X59500Y-52500
X60000Y-19000
X60000Y-20000
X60000Y-21000
X60000Y-22000
X60000Y-23000
X60000Y-24000
X60000Y-25000
X60000Y-26000
X60000Y-27000
X60000Y-28000
X60000Y-29000
X60000Y-30000
X60000Y-31000
X60000Y-32000
X60000Y-40000
X60000Y-43000
X60484Y-52500
X61500Y-35500
X61500Y-36500
X61500Y-37500
X61500Y-38500
X61500Y-39500
X61500Y-40500
X61500Y-41500
X61500Y-43500
X61500Y-45000
X61500Y-51000
X62484Y-43500
X62500Y-45000
X62500Y-51000
X63500Y-45000
X63500Y-51000
X64500Y-35500
X64500Y-36500
X64500Y-37500
X64500Y-38500
X64500Y-39500
X64500Y-40500
X64500Y-41500
X64500Y-45000
X64500Y-51000
X65500Y-45000
X65500Y-51000
X66000Y-16516
X66000Y-17500
X66000Y-19000
X66000Y-20000
X66000Y-21000
X66000Y-22000
X66000Y-23000
X66000Y-24000
X66000Y-25000
X66000Y-26000
X66000Y-27000
X66000Y-28000
X66000Y-29000
X66000Y-30000
X66000Y-31000
X66000Y-32000
X66000Y-35500
X66000Y-36500
X66000Y-37500
X66000Y-38500
X66000Y-39500
X66000Y-40500
X66000Y-41500
X66500Y-45000
X66500Y-51000
X67500Y-45000
X67500Y-51000
X68000Y-19000
X68000Y-20000
X68000Y-21000
X68000Y-22000
X68000Y-23000
X68000Y-24000
X68000Y-25000
X68000Y-26000
X68000Y-27000
X68000Y-28000
X68000Y-29000
X68000Y-30000
X68000Y-31000
X68000Y-32000
X68500Y-45000
X68500Y-51000
X69000Y-35500
X69000Y-36500
X69000Y-37500
X69000Y-38500
X69000Y-39500
X69000Y-40500
X69000Y-41500
X69500Y-45000
X69500Y-51000
X70500Y-35500
X70500Y-36500
X70500Y-37500
X70500Y-38500
X70500Y-39500
X70500Y-40500
X70500Y-41500
X70500Y-42500
X70500Y-45000
X70500Y-51000
X71500Y-45000
X71500Y-51000
X72500Y-45000
X72500Y-51000
X73500Y-35500
X73500Y-36500
X73500Y-37500
X73500Y-38500
X73500Y-39500
X73500Y-40500
X73500Y-41500
X73500Y-42500
X73500Y-45000
X73500Y-51000
X74000Y-16516
X74000Y-17500
X74000Y-19000
X74000Y-20000
X74000Y-21000
X74000Y-22000
X74000Y-23000
X74000Y-24000
X74000Y-25000
X74000Y-26000
X74000Y-27000
X74000Y-28000
X74000Y-29000
X74000Y-30000
X74000Y-31000
X74000Y-32000
X74500Y-45000
X74500Y-51000
T4
X37000Y-47000
X37000Y-48000
X37000Y-49000
X37000Y-50000
X37000Y-51000
X37500Y-18500
X37500Y-26000
X38000Y-47000
X38000Y-48000
X38000Y-49000
X38000Y-50000
X38000Y-51000
X38500Y-18500
X38500Y-26000
X39500Y-18500
X42000Y-54500
X42000Y-55500
X43000Y-54500
X43000Y-55500
X44000Y-54500
X44000Y-55500
X45000Y-54500
X45000Y-55500
X46000Y-54500
X46000Y-55500
X47000Y-54500
X47000Y-55500
X48000Y-54500
X48000Y-55500
X51000Y-22000
X51000Y-23000
X51000Y-24000
X51000Y-25000
X51000Y-26000
X51000Y-27000
X51000Y-28000
X51000Y-29000
X51500Y-54500
X51500Y-55500
X52500Y-54500
X52500Y-55500
X53500Y-54500
X53500Y-55500
X54500Y-54500
X54500Y-55500
X55500Y-54500
X55500Y-55500
X56500Y-54500
X56500Y-55500
X57500Y-54500
X57500Y-55500
X77500Y-19000
X77500Y-20000
X77500Y-21000
X77500Y-22000
X77500Y-23000
X77500Y-24000
X77500Y-25000
X77500Y-26000
X77500Y-27000
X77500Y-28000
X77500Y-29000
X77500Y-30000
X77500Y-31000
X77500Y-32000
X77500Y-33000
X77500Y-34000
X77500Y-35000
X77500Y-36000
X77500Y-37000
X77500Y-38000
X77500Y-39000
X77500Y-40000
X77500Y-41000
X77500Y-42000
X77500Y-43000
X78500Y-19000
X78500Y-20000
X78500Y-21000
X78500Y-22000
X78500Y-23000
X78500Y-24000
X78500Y-25000
X78500Y-26000
X78500Y-27000
X78500Y-28000
X78500Y-29000
X78500Y-30000
X78500Y-31000
X78500Y-32000
X78500Y-33000
X78500Y-34000
X78500Y-35000
X78500Y-36000
X78500Y-37000
X78500Y-38000
X78500Y-39000
X78500Y-40000
X78500Y-41000
X78500Y-42000
X78500Y-43000
T5
X47000Y-21441
X47000Y-24000
X48772Y-21441
X48772Y-24000
T6
X35000Y-16000
X35000Y-55500
X79500Y-16000
X79500Y-55500
T0
M30
