G04 #@! TF.FileFunction,Copper,L1,Top,Signal*
%FSLAX46Y46*%
G04 Gerber Fmt 4.6, Leading zero omitted, Abs format (unit mm)*
G04 Created by KiCad (PCBNEW 4.0.6-e0-6349~53~ubuntu16.04.1) date Mon Apr  3 23:13:33 2017*
%MOMM*%
%LPD*%
G01*
G04 APERTURE LIST*
%ADD10C,0.100000*%
%ADD11R,1.600000X1.600000*%
%ADD12C,1.600000*%
%ADD13O,1.600000X1.600000*%
%ADD14R,1.700000X1.700000*%
%ADD15O,1.700000X1.700000*%
%ADD16O,0.900000X1.500000*%
%ADD17R,0.900000X1.500000*%
%ADD18C,2.000000*%
%ADD19R,1.800000X1.800000*%
%ADD20O,1.800000X1.800000*%
%ADD21C,1.500000*%
%ADD22C,6.400000*%
%ADD23C,0.600000*%
%ADD24C,1.000000*%
%ADD25C,0.250000*%
G04 APERTURE END LIST*
D10*
D11*
X92710000Y-114300000D03*
D12*
X92710000Y-111800000D03*
D11*
X92710000Y-101600000D03*
D12*
X92710000Y-99100000D03*
D11*
X92710000Y-105410000D03*
D12*
X92710000Y-107910000D03*
D11*
X97790000Y-86360000D03*
D12*
X97790000Y-88860000D03*
D11*
X92710000Y-92710000D03*
D12*
X92710000Y-95210000D03*
X104140000Y-74930000D03*
X106640000Y-74930000D03*
D11*
X95250000Y-55880000D03*
D12*
X97750000Y-55880000D03*
D11*
X104140000Y-54610000D03*
D12*
X104140000Y-56610000D03*
X121920000Y-49530000D03*
X119420000Y-49530000D03*
X125730000Y-64770000D03*
X125730000Y-67270000D03*
X129540000Y-104140000D03*
X129540000Y-101640000D03*
X151130000Y-133350000D03*
X153630000Y-133350000D03*
X187960000Y-44450000D03*
X187960000Y-41950000D03*
X129540000Y-78740000D03*
X129540000Y-81240000D03*
X167640000Y-44450000D03*
X167640000Y-41950000D03*
X156210000Y-110490000D03*
X158710000Y-110490000D03*
D11*
X152400000Y-109220000D03*
D13*
X152400000Y-101600000D03*
D14*
X93980000Y-119380000D03*
D15*
X96520000Y-119380000D03*
X93980000Y-121920000D03*
X96520000Y-121920000D03*
X93980000Y-124460000D03*
X96520000Y-124460000D03*
X93980000Y-127000000D03*
X96520000Y-127000000D03*
X93980000Y-129540000D03*
X96520000Y-129540000D03*
D14*
X106680000Y-140970000D03*
D15*
X106680000Y-138430000D03*
X109220000Y-140970000D03*
X109220000Y-138430000D03*
X111760000Y-140970000D03*
X111760000Y-138430000D03*
X114300000Y-140970000D03*
X114300000Y-138430000D03*
X116840000Y-140970000D03*
X116840000Y-138430000D03*
X119380000Y-140970000D03*
X119380000Y-138430000D03*
X121920000Y-140970000D03*
X121920000Y-138430000D03*
D14*
X130810000Y-140970000D03*
D15*
X130810000Y-138430000D03*
X133350000Y-140970000D03*
X133350000Y-138430000D03*
X135890000Y-140970000D03*
X135890000Y-138430000D03*
X138430000Y-140970000D03*
X138430000Y-138430000D03*
X140970000Y-140970000D03*
X140970000Y-138430000D03*
X143510000Y-140970000D03*
X143510000Y-138430000D03*
X146050000Y-140970000D03*
X146050000Y-138430000D03*
D14*
X97790000Y-66040000D03*
D15*
X95250000Y-66040000D03*
D14*
X196850000Y-48260000D03*
D15*
X199390000Y-48260000D03*
X196850000Y-50800000D03*
X199390000Y-50800000D03*
X196850000Y-53340000D03*
X199390000Y-53340000D03*
X196850000Y-55880000D03*
X199390000Y-55880000D03*
X196850000Y-58420000D03*
X199390000Y-58420000D03*
X196850000Y-60960000D03*
X199390000Y-60960000D03*
X196850000Y-63500000D03*
X199390000Y-63500000D03*
X196850000Y-66040000D03*
X199390000Y-66040000D03*
X196850000Y-68580000D03*
X199390000Y-68580000D03*
X196850000Y-71120000D03*
X199390000Y-71120000D03*
X196850000Y-73660000D03*
X199390000Y-73660000D03*
X196850000Y-76200000D03*
X199390000Y-76200000D03*
X196850000Y-78740000D03*
X199390000Y-78740000D03*
X196850000Y-81280000D03*
X199390000Y-81280000D03*
X196850000Y-83820000D03*
X199390000Y-83820000D03*
X196850000Y-86360000D03*
X199390000Y-86360000D03*
X196850000Y-88900000D03*
X199390000Y-88900000D03*
X196850000Y-91440000D03*
X199390000Y-91440000D03*
X196850000Y-93980000D03*
X199390000Y-93980000D03*
X196850000Y-96520000D03*
X199390000Y-96520000D03*
X196850000Y-99060000D03*
X199390000Y-99060000D03*
X196850000Y-101600000D03*
X199390000Y-101600000D03*
X196850000Y-104140000D03*
X199390000Y-104140000D03*
X196850000Y-106680000D03*
X199390000Y-106680000D03*
X196850000Y-109220000D03*
X199390000Y-109220000D03*
D16*
X147320000Y-49530000D03*
X146050000Y-49530000D03*
D17*
X148590000Y-49530000D03*
D14*
X129540000Y-55880000D03*
D15*
X129540000Y-58420000D03*
X129540000Y-60960000D03*
X129540000Y-63500000D03*
X129540000Y-66040000D03*
X129540000Y-68580000D03*
X129540000Y-71120000D03*
X129540000Y-73660000D03*
D18*
X123880000Y-60960000D03*
X119380000Y-60960000D03*
X123880000Y-54460000D03*
X119380000Y-54460000D03*
D11*
X133350000Y-55880000D03*
D13*
X148590000Y-104140000D03*
X133350000Y-58420000D03*
X148590000Y-101600000D03*
X133350000Y-60960000D03*
X148590000Y-99060000D03*
X133350000Y-63500000D03*
X148590000Y-96520000D03*
X133350000Y-66040000D03*
X148590000Y-93980000D03*
X133350000Y-68580000D03*
X148590000Y-91440000D03*
X133350000Y-71120000D03*
X148590000Y-88900000D03*
X133350000Y-73660000D03*
X148590000Y-86360000D03*
X133350000Y-76200000D03*
X148590000Y-83820000D03*
X133350000Y-78740000D03*
X148590000Y-81280000D03*
X133350000Y-81280000D03*
X148590000Y-78740000D03*
X133350000Y-83820000D03*
X148590000Y-76200000D03*
X133350000Y-86360000D03*
X148590000Y-73660000D03*
X133350000Y-88900000D03*
X148590000Y-71120000D03*
X133350000Y-91440000D03*
X148590000Y-68580000D03*
X133350000Y-93980000D03*
X148590000Y-66040000D03*
X133350000Y-96520000D03*
X148590000Y-63500000D03*
X133350000Y-99060000D03*
X148590000Y-60960000D03*
X133350000Y-101600000D03*
X148590000Y-58420000D03*
X133350000Y-104140000D03*
X148590000Y-55880000D03*
D11*
X172720000Y-48260000D03*
D13*
X187960000Y-81280000D03*
X172720000Y-50800000D03*
X187960000Y-78740000D03*
X172720000Y-53340000D03*
X187960000Y-76200000D03*
X172720000Y-55880000D03*
X187960000Y-73660000D03*
X172720000Y-58420000D03*
X187960000Y-71120000D03*
X172720000Y-60960000D03*
X187960000Y-68580000D03*
X172720000Y-63500000D03*
X187960000Y-66040000D03*
X172720000Y-66040000D03*
X187960000Y-63500000D03*
X172720000Y-68580000D03*
X187960000Y-60960000D03*
X172720000Y-71120000D03*
X187960000Y-58420000D03*
X172720000Y-73660000D03*
X187960000Y-55880000D03*
X172720000Y-76200000D03*
X187960000Y-53340000D03*
X172720000Y-78740000D03*
X187960000Y-50800000D03*
X172720000Y-81280000D03*
X187960000Y-48260000D03*
D11*
X152400000Y-48260000D03*
D13*
X167640000Y-81280000D03*
X152400000Y-50800000D03*
X167640000Y-78740000D03*
X152400000Y-53340000D03*
X167640000Y-76200000D03*
X152400000Y-55880000D03*
X167640000Y-73660000D03*
X152400000Y-58420000D03*
X167640000Y-71120000D03*
X152400000Y-60960000D03*
X167640000Y-68580000D03*
X152400000Y-63500000D03*
X167640000Y-66040000D03*
X152400000Y-66040000D03*
X167640000Y-63500000D03*
X152400000Y-68580000D03*
X167640000Y-60960000D03*
X152400000Y-71120000D03*
X167640000Y-58420000D03*
X152400000Y-73660000D03*
X167640000Y-55880000D03*
X152400000Y-76200000D03*
X167640000Y-53340000D03*
X152400000Y-78740000D03*
X167640000Y-50800000D03*
X152400000Y-81280000D03*
X167640000Y-48260000D03*
D11*
X99060000Y-92710000D03*
D13*
X106680000Y-110490000D03*
X99060000Y-95250000D03*
X106680000Y-107950000D03*
X99060000Y-97790000D03*
X106680000Y-105410000D03*
X99060000Y-100330000D03*
X106680000Y-102870000D03*
X99060000Y-102870000D03*
X106680000Y-100330000D03*
X99060000Y-105410000D03*
X106680000Y-97790000D03*
X99060000Y-107950000D03*
X106680000Y-95250000D03*
X99060000Y-110490000D03*
X106680000Y-92710000D03*
D11*
X110490000Y-71120000D03*
D13*
X125730000Y-104140000D03*
X110490000Y-73660000D03*
X125730000Y-101600000D03*
X110490000Y-76200000D03*
X125730000Y-99060000D03*
X110490000Y-78740000D03*
X125730000Y-96520000D03*
X110490000Y-81280000D03*
X125730000Y-93980000D03*
X110490000Y-83820000D03*
X125730000Y-91440000D03*
X110490000Y-86360000D03*
X125730000Y-88900000D03*
X110490000Y-88900000D03*
X125730000Y-86360000D03*
X110490000Y-91440000D03*
X125730000Y-83820000D03*
X110490000Y-93980000D03*
X125730000Y-81280000D03*
X110490000Y-96520000D03*
X125730000Y-78740000D03*
X110490000Y-99060000D03*
X125730000Y-76200000D03*
X110490000Y-101600000D03*
X125730000Y-73660000D03*
X110490000Y-104140000D03*
X125730000Y-71120000D03*
D11*
X102870000Y-129540000D03*
D13*
X151130000Y-114300000D03*
X105410000Y-129540000D03*
X148590000Y-114300000D03*
X107950000Y-129540000D03*
X146050000Y-114300000D03*
X110490000Y-129540000D03*
X143510000Y-114300000D03*
X113030000Y-129540000D03*
X140970000Y-114300000D03*
X115570000Y-129540000D03*
X138430000Y-114300000D03*
X118110000Y-129540000D03*
X135890000Y-114300000D03*
X120650000Y-129540000D03*
X133350000Y-114300000D03*
X123190000Y-129540000D03*
X130810000Y-114300000D03*
X125730000Y-129540000D03*
X128270000Y-114300000D03*
X128270000Y-129540000D03*
X125730000Y-114300000D03*
X130810000Y-129540000D03*
X123190000Y-114300000D03*
X133350000Y-129540000D03*
X120650000Y-114300000D03*
X135890000Y-129540000D03*
X118110000Y-114300000D03*
X138430000Y-129540000D03*
X115570000Y-114300000D03*
X140970000Y-129540000D03*
X113030000Y-114300000D03*
X143510000Y-129540000D03*
X110490000Y-114300000D03*
X146050000Y-129540000D03*
X107950000Y-114300000D03*
X148590000Y-129540000D03*
X105410000Y-114300000D03*
X151130000Y-129540000D03*
X102870000Y-114300000D03*
D11*
X156210000Y-129540000D03*
D13*
X189230000Y-114300000D03*
X158750000Y-129540000D03*
X186690000Y-114300000D03*
X161290000Y-129540000D03*
X184150000Y-114300000D03*
X163830000Y-129540000D03*
X181610000Y-114300000D03*
X166370000Y-129540000D03*
X179070000Y-114300000D03*
X168910000Y-129540000D03*
X176530000Y-114300000D03*
X171450000Y-129540000D03*
X173990000Y-114300000D03*
X173990000Y-129540000D03*
X171450000Y-114300000D03*
X176530000Y-129540000D03*
X168910000Y-114300000D03*
X179070000Y-129540000D03*
X166370000Y-114300000D03*
X181610000Y-129540000D03*
X163830000Y-114300000D03*
X184150000Y-129540000D03*
X161290000Y-114300000D03*
X186690000Y-129540000D03*
X158750000Y-114300000D03*
X189230000Y-129540000D03*
X156210000Y-114300000D03*
D11*
X167640000Y-90170000D03*
D13*
X175260000Y-105410000D03*
X167640000Y-92710000D03*
X175260000Y-102870000D03*
X167640000Y-95250000D03*
X175260000Y-100330000D03*
X167640000Y-97790000D03*
X175260000Y-97790000D03*
X167640000Y-100330000D03*
X175260000Y-95250000D03*
X167640000Y-102870000D03*
X175260000Y-92710000D03*
X167640000Y-105410000D03*
X175260000Y-90170000D03*
D11*
X156210000Y-90170000D03*
D13*
X163830000Y-105410000D03*
X156210000Y-92710000D03*
X163830000Y-102870000D03*
X156210000Y-95250000D03*
X163830000Y-100330000D03*
X156210000Y-97790000D03*
X163830000Y-97790000D03*
X156210000Y-100330000D03*
X163830000Y-95250000D03*
X156210000Y-102870000D03*
X163830000Y-92710000D03*
X156210000Y-105410000D03*
X163830000Y-90170000D03*
D11*
X179070000Y-90170000D03*
D13*
X186690000Y-107950000D03*
X179070000Y-92710000D03*
X186690000Y-105410000D03*
X179070000Y-95250000D03*
X186690000Y-102870000D03*
X179070000Y-97790000D03*
X186690000Y-100330000D03*
X179070000Y-100330000D03*
X186690000Y-97790000D03*
X179070000Y-102870000D03*
X186690000Y-95250000D03*
X179070000Y-105410000D03*
X186690000Y-92710000D03*
X179070000Y-107950000D03*
X186690000Y-90170000D03*
D19*
X95250000Y-46990000D03*
D20*
X97790000Y-46990000D03*
X100330000Y-46990000D03*
D11*
X139700000Y-49530000D03*
D12*
X132080000Y-49530000D03*
X132080000Y-41910000D03*
X139700000Y-41910000D03*
D21*
X105410000Y-81280000D03*
X105410000Y-86280000D03*
D22*
X201930000Y-140970000D03*
X88900000Y-140970000D03*
X88900000Y-40640000D03*
X201930000Y-40640000D03*
D23*
X153398800Y-117435900D03*
X121990300Y-105696700D03*
X188466700Y-108321300D03*
X170357800Y-105147600D03*
X180823300Y-87655000D03*
X166496300Y-96630500D03*
X179698500Y-86325800D03*
X179442400Y-58789400D03*
X183340700Y-58067900D03*
X165717500Y-97790000D03*
X180628900Y-100458000D03*
X147464700Y-67165300D03*
X151180200Y-74352100D03*
X144331000Y-75062600D03*
X128856200Y-90942300D03*
X166035800Y-87071200D03*
X166664000Y-84091900D03*
X136515500Y-88563900D03*
X177765200Y-93132800D03*
X155221800Y-71970000D03*
X156606300Y-85167400D03*
X169419500Y-104011700D03*
X122652900Y-106373200D03*
X126924000Y-69526000D03*
X181168100Y-94124700D03*
X165385100Y-94149000D03*
X149627100Y-115213800D03*
D24*
X172720000Y-81280000D02*
X171219700Y-81280000D01*
X152400000Y-81280000D02*
X153900300Y-81280000D01*
X127709400Y-142520300D02*
X129259700Y-140970000D01*
X108230300Y-142520300D02*
X127709400Y-142520300D01*
X106680000Y-140970000D02*
X108230300Y-142520300D01*
X130810000Y-140970000D02*
X129259700Y-140970000D01*
X167640000Y-105410000D02*
X169140300Y-105410000D01*
X92399100Y-122879100D02*
X93980000Y-124460000D01*
X92399100Y-116111200D02*
X92399100Y-122879100D01*
X92710000Y-115800300D02*
X92399100Y-116111200D01*
X92710000Y-114300000D02*
X92710000Y-115800300D01*
X92710000Y-114300000D02*
X94210300Y-114300000D01*
X102870000Y-129540000D02*
X102870000Y-128039700D01*
X110490000Y-71120000D02*
X111990300Y-71120000D01*
X120450400Y-62030400D02*
X120450400Y-62659900D01*
X119380000Y-60960000D02*
X120450400Y-62030400D01*
X121119900Y-62659900D02*
X120450400Y-62659900D01*
X125730000Y-67270000D02*
X121119900Y-62659900D01*
X120450400Y-62659900D02*
X111990300Y-71120000D01*
X138060100Y-43549900D02*
X139700000Y-41910000D01*
X125400100Y-43549900D02*
X138060100Y-43549900D01*
X119420000Y-49530000D02*
X125400100Y-43549900D01*
X161059700Y-110490000D02*
X166139700Y-105410000D01*
X158710000Y-110490000D02*
X161059700Y-110490000D01*
X167640000Y-105410000D02*
X166139700Y-105410000D01*
X173990000Y-107950000D02*
X173990000Y-114300000D01*
X171680300Y-107950000D02*
X173990000Y-107950000D01*
X169140300Y-105410000D02*
X171680300Y-107950000D01*
X173990000Y-107950000D02*
X179070000Y-107950000D01*
X97790000Y-46990000D02*
X97790000Y-48590300D01*
X97790000Y-48590300D02*
X97790000Y-55880000D01*
X97790000Y-55880000D02*
X97750000Y-55880000D01*
X98520000Y-63759700D02*
X98520000Y-56610000D01*
X97790000Y-64489700D02*
X98520000Y-63759700D01*
X104140000Y-56610000D02*
X98520000Y-56610000D01*
X98520000Y-56610000D02*
X97790000Y-55880000D01*
X97790000Y-66040000D02*
X97790000Y-64489700D01*
X145579900Y-105649800D02*
X147089700Y-104140000D01*
X132728600Y-105649800D02*
X145579900Y-105649800D01*
X131388900Y-104310100D02*
X132728600Y-105649800D01*
X131388900Y-103488900D02*
X131388900Y-104310100D01*
X129540000Y-101640000D02*
X131388900Y-103488900D01*
X148590000Y-104140000D02*
X147089700Y-104140000D01*
X196850000Y-109220000D02*
X199390000Y-109220000D01*
X155402400Y-82782100D02*
X153900300Y-81280000D01*
X169717600Y-82782100D02*
X155402400Y-82782100D01*
X171219700Y-81280000D02*
X169717600Y-82782100D01*
X167640000Y-41950000D02*
X187960000Y-41950000D01*
X101328800Y-126498500D02*
X101328800Y-114300000D01*
X102870000Y-128039700D02*
X101328800Y-126498500D01*
X101328800Y-114300000D02*
X94210300Y-114300000D01*
X105175000Y-96755000D02*
X105175000Y-112040300D01*
X106680000Y-95250000D02*
X105175000Y-96755000D01*
X113789400Y-112040300D02*
X105175000Y-112040300D01*
X124229700Y-101600000D02*
X113789400Y-112040300D01*
X101328800Y-113682000D02*
X101328800Y-114300000D01*
X102970500Y-112040300D02*
X101328800Y-113682000D01*
X105175000Y-112040300D02*
X102970500Y-112040300D01*
X125730000Y-101600000D02*
X124229700Y-101600000D01*
X125730000Y-99060000D02*
X125730000Y-100560300D01*
X129500000Y-101600000D02*
X129540000Y-101640000D01*
X125730000Y-101600000D02*
X129500000Y-101600000D01*
X125730000Y-101600000D02*
X125730000Y-100560300D01*
X152064900Y-134915100D02*
X153630000Y-133350000D01*
X134324900Y-134915100D02*
X152064900Y-134915100D01*
X130810000Y-138430000D02*
X134324900Y-134915100D01*
X185420000Y-133350000D02*
X189230000Y-129540000D01*
X153630000Y-133350000D02*
X185420000Y-133350000D01*
X199390000Y-48260000D02*
X196850000Y-48260000D01*
X186690000Y-90170000D02*
X185189700Y-90170000D01*
X175260000Y-90170000D02*
X176760300Y-90170000D01*
X104140000Y-54610000D02*
X105640300Y-54610000D01*
X183689300Y-88669600D02*
X185189700Y-90170000D01*
X177965700Y-88669600D02*
X183689300Y-88669600D01*
X176760300Y-89875000D02*
X177965700Y-88669600D01*
X176760300Y-90170000D02*
X176760300Y-89875000D01*
X108613300Y-54610000D02*
X105640300Y-54610000D01*
X111586300Y-51637000D02*
X108613300Y-54610000D01*
X119813000Y-51637000D02*
X111586300Y-51637000D01*
X121920000Y-49530000D02*
X119813000Y-51637000D01*
X108613300Y-73283600D02*
X108989700Y-73660000D01*
X108613300Y-54610000D02*
X108613300Y-73283600D01*
X99290300Y-86820600D02*
X99290300Y-86360000D01*
X105179700Y-92710000D02*
X99290300Y-86820600D01*
X106680000Y-92710000D02*
X105179700Y-92710000D01*
X97790000Y-86360000D02*
X99290300Y-86360000D01*
X110490000Y-73660000D02*
X109386500Y-73660000D01*
X109386500Y-73660000D02*
X108989700Y-73660000D01*
X99290300Y-84433100D02*
X99290300Y-86360000D01*
X109386500Y-74336900D02*
X99290300Y-84433100D01*
X109386500Y-73660000D02*
X109386500Y-74336900D01*
X140027600Y-110817600D02*
X143510000Y-114300000D01*
X136187900Y-110817600D02*
X140027600Y-110817600D01*
X129540000Y-104169700D02*
X136187900Y-110817600D01*
X129540000Y-104140000D02*
X129540000Y-104169700D01*
X125730000Y-104140000D02*
X127230300Y-104140000D01*
X129540000Y-104140000D02*
X127230300Y-104140000D01*
X167640000Y-48260000D02*
X166139700Y-48260000D01*
X167640000Y-44450000D02*
X187960000Y-44450000D01*
X147320000Y-49530000D02*
X147320000Y-48079700D01*
X165112200Y-47232500D02*
X165112200Y-46977800D01*
X166139700Y-48260000D02*
X165112200Y-47232500D01*
X165112200Y-46977800D02*
X167640000Y-44450000D01*
X147260200Y-48019900D02*
X147320000Y-48079700D01*
X133590100Y-48019900D02*
X147260200Y-48019900D01*
X132080000Y-49530000D02*
X133590100Y-48019900D01*
X148640100Y-46759600D02*
X147320000Y-48079700D01*
X164894000Y-46759600D02*
X148640100Y-46759600D01*
X165112200Y-46977800D02*
X164894000Y-46759600D01*
X172259300Y-88669600D02*
X173759700Y-90170000D01*
X166549400Y-88669600D02*
X172259300Y-88669600D01*
X165330300Y-89888700D02*
X166549400Y-88669600D01*
X165330300Y-90170000D02*
X165330300Y-89888700D01*
X163830000Y-90170000D02*
X165330300Y-90170000D01*
X175260000Y-90170000D02*
X173759700Y-90170000D01*
D25*
X97934700Y-101310600D02*
X93835300Y-105410000D01*
X97934700Y-100330000D02*
X97934700Y-101310600D01*
X92710000Y-105410000D02*
X93835300Y-105410000D01*
X99060000Y-100330000D02*
X97934700Y-100330000D01*
X99060000Y-92710000D02*
X92710000Y-92710000D01*
X95290000Y-97790000D02*
X92710000Y-95210000D01*
X99060000Y-97790000D02*
X95290000Y-97790000D01*
X107950000Y-83820000D02*
X105410000Y-81280000D01*
X110490000Y-83820000D02*
X107950000Y-83820000D01*
X126855300Y-75169400D02*
X128364700Y-73660000D01*
X126855300Y-76200000D02*
X126855300Y-75169400D01*
X129540000Y-73660000D02*
X128364700Y-73660000D01*
X125730000Y-76200000D02*
X126855300Y-76200000D01*
X165244700Y-129281800D02*
X153398800Y-117435900D01*
X165244700Y-129540000D02*
X165244700Y-129281800D01*
X165807400Y-129540000D02*
X165244700Y-129540000D01*
X126367700Y-105696700D02*
X121990300Y-105696700D01*
X134620000Y-113949000D02*
X126367700Y-105696700D01*
X134620000Y-114634400D02*
X134620000Y-113949000D01*
X137421500Y-117435900D02*
X134620000Y-114634400D01*
X153398800Y-117435900D02*
X137421500Y-117435900D01*
X166370000Y-129540000D02*
X165807400Y-129540000D01*
X166370000Y-129540000D02*
X167495300Y-129540000D01*
X182880000Y-113908000D02*
X188466700Y-108321300D01*
X182880000Y-114623100D02*
X182880000Y-113908000D01*
X169088400Y-128414700D02*
X182880000Y-114623100D01*
X168339200Y-128414700D02*
X169088400Y-128414700D01*
X167495300Y-129258600D02*
X168339200Y-128414700D01*
X167495300Y-129540000D02*
X167495300Y-129258600D01*
X107950000Y-135984700D02*
X109220000Y-137254700D01*
X107950000Y-129540000D02*
X107950000Y-135984700D01*
X109220000Y-138430000D02*
X109220000Y-137254700D01*
X114300000Y-134475300D02*
X114300000Y-138430000D01*
X118110000Y-130665300D02*
X114300000Y-134475300D01*
X118110000Y-129540000D02*
X118110000Y-130665300D01*
X116472600Y-139794700D02*
X116840000Y-139794700D01*
X115664700Y-138986800D02*
X116472600Y-139794700D01*
X115664700Y-135650600D02*
X115664700Y-138986800D01*
X120650000Y-130665300D02*
X115664700Y-135650600D01*
X120650000Y-129540000D02*
X120650000Y-130665300D01*
X116840000Y-140970000D02*
X116840000Y-139794700D01*
X123190000Y-130904700D02*
X116840000Y-137254700D01*
X123190000Y-129540000D02*
X123190000Y-130904700D01*
X116840000Y-138430000D02*
X116840000Y-137254700D01*
X156210000Y-97790000D02*
X155084700Y-97790000D01*
X148590000Y-96520000D02*
X149715300Y-96520000D01*
X194499400Y-49624700D02*
X195674700Y-50800000D01*
X175210000Y-49624700D02*
X194499400Y-49624700D01*
X173845300Y-48260000D02*
X175210000Y-49624700D01*
X172720000Y-48260000D02*
X173845300Y-48260000D01*
X196850000Y-50800000D02*
X195674700Y-50800000D01*
X150985300Y-97790000D02*
X149715300Y-96520000D01*
X155084700Y-97790000D02*
X150985300Y-97790000D01*
X196850000Y-53340000D02*
X195674700Y-53340000D01*
X172720000Y-50800000D02*
X173845300Y-50800000D01*
X194510000Y-52175300D02*
X195674700Y-53340000D01*
X175220600Y-52175300D02*
X194510000Y-52175300D01*
X173845300Y-50800000D02*
X175220600Y-52175300D01*
X148590000Y-101600000D02*
X149715300Y-101600000D01*
X156210000Y-102870000D02*
X155084700Y-102870000D01*
X170469400Y-49674700D02*
X171594700Y-50800000D01*
X154650600Y-49674700D02*
X170469400Y-49674700D01*
X153525300Y-50800000D02*
X154650600Y-49674700D01*
X152400000Y-50800000D02*
X153525300Y-50800000D01*
X172720000Y-50800000D02*
X171594700Y-50800000D01*
X154766300Y-103188400D02*
X155084700Y-102870000D01*
X151303700Y-103188400D02*
X154766300Y-103188400D01*
X149715300Y-101600000D02*
X151303700Y-103188400D01*
X170620200Y-105410000D02*
X170357800Y-105147600D01*
X175260000Y-105410000D02*
X170620200Y-105410000D01*
X170469400Y-52214700D02*
X171594700Y-53340000D01*
X154650600Y-52214700D02*
X170469400Y-52214700D01*
X153525300Y-53340000D02*
X154650600Y-52214700D01*
X152400000Y-53340000D02*
X153525300Y-53340000D01*
X172720000Y-53340000D02*
X171594700Y-53340000D01*
X180708300Y-87770000D02*
X180823300Y-87655000D01*
X156439800Y-87770000D02*
X180708300Y-87770000D01*
X154039800Y-90170000D02*
X156439800Y-87770000D01*
X138886900Y-90170000D02*
X154039800Y-90170000D01*
X135076900Y-93980000D02*
X138886900Y-90170000D01*
X133350000Y-93980000D02*
X135076900Y-93980000D01*
X148590000Y-99060000D02*
X149715300Y-99060000D01*
X187960000Y-53340000D02*
X187397400Y-53340000D01*
X199390000Y-55880000D02*
X199390000Y-54704700D01*
X170957800Y-53340000D02*
X167640000Y-53340000D01*
X172086000Y-54468200D02*
X170957800Y-53340000D01*
X186269200Y-54468200D02*
X172086000Y-54468200D01*
X187397400Y-53340000D02*
X186269200Y-54468200D01*
X188762100Y-54704700D02*
X199390000Y-54704700D01*
X187397400Y-53340000D02*
X188762100Y-54704700D01*
X153814700Y-99060000D02*
X149715300Y-99060000D01*
X155084700Y-100330000D02*
X153814700Y-99060000D01*
X155647400Y-100330000D02*
X155084700Y-100330000D01*
X155647400Y-100330000D02*
X156210000Y-100330000D01*
X161034800Y-96630500D02*
X166496300Y-96630500D01*
X157335300Y-100330000D02*
X161034800Y-96630500D01*
X156210000Y-100330000D02*
X157335300Y-100330000D01*
X152400000Y-55880000D02*
X153525300Y-55880000D01*
X154658500Y-54746800D02*
X153525300Y-55880000D01*
X170461500Y-54746800D02*
X154658500Y-54746800D01*
X171594700Y-55880000D02*
X170461500Y-54746800D01*
X172720000Y-55880000D02*
X171594700Y-55880000D01*
X154425800Y-86325800D02*
X179698500Y-86325800D01*
X153266200Y-87485400D02*
X154425800Y-86325800D01*
X139621400Y-87485400D02*
X153266200Y-87485400D01*
X135666800Y-91440000D02*
X139621400Y-87485400D01*
X133350000Y-91440000D02*
X135666800Y-91440000D01*
X185055300Y-58789400D02*
X179442400Y-58789400D01*
X186600200Y-57244500D02*
X185055300Y-58789400D01*
X190447500Y-57244500D02*
X186600200Y-57244500D01*
X191623000Y-58420000D02*
X190447500Y-57244500D01*
X196850000Y-58420000D02*
X191623000Y-58420000D01*
X199390000Y-58420000D02*
X198214700Y-58420000D01*
X135745300Y-95250000D02*
X134475300Y-96520000D01*
X156210000Y-95250000D02*
X135745300Y-95250000D01*
X133350000Y-96520000D02*
X134475300Y-96520000D01*
X185709400Y-57005300D02*
X186834700Y-55880000D01*
X172045100Y-57005300D02*
X185709400Y-57005300D01*
X170919800Y-55880000D02*
X172045100Y-57005300D01*
X167640000Y-55880000D02*
X170919800Y-55880000D01*
X187960000Y-55880000D02*
X186834700Y-55880000D01*
X187960000Y-55880000D02*
X189085300Y-55880000D01*
X190117500Y-55880000D02*
X189085300Y-55880000D01*
X191482200Y-57244700D02*
X190117500Y-55880000D01*
X197406800Y-57244700D02*
X191482200Y-57244700D01*
X198214700Y-58052600D02*
X197406800Y-57244700D01*
X198214700Y-58420000D02*
X198214700Y-58052600D01*
X154650600Y-57294700D02*
X153525300Y-58420000D01*
X170469400Y-57294700D02*
X154650600Y-57294700D01*
X171594700Y-58420000D02*
X170469400Y-57294700D01*
X152400000Y-58420000D02*
X153525300Y-58420000D01*
X172157400Y-58420000D02*
X171594700Y-58420000D01*
X172157400Y-58420000D02*
X172720000Y-58420000D01*
X172720000Y-58420000D02*
X173845300Y-58420000D01*
X174197400Y-58067900D02*
X183340700Y-58067900D01*
X173845300Y-58420000D02*
X174197400Y-58067900D01*
X199390000Y-60960000D02*
X198214700Y-60960000D01*
X190450000Y-59784700D02*
X189085300Y-58420000D01*
X197406800Y-59784700D02*
X190450000Y-59784700D01*
X198214700Y-60592600D02*
X197406800Y-59784700D01*
X198214700Y-60960000D02*
X198214700Y-60592600D01*
X187960000Y-58420000D02*
X189085300Y-58420000D01*
X185709400Y-59545300D02*
X186834700Y-58420000D01*
X171121700Y-59545300D02*
X185709400Y-59545300D01*
X169996400Y-58420000D02*
X171121700Y-59545300D01*
X167640000Y-58420000D02*
X169996400Y-58420000D01*
X187960000Y-58420000D02*
X186834700Y-58420000D01*
X165717500Y-97790000D02*
X163830000Y-97790000D01*
X135600600Y-100185300D02*
X134475300Y-99060000D01*
X149393700Y-100185300D02*
X135600600Y-100185300D01*
X151936700Y-102728300D02*
X149393700Y-100185300D01*
X153175900Y-102728300D02*
X151936700Y-102728300D01*
X154304200Y-101600000D02*
X153175900Y-102728300D01*
X158894700Y-101600000D02*
X154304200Y-101600000D01*
X162704700Y-97790000D02*
X158894700Y-101600000D01*
X163830000Y-97790000D02*
X162704700Y-97790000D01*
X133350000Y-99060000D02*
X134475300Y-99060000D01*
X154650600Y-59834700D02*
X153525300Y-60960000D01*
X170469400Y-59834700D02*
X154650600Y-59834700D01*
X171594700Y-60960000D02*
X170469400Y-59834700D01*
X152400000Y-60960000D02*
X153525300Y-60960000D01*
X172438700Y-60960000D02*
X171594700Y-60960000D01*
X172438700Y-60960000D02*
X172720000Y-60960000D01*
X192110900Y-63500000D02*
X196850000Y-63500000D01*
X188421500Y-59810600D02*
X192110900Y-63500000D01*
X187215500Y-59810600D02*
X188421500Y-59810600D01*
X186066100Y-60960000D02*
X187215500Y-59810600D01*
X172720000Y-60960000D02*
X186066100Y-60960000D01*
X133350000Y-104140000D02*
X133350000Y-103014700D01*
X137155300Y-92710000D02*
X156210000Y-92710000D01*
X134615300Y-95250000D02*
X137155300Y-92710000D01*
X133020800Y-95250000D02*
X134615300Y-95250000D01*
X131771300Y-96499500D02*
X133020800Y-95250000D01*
X131771300Y-101647000D02*
X131771300Y-96499500D01*
X133139000Y-103014700D02*
X131771300Y-101647000D01*
X133350000Y-103014700D02*
X133139000Y-103014700D01*
X185709400Y-62085300D02*
X186834700Y-60960000D01*
X169890600Y-62085300D02*
X185709400Y-62085300D01*
X168765300Y-60960000D02*
X169890600Y-62085300D01*
X167640000Y-60960000D02*
X168765300Y-60960000D01*
X187960000Y-60960000D02*
X186834700Y-60960000D01*
X171450000Y-129540000D02*
X170324700Y-129540000D01*
X115570000Y-114300000D02*
X116695300Y-114300000D01*
X170324700Y-129821300D02*
X170324700Y-129540000D01*
X169030300Y-131115700D02*
X170324700Y-129821300D01*
X155071800Y-131115700D02*
X169030300Y-131115700D01*
X146782500Y-122826400D02*
X155071800Y-131115700D01*
X124940400Y-122826400D02*
X146782500Y-122826400D01*
X116695300Y-114581300D02*
X124940400Y-122826400D01*
X116695300Y-114300000D02*
X116695300Y-114581300D01*
X152400000Y-63500000D02*
X153525300Y-63500000D01*
X170469400Y-64625300D02*
X171594700Y-63500000D01*
X154650600Y-64625300D02*
X170469400Y-64625300D01*
X153525300Y-63500000D02*
X154650600Y-64625300D01*
X172720000Y-63500000D02*
X173845300Y-63500000D01*
X196850000Y-66040000D02*
X195674700Y-66040000D01*
X172720000Y-63500000D02*
X171594700Y-63500000D01*
X174970600Y-64625300D02*
X173845300Y-63500000D01*
X189892300Y-64625300D02*
X174970600Y-64625300D01*
X190820000Y-65553000D02*
X189892300Y-64625300D01*
X195187700Y-65553000D02*
X190820000Y-65553000D01*
X195674700Y-66040000D02*
X195187700Y-65553000D01*
X174134700Y-102870000D02*
X168765300Y-102870000D01*
X167640000Y-102870000D02*
X168765300Y-102870000D01*
X174959600Y-102870000D02*
X174134700Y-102870000D01*
X174959600Y-102870000D02*
X175260000Y-102870000D01*
X179342200Y-101744700D02*
X180628900Y-100458000D01*
X177510600Y-101744700D02*
X179342200Y-101744700D01*
X176385300Y-102870000D02*
X177510600Y-101744700D01*
X175260000Y-102870000D02*
X176385300Y-102870000D01*
X187960000Y-63500000D02*
X189085300Y-63500000D01*
X199390000Y-66040000D02*
X198214700Y-66040000D01*
X189722300Y-63500000D02*
X189085300Y-63500000D01*
X191087000Y-64864700D02*
X189722300Y-63500000D01*
X197406800Y-64864700D02*
X191087000Y-64864700D01*
X198214700Y-65672600D02*
X197406800Y-64864700D01*
X198214700Y-66040000D02*
X198214700Y-65672600D01*
X196850000Y-68580000D02*
X195674700Y-68580000D01*
X172720000Y-66040000D02*
X173845300Y-66040000D01*
X170469400Y-67165300D02*
X171594700Y-66040000D01*
X154650600Y-67165300D02*
X170469400Y-67165300D01*
X153525300Y-66040000D02*
X154650600Y-67165300D01*
X172720000Y-66040000D02*
X171594700Y-66040000D01*
X194322600Y-67227900D02*
X195674700Y-68580000D01*
X175033200Y-67227900D02*
X194322600Y-67227900D01*
X173845300Y-66040000D02*
X175033200Y-67227900D01*
X173990000Y-129540000D02*
X172864700Y-129540000D01*
X113030000Y-114300000D02*
X114155300Y-114300000D01*
X172864700Y-129821300D02*
X172864700Y-129540000D01*
X171120000Y-131566000D02*
X172864700Y-129821300D01*
X154885200Y-131566000D02*
X171120000Y-131566000D01*
X149157300Y-125838100D02*
X154885200Y-131566000D01*
X125412100Y-125838100D02*
X149157300Y-125838100D01*
X114155300Y-114581300D02*
X125412100Y-125838100D01*
X114155300Y-114300000D02*
X114155300Y-114581300D01*
X152962700Y-66040000D02*
X153525300Y-66040000D01*
X152962700Y-66040000D02*
X152400000Y-66040000D01*
X152400000Y-66040000D02*
X151274700Y-66040000D01*
X150149400Y-67165300D02*
X147464700Y-67165300D01*
X151274700Y-66040000D02*
X150149400Y-67165300D01*
X199390000Y-68580000D02*
X198214700Y-68580000D01*
X198214700Y-68212600D02*
X198214700Y-68580000D01*
X197406800Y-67404700D02*
X198214700Y-68212600D01*
X195619100Y-67404700D02*
X197406800Y-67404700D01*
X194254400Y-66040000D02*
X195619100Y-67404700D01*
X189085300Y-66040000D02*
X194254400Y-66040000D01*
X187960000Y-66040000D02*
X189085300Y-66040000D01*
X174482200Y-66040000D02*
X187960000Y-66040000D01*
X173349000Y-64906800D02*
X174482200Y-66040000D01*
X171317900Y-64906800D02*
X173349000Y-64906800D01*
X170184700Y-66040000D02*
X171317900Y-64906800D01*
X167640000Y-66040000D02*
X170184700Y-66040000D01*
X133068600Y-100474700D02*
X133350000Y-100474700D01*
X132224700Y-99630800D02*
X133068600Y-100474700D01*
X132224700Y-98585600D02*
X132224700Y-99630800D01*
X132920800Y-97889500D02*
X132224700Y-98585600D01*
X150447900Y-97889500D02*
X132920800Y-97889500D01*
X151168000Y-98609600D02*
X150447900Y-97889500D01*
X155084600Y-98609600D02*
X151168000Y-98609600D01*
X155456500Y-98981500D02*
X155084600Y-98609600D01*
X157553800Y-98981500D02*
X155456500Y-98981500D01*
X161285300Y-95250000D02*
X157553800Y-98981500D01*
X163830000Y-95250000D02*
X161285300Y-95250000D01*
X133350000Y-101600000D02*
X133350000Y-100474700D01*
X174970600Y-69705300D02*
X173845300Y-68580000D01*
X194260000Y-69705300D02*
X174970600Y-69705300D01*
X195674700Y-71120000D02*
X194260000Y-69705300D01*
X196850000Y-71120000D02*
X195674700Y-71120000D01*
X110490000Y-104140000D02*
X110490000Y-103014700D01*
X133350000Y-78740000D02*
X133350000Y-79865300D01*
X173282700Y-68580000D02*
X173845300Y-68580000D01*
X173282700Y-68580000D02*
X172720000Y-68580000D01*
X154650600Y-69705300D02*
X153525300Y-68580000D01*
X170469400Y-69705300D02*
X154650600Y-69705300D01*
X171594700Y-68580000D02*
X170469400Y-69705300D01*
X172720000Y-68580000D02*
X171594700Y-68580000D01*
X152400000Y-68580000D02*
X153525300Y-68580000D01*
X144287800Y-78740000D02*
X133350000Y-78740000D01*
X148242400Y-74785400D02*
X144287800Y-78740000D01*
X150746900Y-74785400D02*
X148242400Y-74785400D01*
X151180200Y-74352100D02*
X150746900Y-74785400D01*
X110716300Y-103014700D02*
X110490000Y-103014700D01*
X123560400Y-90170600D02*
X110716300Y-103014700D01*
X123560400Y-84332000D02*
X123560400Y-90170600D01*
X125342400Y-82550000D02*
X123560400Y-84332000D01*
X129832800Y-82550000D02*
X125342400Y-82550000D01*
X132517500Y-79865300D02*
X129832800Y-82550000D01*
X133350000Y-79865300D02*
X132517500Y-79865300D01*
X184613000Y-71120000D02*
X173845300Y-71120000D01*
X185977700Y-72484700D02*
X184613000Y-71120000D01*
X194499400Y-72484700D02*
X185977700Y-72484700D01*
X195674700Y-73660000D02*
X194499400Y-72484700D01*
X196850000Y-73660000D02*
X195674700Y-73660000D01*
X173282700Y-71120000D02*
X173845300Y-71120000D01*
X152400000Y-71120000D02*
X151274700Y-71120000D01*
X110490000Y-101600000D02*
X110490000Y-100474700D01*
X130483700Y-76200000D02*
X133350000Y-76200000D01*
X126673700Y-80010000D02*
X130483700Y-76200000D01*
X125407300Y-80010000D02*
X126673700Y-80010000D01*
X111615300Y-93802000D02*
X125407300Y-80010000D01*
X111615300Y-99630800D02*
X111615300Y-93802000D01*
X110771400Y-100474700D02*
X111615300Y-99630800D01*
X110490000Y-100474700D02*
X110771400Y-100474700D01*
X144418900Y-76200000D02*
X133350000Y-76200000D01*
X148373600Y-72245300D02*
X144418900Y-76200000D01*
X150149400Y-72245300D02*
X148373600Y-72245300D01*
X151274700Y-71120000D02*
X150149400Y-72245300D01*
X152400000Y-71120000D02*
X153525300Y-71120000D01*
X173282700Y-71120000D02*
X172720000Y-71120000D01*
X153525300Y-71260700D02*
X153525300Y-71120000D01*
X154865200Y-72600600D02*
X153525300Y-71260700D01*
X155584800Y-72600600D02*
X154865200Y-72600600D01*
X155815300Y-72370100D02*
X155584800Y-72600600D01*
X168925200Y-72370100D02*
X155815300Y-72370100D01*
X169724900Y-71570400D02*
X168925200Y-72370100D01*
X171144300Y-71570400D02*
X169724900Y-71570400D01*
X171594700Y-71120000D02*
X171144300Y-71570400D01*
X172720000Y-71120000D02*
X171594700Y-71120000D01*
X138430000Y-114300000D02*
X139555300Y-114300000D01*
X186265100Y-70550400D02*
X186834700Y-71120000D01*
X174240100Y-70550400D02*
X186265100Y-70550400D01*
X173673400Y-69983700D02*
X174240100Y-70550400D01*
X171321000Y-69983700D02*
X173673400Y-69983700D01*
X170184700Y-71120000D02*
X171321000Y-69983700D01*
X167640000Y-71120000D02*
X170184700Y-71120000D01*
X187960000Y-71120000D02*
X186834700Y-71120000D01*
X125730000Y-78740000D02*
X126855300Y-78740000D01*
X130532700Y-75062600D02*
X126855300Y-78740000D01*
X144331000Y-75062600D02*
X130532700Y-75062600D01*
X139555300Y-114581300D02*
X139555300Y-114300000D01*
X141304800Y-116330800D02*
X139555300Y-114581300D01*
X177039200Y-116330800D02*
X141304800Y-116330800D01*
X179070000Y-114300000D02*
X177039200Y-116330800D01*
X154650600Y-74785300D02*
X153525300Y-73660000D01*
X170469400Y-74785300D02*
X154650600Y-74785300D01*
X171594700Y-73660000D02*
X170469400Y-74785300D01*
X152400000Y-73660000D02*
X153525300Y-73660000D01*
X152400000Y-73660000D02*
X151274700Y-73660000D01*
X148590000Y-73660000D02*
X149715300Y-73660000D01*
X151274700Y-73660000D02*
X149715300Y-73660000D01*
X172720000Y-73660000D02*
X173845300Y-73660000D01*
X172720000Y-73660000D02*
X171594700Y-73660000D01*
X174970600Y-74785300D02*
X173845300Y-73660000D01*
X191907000Y-74785300D02*
X174970600Y-74785300D01*
X193321700Y-76200000D02*
X191907000Y-74785300D01*
X196850000Y-76200000D02*
X193321700Y-76200000D01*
X167640000Y-73660000D02*
X168765300Y-73660000D01*
X199390000Y-76200000D02*
X198214700Y-76200000D01*
X198214700Y-75832600D02*
X198214700Y-76200000D01*
X197406800Y-75024700D02*
X198214700Y-75832600D01*
X194781500Y-75024700D02*
X197406800Y-75024700D01*
X193416800Y-73660000D02*
X194781500Y-75024700D01*
X187960000Y-73660000D02*
X193416800Y-73660000D01*
X187960000Y-73660000D02*
X186834700Y-73660000D01*
X186197800Y-73660000D02*
X186834700Y-73660000D01*
X185072500Y-72534700D02*
X186197800Y-73660000D01*
X169890600Y-72534700D02*
X185072500Y-72534700D01*
X168765300Y-73660000D02*
X169890600Y-72534700D01*
X148590000Y-88900000D02*
X149715300Y-88900000D01*
X138897800Y-88900000D02*
X148590000Y-88900000D01*
X135202300Y-92595500D02*
X138897800Y-88900000D01*
X130509400Y-92595500D02*
X135202300Y-92595500D01*
X128856200Y-90942300D02*
X130509400Y-92595500D01*
X181610000Y-114300000D02*
X180484700Y-114300000D01*
X135890000Y-114300000D02*
X137015300Y-114300000D01*
X137015300Y-114513600D02*
X137015300Y-114300000D01*
X139283000Y-116781300D02*
X137015300Y-114513600D01*
X178284700Y-116781300D02*
X139283000Y-116781300D01*
X180484700Y-114581300D02*
X178284700Y-116781300D01*
X180484700Y-114300000D02*
X180484700Y-114581300D01*
X154672800Y-88900000D02*
X149715300Y-88900000D01*
X156501600Y-87071200D02*
X154672800Y-88900000D01*
X166035800Y-87071200D02*
X156501600Y-87071200D01*
X196850000Y-78740000D02*
X195674700Y-78740000D01*
X173282700Y-76200000D02*
X173845300Y-76200000D01*
X174077200Y-76431900D02*
X173845300Y-76200000D01*
X174714200Y-76431900D02*
X174077200Y-76431900D01*
X175621800Y-77339500D02*
X174714200Y-76431900D01*
X190730500Y-77339500D02*
X175621800Y-77339500D01*
X192131000Y-78740000D02*
X190730500Y-77339500D01*
X195674700Y-78740000D02*
X192131000Y-78740000D01*
X152400000Y-76200000D02*
X148590000Y-76200000D01*
X125448600Y-92854700D02*
X125730000Y-92854700D01*
X124604700Y-92010800D02*
X125448600Y-92854700D01*
X124604700Y-85890200D02*
X124604700Y-92010800D01*
X125404900Y-85090000D02*
X124604700Y-85890200D01*
X128414700Y-85090000D02*
X125404900Y-85090000D01*
X130954700Y-82550000D02*
X128414700Y-85090000D01*
X141114700Y-82550000D02*
X130954700Y-82550000D01*
X147464700Y-76200000D02*
X141114700Y-82550000D01*
X148590000Y-76200000D02*
X147464700Y-76200000D01*
X125730000Y-93980000D02*
X125730000Y-92854700D01*
X173282700Y-76200000D02*
X172720000Y-76200000D01*
X163656100Y-76200000D02*
X152400000Y-76200000D01*
X164795500Y-77339400D02*
X163656100Y-76200000D01*
X169035900Y-77339400D02*
X164795500Y-77339400D01*
X169724900Y-76650400D02*
X169035900Y-77339400D01*
X171144300Y-76650400D02*
X169724900Y-76650400D01*
X171594700Y-76200000D02*
X171144300Y-76650400D01*
X172720000Y-76200000D02*
X171594700Y-76200000D01*
X167640000Y-76200000D02*
X168765300Y-76200000D01*
X187960000Y-76200000D02*
X189085300Y-76200000D01*
X199390000Y-78740000D02*
X198214700Y-78740000D01*
X170184700Y-76200000D02*
X168765300Y-76200000D01*
X171321000Y-75063700D02*
X170184700Y-76200000D01*
X173750200Y-75063700D02*
X171321000Y-75063700D01*
X174668100Y-75981600D02*
X173750200Y-75063700D01*
X186616300Y-75981600D02*
X174668100Y-75981600D01*
X186834700Y-76200000D02*
X186616300Y-75981600D01*
X187960000Y-76200000D02*
X186834700Y-76200000D01*
X190677900Y-76200000D02*
X189085300Y-76200000D01*
X192042600Y-77564700D02*
X190677900Y-76200000D01*
X197406800Y-77564700D02*
X192042600Y-77564700D01*
X198214700Y-78372600D02*
X197406800Y-77564700D01*
X198214700Y-78740000D02*
X198214700Y-78372600D01*
X199757300Y-79915300D02*
X199390000Y-79915300D01*
X201491100Y-81649100D02*
X199757300Y-79915300D01*
X201491100Y-103761400D02*
X201491100Y-81649100D01*
X199842500Y-105410000D02*
X201491100Y-103761400D01*
X198959000Y-105410000D02*
X199842500Y-105410000D01*
X198214600Y-106154400D02*
X198959000Y-105410000D01*
X198214600Y-107016400D02*
X198214600Y-106154400D01*
X197375600Y-107855400D02*
X198214600Y-107016400D01*
X194012700Y-107855400D02*
X197375600Y-107855400D01*
X187960000Y-113908100D02*
X194012700Y-107855400D01*
X187960000Y-114631600D02*
X187960000Y-113908100D01*
X187136400Y-115455200D02*
X187960000Y-114631600D01*
X186149200Y-115455200D02*
X187136400Y-115455200D01*
X185275300Y-114581300D02*
X186149200Y-115455200D01*
X185275300Y-114300000D02*
X185275300Y-114581300D01*
X184150000Y-114300000D02*
X185275300Y-114300000D01*
X199390000Y-78740000D02*
X199390000Y-79915300D01*
X148590000Y-86360000D02*
X149715300Y-86360000D01*
X166664000Y-84092000D02*
X166664000Y-84091900D01*
X151983300Y-84092000D02*
X166664000Y-84092000D01*
X149715300Y-86360000D02*
X151983300Y-84092000D01*
X148590000Y-78740000D02*
X151274700Y-78740000D01*
X151837400Y-78740000D02*
X151274700Y-78740000D01*
X151837400Y-78740000D02*
X152400000Y-78740000D01*
X163656100Y-78740000D02*
X153525300Y-78740000D01*
X164789400Y-79873300D02*
X163656100Y-78740000D01*
X169042000Y-79873300D02*
X164789400Y-79873300D01*
X170175300Y-78740000D02*
X169042000Y-79873300D01*
X171594700Y-78740000D02*
X170175300Y-78740000D01*
X172720000Y-78740000D02*
X171594700Y-78740000D01*
X152400000Y-78740000D02*
X153525300Y-78740000D01*
X174414900Y-79309600D02*
X173845300Y-78740000D01*
X185182600Y-79309600D02*
X174414900Y-79309600D01*
X185774800Y-79901800D02*
X185182600Y-79309600D01*
X194296500Y-79901800D02*
X185774800Y-79901800D01*
X195674700Y-81280000D02*
X194296500Y-79901800D01*
X196850000Y-81280000D02*
X195674700Y-81280000D01*
X172720000Y-78740000D02*
X173845300Y-78740000D01*
X127980600Y-90314700D02*
X126855300Y-91440000D01*
X134764700Y-90314700D02*
X127980600Y-90314700D01*
X136515500Y-88563900D02*
X134764700Y-90314700D01*
X125730000Y-91440000D02*
X126855300Y-91440000D01*
X148590000Y-83820000D02*
X147464700Y-83820000D01*
X169890600Y-77614700D02*
X168765300Y-78740000D01*
X174941700Y-77614700D02*
X169890600Y-77614700D01*
X176067000Y-78740000D02*
X174941700Y-77614700D01*
X186834700Y-78740000D02*
X176067000Y-78740000D01*
X137457500Y-83781400D02*
X147426100Y-83781400D01*
X136168000Y-85070900D02*
X137457500Y-83781400D01*
X130679500Y-85070900D02*
X136168000Y-85070900D01*
X129390400Y-86360000D02*
X130679500Y-85070900D01*
X125730000Y-86360000D02*
X129390400Y-86360000D01*
X147426100Y-83781400D02*
X147464700Y-83820000D01*
X167640000Y-78740000D02*
X166514700Y-78740000D01*
X167640000Y-78740000D02*
X168765300Y-78740000D01*
X187397400Y-78740000D02*
X186834700Y-78740000D01*
X187397400Y-78740000D02*
X187960000Y-78740000D01*
X198214700Y-80912600D02*
X198214700Y-81280000D01*
X197406800Y-80104700D02*
X198214700Y-80912600D01*
X195619100Y-80104700D02*
X197406800Y-80104700D01*
X194704800Y-79190400D02*
X195619100Y-80104700D01*
X189535700Y-79190400D02*
X194704800Y-79190400D01*
X189085300Y-78740000D02*
X189535700Y-79190400D01*
X187960000Y-78740000D02*
X189085300Y-78740000D01*
X199390000Y-81280000D02*
X198214700Y-81280000D01*
X199390000Y-81280000D02*
X199390000Y-82455300D01*
X195674600Y-105315400D02*
X186690000Y-114300000D01*
X197339400Y-105315400D02*
X195674600Y-105315400D01*
X198025400Y-104629400D02*
X197339400Y-105315400D01*
X198025400Y-103821700D02*
X198025400Y-104629400D01*
X198977100Y-102870000D02*
X198025400Y-103821700D01*
X199829600Y-102870000D02*
X198977100Y-102870000D01*
X201039900Y-101659700D02*
X199829600Y-102870000D01*
X201039900Y-83737900D02*
X201039900Y-101659700D01*
X199757300Y-82455300D02*
X201039900Y-83737900D01*
X199390000Y-82455300D02*
X199757300Y-82455300D01*
X165240900Y-78740000D02*
X166514700Y-78740000D01*
X164065400Y-77564500D02*
X165240900Y-78740000D01*
X148126200Y-77564500D02*
X164065400Y-77564500D01*
X147426100Y-78264600D02*
X148126200Y-77564500D01*
X147426100Y-83781400D02*
X147426100Y-78264600D01*
X187960000Y-81280000D02*
X186834700Y-81280000D01*
X190450000Y-82644700D02*
X189085300Y-81280000D01*
X197406800Y-82644700D02*
X190450000Y-82644700D01*
X198214700Y-83452600D02*
X197406800Y-82644700D01*
X198214700Y-83820000D02*
X198214700Y-83452600D01*
X199390000Y-83820000D02*
X198214700Y-83820000D01*
X187960000Y-81280000D02*
X189085300Y-81280000D01*
X168202700Y-81280000D02*
X168765300Y-81280000D01*
X168202700Y-81280000D02*
X167640000Y-81280000D01*
X167640000Y-81280000D02*
X166514700Y-81280000D01*
X148590000Y-81280000D02*
X149715300Y-81280000D01*
X169918400Y-80126900D02*
X168765300Y-81280000D01*
X181151700Y-80126900D02*
X169918400Y-80126900D01*
X182304800Y-81280000D02*
X181151700Y-80126900D01*
X186834700Y-81280000D02*
X182304800Y-81280000D01*
X125730000Y-88900000D02*
X126855300Y-88900000D01*
X150840600Y-80154700D02*
X149715300Y-81280000D01*
X164115600Y-80154700D02*
X150840600Y-80154700D01*
X165240900Y-81280000D02*
X164115600Y-80154700D01*
X166514700Y-81280000D02*
X165240900Y-81280000D01*
X127980600Y-87774700D02*
X126855300Y-88900000D01*
X136336400Y-87774700D02*
X127980600Y-87774700D01*
X139165700Y-84945400D02*
X136336400Y-87774700D01*
X149127900Y-84945400D02*
X139165700Y-84945400D01*
X149715300Y-84358000D02*
X149127900Y-84945400D01*
X149715300Y-81280000D02*
X149715300Y-84358000D01*
X167640000Y-92710000D02*
X166514700Y-92710000D01*
X199390000Y-86360000D02*
X198214700Y-86360000D01*
X167640000Y-90170000D02*
X168765300Y-90170000D01*
X169899000Y-91303700D02*
X168765300Y-90170000D01*
X188004700Y-91303700D02*
X169899000Y-91303700D01*
X191773100Y-87535300D02*
X188004700Y-91303700D01*
X197406800Y-87535300D02*
X191773100Y-87535300D01*
X198214700Y-86727400D02*
X197406800Y-87535300D01*
X198214700Y-86360000D02*
X198214700Y-86727400D01*
X164669800Y-93980000D02*
X148590000Y-93980000D01*
X165939800Y-92710000D02*
X164669800Y-93980000D01*
X166514700Y-92710000D02*
X165939800Y-92710000D01*
X123880000Y-60960000D02*
X129540000Y-60960000D01*
X143560000Y-59784700D02*
X147464700Y-55880000D01*
X131890600Y-59784700D02*
X143560000Y-59784700D01*
X130715300Y-60960000D02*
X131890600Y-59784700D01*
X129540000Y-60960000D02*
X130715300Y-60960000D01*
X148590000Y-55880000D02*
X147464700Y-55880000D01*
X163830000Y-129540000D02*
X162704700Y-129540000D01*
X118110000Y-114300000D02*
X119235300Y-114300000D01*
X162704700Y-129803700D02*
X162704700Y-129540000D01*
X161843000Y-130665400D02*
X162704700Y-129803700D01*
X155258400Y-130665400D02*
X161843000Y-130665400D01*
X145641300Y-121048300D02*
X155258400Y-130665400D01*
X125702300Y-121048300D02*
X145641300Y-121048300D01*
X119235300Y-114581300D02*
X125702300Y-121048300D01*
X119235300Y-114300000D02*
X119235300Y-114581300D01*
X198214700Y-89267400D02*
X198214700Y-88900000D01*
X197406800Y-90075300D02*
X198214700Y-89267400D01*
X190450000Y-90075300D02*
X197406800Y-90075300D01*
X187815300Y-92710000D02*
X190450000Y-90075300D01*
X186690000Y-92710000D02*
X187815300Y-92710000D01*
X199390000Y-88900000D02*
X198214700Y-88900000D01*
X189722200Y-91440000D02*
X196850000Y-91440000D01*
X187037600Y-94124600D02*
X189722200Y-91440000D01*
X183935200Y-94124600D02*
X187037600Y-94124600D01*
X181395200Y-96664600D02*
X183935200Y-94124600D01*
X178595200Y-96664600D02*
X181395200Y-96664600D01*
X176055100Y-99204700D02*
X178595200Y-96664600D01*
X175260000Y-99204700D02*
X176055100Y-99204700D01*
X175260000Y-100330000D02*
X175260000Y-99204700D01*
X140970000Y-114300000D02*
X142095300Y-114300000D01*
X141114700Y-64770000D02*
X147464700Y-58420000D01*
X129137400Y-64770000D02*
X141114700Y-64770000D01*
X127982900Y-65924500D02*
X129137400Y-64770000D01*
X127982900Y-67216800D02*
X127982900Y-65924500D01*
X124597000Y-70602700D02*
X127982900Y-67216800D01*
X124597000Y-71683000D02*
X124597000Y-70602700D01*
X125448700Y-72534700D02*
X124597000Y-71683000D01*
X125730000Y-72534700D02*
X125448700Y-72534700D01*
X125730000Y-73660000D02*
X125730000Y-72534700D01*
X148590000Y-58420000D02*
X147464700Y-58420000D01*
X163056800Y-99204700D02*
X175260000Y-99204700D01*
X157995800Y-104265700D02*
X163056800Y-99204700D01*
X154421400Y-104265700D02*
X157995800Y-104265700D01*
X144780000Y-113907100D02*
X154421400Y-104265700D01*
X144780000Y-114663300D02*
X144780000Y-113907100D01*
X143975600Y-115467700D02*
X144780000Y-114663300D01*
X142981700Y-115467700D02*
X143975600Y-115467700D01*
X142095300Y-114581300D02*
X142981700Y-115467700D01*
X142095300Y-114300000D02*
X142095300Y-114581300D01*
X198214700Y-91807400D02*
X198214700Y-91440000D01*
X197406800Y-92615300D02*
X198214700Y-91807400D01*
X190450000Y-92615300D02*
X197406800Y-92615300D01*
X187815300Y-95250000D02*
X190450000Y-92615300D01*
X186690000Y-95250000D02*
X187815300Y-95250000D01*
X199390000Y-91440000D02*
X198214700Y-91440000D01*
X198214700Y-94347400D02*
X198214700Y-93980000D01*
X197406800Y-95155300D02*
X198214700Y-94347400D01*
X190450000Y-95155300D02*
X197406800Y-95155300D01*
X187815300Y-97790000D02*
X190450000Y-95155300D01*
X186690000Y-97790000D02*
X187815300Y-97790000D01*
X199390000Y-93980000D02*
X198214700Y-93980000D01*
X196850000Y-96520000D02*
X195674700Y-96520000D01*
X178295600Y-98915300D02*
X179070000Y-98915300D01*
X175702500Y-101508400D02*
X178295600Y-98915300D01*
X167336100Y-101508400D02*
X175702500Y-101508400D01*
X164559800Y-104284700D02*
X167336100Y-101508400D01*
X163830000Y-104284700D02*
X164559800Y-104284700D01*
X163830000Y-105410000D02*
X163830000Y-104284700D01*
X179070000Y-97790000D02*
X179070000Y-98915300D01*
X176808100Y-93132800D02*
X176385300Y-92710000D01*
X177765200Y-93132800D02*
X176808100Y-93132800D01*
X175260000Y-92710000D02*
X176385300Y-92710000D01*
X190359100Y-96520000D02*
X195674700Y-96520000D01*
X187963800Y-98915300D02*
X190359100Y-96520000D01*
X179070000Y-98915300D02*
X187963800Y-98915300D01*
X186690000Y-100330000D02*
X187815300Y-100330000D01*
X199390000Y-96520000D02*
X198214700Y-96520000D01*
X198214700Y-96887400D02*
X198214700Y-96520000D01*
X197406800Y-97695300D02*
X198214700Y-96887400D01*
X190450000Y-97695300D02*
X197406800Y-97695300D01*
X187815300Y-100330000D02*
X190450000Y-97695300D01*
X196850000Y-99060000D02*
X198025300Y-99060000D01*
X133350000Y-68580000D02*
X134475300Y-68580000D01*
X198025300Y-98692600D02*
X198025300Y-99060000D01*
X198833200Y-97884700D02*
X198025300Y-98692600D01*
X199690900Y-97884700D02*
X198833200Y-97884700D01*
X200589500Y-96986100D02*
X199690900Y-97884700D01*
X200589500Y-85837500D02*
X200589500Y-96986100D01*
X199919400Y-85167400D02*
X200589500Y-85837500D01*
X156606300Y-85167400D02*
X199919400Y-85167400D01*
X152957100Y-69705300D02*
X155221800Y-71970000D01*
X135600600Y-69705300D02*
X152957100Y-69705300D01*
X134475300Y-68580000D02*
X135600600Y-69705300D01*
X198120000Y-100330000D02*
X199390000Y-99060000D01*
X190355300Y-100330000D02*
X198120000Y-100330000D01*
X187815300Y-102870000D02*
X190355300Y-100330000D01*
X186690000Y-102870000D02*
X187815300Y-102870000D01*
X149715300Y-114018600D02*
X149715300Y-114300000D01*
X162278600Y-101455300D02*
X149715300Y-114018600D01*
X165389400Y-101455300D02*
X162278600Y-101455300D01*
X166514700Y-100330000D02*
X165389400Y-101455300D01*
X167640000Y-100330000D02*
X166514700Y-100330000D01*
X148590000Y-114300000D02*
X149715300Y-114300000D01*
X187310500Y-104011700D02*
X169419500Y-104011700D01*
X189722200Y-101600000D02*
X187310500Y-104011700D01*
X196850000Y-101600000D02*
X189722200Y-101600000D01*
X128048900Y-72313600D02*
X126855300Y-71120000D01*
X146271100Y-72313600D02*
X128048900Y-72313600D01*
X147464700Y-71120000D02*
X146271100Y-72313600D01*
X148590000Y-71120000D02*
X147464700Y-71120000D01*
X125730000Y-71120000D02*
X126855300Y-71120000D01*
X124508200Y-106373200D02*
X122652900Y-106373200D01*
X132080000Y-113945000D02*
X124508200Y-106373200D01*
X132080000Y-114640500D02*
X132080000Y-113945000D01*
X135385300Y-117945800D02*
X132080000Y-114640500D01*
X143490500Y-117945800D02*
X135385300Y-117945800D01*
X155084700Y-129540000D02*
X143490500Y-117945800D01*
X129540000Y-66040000D02*
X129540000Y-67215300D01*
X156210000Y-129540000D02*
X155084700Y-129540000D01*
X129234700Y-67215300D02*
X129540000Y-67215300D01*
X126924000Y-69526000D02*
X129234700Y-67215300D01*
X131890600Y-67404700D02*
X130715300Y-68580000D01*
X146100000Y-67404700D02*
X131890600Y-67404700D01*
X147464700Y-66040000D02*
X146100000Y-67404700D01*
X148590000Y-66040000D02*
X147464700Y-66040000D01*
X129540000Y-68580000D02*
X130715300Y-68580000D01*
X167640000Y-95250000D02*
X168765300Y-95250000D01*
X174134700Y-95250000D02*
X168765300Y-95250000D01*
X174697400Y-95250000D02*
X174134700Y-95250000D01*
X174697400Y-95250000D02*
X175260000Y-95250000D01*
X175260000Y-95250000D02*
X176385300Y-95250000D01*
X177510600Y-94124700D02*
X181168100Y-94124700D01*
X176385300Y-95250000D02*
X177510600Y-94124700D01*
X167921400Y-94124700D02*
X167640000Y-94124700D01*
X168765300Y-93280800D02*
X167921400Y-94124700D01*
X168765300Y-92183300D02*
X168765300Y-93280800D01*
X167877300Y-91295300D02*
X168765300Y-92183300D01*
X158460600Y-91295300D02*
X167877300Y-91295300D01*
X157335300Y-90170000D02*
X158460600Y-91295300D01*
X156210000Y-90170000D02*
X157335300Y-90170000D01*
X167640000Y-95250000D02*
X167640000Y-94124700D01*
X165385100Y-94610700D02*
X165385100Y-94149000D01*
X167439100Y-96664700D02*
X165385100Y-94610700D01*
X173009400Y-96664700D02*
X167439100Y-96664700D01*
X174134700Y-97790000D02*
X173009400Y-96664700D01*
X175260000Y-97790000D02*
X174134700Y-97790000D01*
X110208700Y-90025300D02*
X110490000Y-90025300D01*
X107805300Y-92428700D02*
X110208700Y-90025300D01*
X107805300Y-103440800D02*
X107805300Y-92428700D01*
X106961400Y-104284700D02*
X107805300Y-103440800D01*
X106680000Y-104284700D02*
X106961400Y-104284700D01*
X106680000Y-105410000D02*
X106680000Y-104284700D01*
X110490000Y-88900000D02*
X110490000Y-90025300D01*
X179070000Y-105410000D02*
X179070000Y-106535300D01*
X149838600Y-115425300D02*
X149627100Y-115213800D01*
X174471500Y-115425300D02*
X149838600Y-115425300D01*
X175260000Y-114636800D02*
X174471500Y-115425300D01*
X175260000Y-113397500D02*
X175260000Y-114636800D01*
X180199000Y-108458500D02*
X175260000Y-113397500D01*
X180199000Y-107383000D02*
X180199000Y-108458500D01*
X179351300Y-106535300D02*
X180199000Y-107383000D01*
X179070000Y-106535300D02*
X179351300Y-106535300D01*
X109284700Y-86280000D02*
X109364700Y-86360000D01*
X105410000Y-86280000D02*
X109284700Y-86280000D01*
X110490000Y-86360000D02*
X109364700Y-86360000D01*
X146050000Y-114300000D02*
X147175300Y-114300000D01*
X147175300Y-114581300D02*
X147175300Y-114300000D01*
X148474400Y-115880400D02*
X147175300Y-114581300D01*
X176586700Y-115880400D02*
X148474400Y-115880400D01*
X177800000Y-114667100D02*
X176586700Y-115880400D01*
X177800000Y-113895300D02*
X177800000Y-114667100D01*
X183745300Y-107950000D02*
X177800000Y-113895300D01*
X186690000Y-107950000D02*
X183745300Y-107950000D01*
X185420000Y-105410000D02*
X186690000Y-105410000D01*
X176530000Y-114300000D02*
X185420000Y-105410000D01*
X186690000Y-105410000D02*
X187815300Y-105410000D01*
X199390000Y-101600000D02*
X198214700Y-101600000D01*
X190404300Y-102821000D02*
X187815300Y-105410000D01*
X197361100Y-102821000D02*
X190404300Y-102821000D01*
X198214700Y-101967400D02*
X197361100Y-102821000D01*
X198214700Y-101600000D02*
X198214700Y-101967400D01*
M02*
