G04 #@! TF.FileFunction,Soldermask,Top*
%FSLAX46Y46*%
G04 Gerber Fmt 4.6, Leading zero omitted, Abs format (unit mm)*
G04 Created by KiCad (PCBNEW 4.0.6-e0-6349~53~ubuntu16.04.1) date Tue Jun 13 06:23:48 2017*
%MOMM*%
%LPD*%
G01*
G04 APERTURE LIST*
%ADD10C,0.100000*%
%ADD11R,1.600000X1.600000*%
%ADD12C,1.600000*%
%ADD13O,1.600000X1.600000*%
%ADD14R,1.800000X1.800000*%
%ADD15C,1.800000*%
%ADD16R,1.727200X1.727200*%
%ADD17O,1.727200X1.727200*%
%ADD18R,3.500000X3.500000*%
%ADD19R,2.000000X1.500000*%
%ADD20C,1.500000*%
%ADD21C,6.400000*%
%ADD22O,0.900000X1.500000*%
%ADD23R,0.900000X1.500000*%
%ADD24C,2.400000*%
%ADD25O,2.400000X2.400000*%
%ADD26R,1.700000X1.700000*%
%ADD27O,1.700000X1.700000*%
%ADD28C,2.000000*%
%ADD29O,1.800000X1.800000*%
G04 APERTURE END LIST*
D10*
D11*
X50800000Y-117475000D03*
D12*
X50800000Y-114975000D03*
D11*
X50800000Y-98425000D03*
D12*
X50800000Y-95925000D03*
D11*
X50800000Y-108585000D03*
D12*
X50800000Y-111085000D03*
D11*
X69850000Y-114935000D03*
D12*
X72350000Y-114935000D03*
D11*
X50800000Y-102235000D03*
D12*
X50800000Y-104735000D03*
X69850000Y-107950000D03*
X72350000Y-107950000D03*
D11*
X191770000Y-84455000D03*
D12*
X191770000Y-86955000D03*
D11*
X193675000Y-95250000D03*
D12*
X191675000Y-95250000D03*
X40640000Y-81280000D03*
X40640000Y-83780000D03*
X66040000Y-67310000D03*
X68540000Y-67310000D03*
X90805000Y-64770000D03*
X93305000Y-64770000D03*
X81915000Y-90805000D03*
X81915000Y-88305000D03*
X78740000Y-132080000D03*
X78740000Y-129580000D03*
X107950000Y-109220000D03*
X107950000Y-111720000D03*
X133350000Y-131445000D03*
X133350000Y-128945000D03*
X165100000Y-63500000D03*
X167600000Y-63500000D03*
X72390000Y-90805000D03*
X69890000Y-90805000D03*
X186055000Y-65405000D03*
X183555000Y-65405000D03*
X148590000Y-73660000D03*
X148590000Y-76160000D03*
X166370000Y-57785000D03*
X166370000Y-55285000D03*
D11*
X158115000Y-59055000D03*
D12*
X155615000Y-59055000D03*
D11*
X95885000Y-118110000D03*
D13*
X95885000Y-110490000D03*
D11*
X100965000Y-118110000D03*
D13*
X100965000Y-110490000D03*
D14*
X197485000Y-137795000D03*
D15*
X197485000Y-135255000D03*
D16*
X37465000Y-103505000D03*
D17*
X40005000Y-103505000D03*
X37465000Y-106045000D03*
X40005000Y-106045000D03*
X37465000Y-108585000D03*
X40005000Y-108585000D03*
X37465000Y-111125000D03*
X40005000Y-111125000D03*
X37465000Y-113665000D03*
X40005000Y-113665000D03*
D16*
X39370000Y-146050000D03*
D17*
X39370000Y-143510000D03*
X41910000Y-146050000D03*
X41910000Y-143510000D03*
X44450000Y-146050000D03*
X44450000Y-143510000D03*
X46990000Y-146050000D03*
X46990000Y-143510000D03*
X49530000Y-146050000D03*
X49530000Y-143510000D03*
X52070000Y-146050000D03*
X52070000Y-143510000D03*
X54610000Y-146050000D03*
X54610000Y-143510000D03*
D16*
X66040000Y-146050000D03*
D17*
X66040000Y-143510000D03*
X68580000Y-146050000D03*
X68580000Y-143510000D03*
X71120000Y-146050000D03*
X71120000Y-143510000D03*
X73660000Y-146050000D03*
X73660000Y-143510000D03*
X76200000Y-146050000D03*
X76200000Y-143510000D03*
X78740000Y-146050000D03*
X78740000Y-143510000D03*
X81280000Y-146050000D03*
X81280000Y-143510000D03*
D18*
X198120000Y-55880000D03*
X204120000Y-55880000D03*
X201120000Y-51180000D03*
D16*
X92710000Y-146050000D03*
D17*
X92710000Y-143510000D03*
X95250000Y-146050000D03*
X95250000Y-143510000D03*
X97790000Y-146050000D03*
X97790000Y-143510000D03*
X100330000Y-146050000D03*
X100330000Y-143510000D03*
X102870000Y-146050000D03*
X102870000Y-143510000D03*
X105410000Y-146050000D03*
X105410000Y-143510000D03*
X107950000Y-146050000D03*
X107950000Y-143510000D03*
D16*
X119380000Y-146050000D03*
D17*
X119380000Y-143510000D03*
X121920000Y-146050000D03*
X121920000Y-143510000D03*
X124460000Y-146050000D03*
X124460000Y-143510000D03*
X127000000Y-146050000D03*
X127000000Y-143510000D03*
X129540000Y-146050000D03*
X129540000Y-143510000D03*
X132080000Y-146050000D03*
X132080000Y-143510000D03*
X134620000Y-146050000D03*
X134620000Y-143510000D03*
D19*
X151440000Y-51190000D03*
X151440000Y-45690000D03*
X151440000Y-42290000D03*
X158440000Y-51690000D03*
X158440000Y-49490000D03*
D20*
X154940000Y-42690000D03*
X154940000Y-49690000D03*
D19*
X158440000Y-42290000D03*
D21*
X29845000Y-147955000D03*
X29845000Y-43180000D03*
X203835000Y-43180000D03*
X203835000Y-147955000D03*
D16*
X146050000Y-146050000D03*
D17*
X146050000Y-143510000D03*
X148590000Y-146050000D03*
X148590000Y-143510000D03*
X151130000Y-146050000D03*
X151130000Y-143510000D03*
X153670000Y-146050000D03*
X153670000Y-143510000D03*
X156210000Y-146050000D03*
X156210000Y-143510000D03*
X158750000Y-146050000D03*
X158750000Y-143510000D03*
X161290000Y-146050000D03*
X161290000Y-143510000D03*
X163830000Y-146050000D03*
X163830000Y-143510000D03*
X166370000Y-146050000D03*
X166370000Y-143510000D03*
X168910000Y-146050000D03*
X168910000Y-143510000D03*
X171450000Y-146050000D03*
X171450000Y-143510000D03*
X173990000Y-146050000D03*
X173990000Y-143510000D03*
X176530000Y-146050000D03*
X176530000Y-143510000D03*
X179070000Y-146050000D03*
X179070000Y-143510000D03*
X181610000Y-146050000D03*
X181610000Y-143510000D03*
X184150000Y-146050000D03*
X184150000Y-143510000D03*
X186690000Y-146050000D03*
X186690000Y-143510000D03*
X189230000Y-146050000D03*
X189230000Y-143510000D03*
X191770000Y-146050000D03*
X191770000Y-143510000D03*
X194310000Y-146050000D03*
X194310000Y-143510000D03*
D22*
X107950000Y-53340000D03*
X109220000Y-53340000D03*
D23*
X106680000Y-53340000D03*
D24*
X175895000Y-66040000D03*
D25*
X175895000Y-53340000D03*
D24*
X155575000Y-73660000D03*
D25*
X155575000Y-86360000D03*
D24*
X165735000Y-67945000D03*
D25*
X153035000Y-67945000D03*
D24*
X165100000Y-73660000D03*
D25*
X165100000Y-86360000D03*
D24*
X166370000Y-46990000D03*
D25*
X179070000Y-46990000D03*
D24*
X191135000Y-137795000D03*
D25*
X191135000Y-125095000D03*
D24*
X184150000Y-137160000D03*
D25*
X171450000Y-137160000D03*
D24*
X184150000Y-130810000D03*
D25*
X171450000Y-130810000D03*
D24*
X156210000Y-90805000D03*
D25*
X143510000Y-90805000D03*
D26*
X97155000Y-83820000D03*
D27*
X97155000Y-86360000D03*
X97155000Y-88900000D03*
X97155000Y-91440000D03*
X97155000Y-93980000D03*
X97155000Y-96520000D03*
X97155000Y-99060000D03*
X97155000Y-101600000D03*
D28*
X104775000Y-47680000D03*
X104775000Y-43180000D03*
X111275000Y-47680000D03*
X111275000Y-43180000D03*
D11*
X36195000Y-43180000D03*
D13*
X51435000Y-91440000D03*
X36195000Y-45720000D03*
X51435000Y-88900000D03*
X36195000Y-48260000D03*
X51435000Y-86360000D03*
X36195000Y-50800000D03*
X51435000Y-83820000D03*
X36195000Y-53340000D03*
X51435000Y-81280000D03*
X36195000Y-55880000D03*
X51435000Y-78740000D03*
X36195000Y-58420000D03*
X51435000Y-76200000D03*
X36195000Y-60960000D03*
X51435000Y-73660000D03*
X36195000Y-63500000D03*
X51435000Y-71120000D03*
X36195000Y-66040000D03*
X51435000Y-68580000D03*
X36195000Y-68580000D03*
X51435000Y-66040000D03*
X36195000Y-71120000D03*
X51435000Y-63500000D03*
X36195000Y-73660000D03*
X51435000Y-60960000D03*
X36195000Y-76200000D03*
X51435000Y-58420000D03*
X36195000Y-78740000D03*
X51435000Y-55880000D03*
X36195000Y-81280000D03*
X51435000Y-53340000D03*
X36195000Y-83820000D03*
X51435000Y-50800000D03*
X36195000Y-86360000D03*
X51435000Y-48260000D03*
X36195000Y-88900000D03*
X51435000Y-45720000D03*
X36195000Y-91440000D03*
X51435000Y-43180000D03*
D11*
X59690000Y-43180000D03*
D13*
X74930000Y-76200000D03*
X59690000Y-45720000D03*
X74930000Y-73660000D03*
X59690000Y-48260000D03*
X74930000Y-71120000D03*
X59690000Y-50800000D03*
X74930000Y-68580000D03*
X59690000Y-53340000D03*
X74930000Y-66040000D03*
X59690000Y-55880000D03*
X74930000Y-63500000D03*
X59690000Y-58420000D03*
X74930000Y-60960000D03*
X59690000Y-60960000D03*
X74930000Y-58420000D03*
X59690000Y-63500000D03*
X74930000Y-55880000D03*
X59690000Y-66040000D03*
X74930000Y-53340000D03*
X59690000Y-68580000D03*
X74930000Y-50800000D03*
X59690000Y-71120000D03*
X74930000Y-48260000D03*
X59690000Y-73660000D03*
X74930000Y-45720000D03*
X59690000Y-76200000D03*
X74930000Y-43180000D03*
D11*
X83185000Y-43180000D03*
D13*
X98425000Y-76200000D03*
X83185000Y-45720000D03*
X98425000Y-73660000D03*
X83185000Y-48260000D03*
X98425000Y-71120000D03*
X83185000Y-50800000D03*
X98425000Y-68580000D03*
X83185000Y-53340000D03*
X98425000Y-66040000D03*
X83185000Y-55880000D03*
X98425000Y-63500000D03*
X83185000Y-58420000D03*
X98425000Y-60960000D03*
X83185000Y-60960000D03*
X98425000Y-58420000D03*
X83185000Y-63500000D03*
X98425000Y-55880000D03*
X83185000Y-66040000D03*
X98425000Y-53340000D03*
X83185000Y-68580000D03*
X98425000Y-50800000D03*
X83185000Y-71120000D03*
X98425000Y-48260000D03*
X83185000Y-73660000D03*
X98425000Y-45720000D03*
X83185000Y-76200000D03*
X98425000Y-43180000D03*
D11*
X56515000Y-99695000D03*
D13*
X64135000Y-117475000D03*
X56515000Y-102235000D03*
X64135000Y-114935000D03*
X56515000Y-104775000D03*
X64135000Y-112395000D03*
X56515000Y-107315000D03*
X64135000Y-109855000D03*
X56515000Y-109855000D03*
X64135000Y-107315000D03*
X56515000Y-112395000D03*
X64135000Y-104775000D03*
X56515000Y-114935000D03*
X64135000Y-102235000D03*
X56515000Y-117475000D03*
X64135000Y-99695000D03*
D11*
X76200000Y-85090000D03*
D13*
X91440000Y-118110000D03*
X76200000Y-87630000D03*
X91440000Y-115570000D03*
X76200000Y-90170000D03*
X91440000Y-113030000D03*
X76200000Y-92710000D03*
X91440000Y-110490000D03*
X76200000Y-95250000D03*
X91440000Y-107950000D03*
X76200000Y-97790000D03*
X91440000Y-105410000D03*
X76200000Y-100330000D03*
X91440000Y-102870000D03*
X76200000Y-102870000D03*
X91440000Y-100330000D03*
X76200000Y-105410000D03*
X91440000Y-97790000D03*
X76200000Y-107950000D03*
X91440000Y-95250000D03*
X76200000Y-110490000D03*
X91440000Y-92710000D03*
X76200000Y-113030000D03*
X91440000Y-90170000D03*
X76200000Y-115570000D03*
X91440000Y-87630000D03*
X76200000Y-118110000D03*
X91440000Y-85090000D03*
D11*
X36195000Y-137160000D03*
D13*
X84455000Y-121920000D03*
X38735000Y-137160000D03*
X81915000Y-121920000D03*
X41275000Y-137160000D03*
X79375000Y-121920000D03*
X43815000Y-137160000D03*
X76835000Y-121920000D03*
X46355000Y-137160000D03*
X74295000Y-121920000D03*
X48895000Y-137160000D03*
X71755000Y-121920000D03*
X51435000Y-137160000D03*
X69215000Y-121920000D03*
X53975000Y-137160000D03*
X66675000Y-121920000D03*
X56515000Y-137160000D03*
X64135000Y-121920000D03*
X59055000Y-137160000D03*
X61595000Y-121920000D03*
X61595000Y-137160000D03*
X59055000Y-121920000D03*
X64135000Y-137160000D03*
X56515000Y-121920000D03*
X66675000Y-137160000D03*
X53975000Y-121920000D03*
X69215000Y-137160000D03*
X51435000Y-121920000D03*
X71755000Y-137160000D03*
X48895000Y-121920000D03*
X74295000Y-137160000D03*
X46355000Y-121920000D03*
X76835000Y-137160000D03*
X43815000Y-121920000D03*
X79375000Y-137160000D03*
X41275000Y-121920000D03*
X81915000Y-137160000D03*
X38735000Y-121920000D03*
X84455000Y-137160000D03*
X36195000Y-121920000D03*
D11*
X104775000Y-118110000D03*
D13*
X137795000Y-102870000D03*
X107315000Y-118110000D03*
X135255000Y-102870000D03*
X109855000Y-118110000D03*
X132715000Y-102870000D03*
X112395000Y-118110000D03*
X130175000Y-102870000D03*
X114935000Y-118110000D03*
X127635000Y-102870000D03*
X117475000Y-118110000D03*
X125095000Y-102870000D03*
X120015000Y-118110000D03*
X122555000Y-102870000D03*
X122555000Y-118110000D03*
X120015000Y-102870000D03*
X125095000Y-118110000D03*
X117475000Y-102870000D03*
X127635000Y-118110000D03*
X114935000Y-102870000D03*
X130175000Y-118110000D03*
X112395000Y-102870000D03*
X132715000Y-118110000D03*
X109855000Y-102870000D03*
X135255000Y-118110000D03*
X107315000Y-102870000D03*
X137795000Y-118110000D03*
X104775000Y-102870000D03*
D11*
X128270000Y-43180000D03*
D13*
X135890000Y-58420000D03*
X128270000Y-45720000D03*
X135890000Y-55880000D03*
X128270000Y-48260000D03*
X135890000Y-53340000D03*
X128270000Y-50800000D03*
X135890000Y-50800000D03*
X128270000Y-53340000D03*
X135890000Y-48260000D03*
X128270000Y-55880000D03*
X135890000Y-45720000D03*
X128270000Y-58420000D03*
X135890000Y-43180000D03*
D11*
X116840000Y-43180000D03*
D13*
X124460000Y-58420000D03*
X116840000Y-45720000D03*
X124460000Y-55880000D03*
X116840000Y-48260000D03*
X124460000Y-53340000D03*
X116840000Y-50800000D03*
X124460000Y-50800000D03*
X116840000Y-53340000D03*
X124460000Y-48260000D03*
X116840000Y-55880000D03*
X124460000Y-45720000D03*
X116840000Y-58420000D03*
X124460000Y-43180000D03*
D11*
X139700000Y-43180000D03*
D13*
X147320000Y-60960000D03*
X139700000Y-45720000D03*
X147320000Y-58420000D03*
X139700000Y-48260000D03*
X147320000Y-55880000D03*
X139700000Y-50800000D03*
X147320000Y-53340000D03*
X139700000Y-53340000D03*
X147320000Y-50800000D03*
X139700000Y-55880000D03*
X147320000Y-48260000D03*
X139700000Y-58420000D03*
X147320000Y-45720000D03*
X139700000Y-60960000D03*
X147320000Y-43180000D03*
D14*
X206375000Y-85090000D03*
D29*
X206375000Y-87630000D03*
X206375000Y-90170000D03*
D11*
X89535000Y-137160000D03*
D13*
X137795000Y-121920000D03*
X92075000Y-137160000D03*
X135255000Y-121920000D03*
X94615000Y-137160000D03*
X132715000Y-121920000D03*
X97155000Y-137160000D03*
X130175000Y-121920000D03*
X99695000Y-137160000D03*
X127635000Y-121920000D03*
X102235000Y-137160000D03*
X125095000Y-121920000D03*
X104775000Y-137160000D03*
X122555000Y-121920000D03*
X107315000Y-137160000D03*
X120015000Y-121920000D03*
X109855000Y-137160000D03*
X117475000Y-121920000D03*
X112395000Y-137160000D03*
X114935000Y-121920000D03*
X114935000Y-137160000D03*
X112395000Y-121920000D03*
X117475000Y-137160000D03*
X109855000Y-121920000D03*
X120015000Y-137160000D03*
X107315000Y-121920000D03*
X122555000Y-137160000D03*
X104775000Y-121920000D03*
X125095000Y-137160000D03*
X102235000Y-121920000D03*
X127635000Y-137160000D03*
X99695000Y-121920000D03*
X130175000Y-137160000D03*
X97155000Y-121920000D03*
X132715000Y-137160000D03*
X94615000Y-121920000D03*
X135255000Y-137160000D03*
X92075000Y-121920000D03*
X137795000Y-137160000D03*
X89535000Y-121920000D03*
D11*
X104775000Y-99695000D03*
D13*
X137795000Y-84455000D03*
X107315000Y-99695000D03*
X135255000Y-84455000D03*
X109855000Y-99695000D03*
X132715000Y-84455000D03*
X112395000Y-99695000D03*
X130175000Y-84455000D03*
X114935000Y-99695000D03*
X127635000Y-84455000D03*
X117475000Y-99695000D03*
X125095000Y-84455000D03*
X120015000Y-99695000D03*
X122555000Y-84455000D03*
X122555000Y-99695000D03*
X120015000Y-84455000D03*
X125095000Y-99695000D03*
X117475000Y-84455000D03*
X127635000Y-99695000D03*
X114935000Y-84455000D03*
X130175000Y-99695000D03*
X112395000Y-84455000D03*
X132715000Y-99695000D03*
X109855000Y-84455000D03*
X135255000Y-99695000D03*
X107315000Y-84455000D03*
X137795000Y-99695000D03*
X104775000Y-84455000D03*
D11*
X104775000Y-80010000D03*
D13*
X120015000Y-72390000D03*
X107315000Y-80010000D03*
X117475000Y-72390000D03*
X109855000Y-80010000D03*
X114935000Y-72390000D03*
X112395000Y-80010000D03*
X112395000Y-72390000D03*
X114935000Y-80010000D03*
X109855000Y-72390000D03*
X117475000Y-80010000D03*
X107315000Y-72390000D03*
X120015000Y-80010000D03*
X104775000Y-72390000D03*
D11*
X171450000Y-102870000D03*
D13*
X186690000Y-95250000D03*
X173990000Y-102870000D03*
X184150000Y-95250000D03*
X176530000Y-102870000D03*
X181610000Y-95250000D03*
X179070000Y-102870000D03*
X179070000Y-95250000D03*
X181610000Y-102870000D03*
X176530000Y-95250000D03*
X184150000Y-102870000D03*
X173990000Y-95250000D03*
X186690000Y-102870000D03*
X171450000Y-95250000D03*
D11*
X171450000Y-114300000D03*
D13*
X189230000Y-106680000D03*
X173990000Y-114300000D03*
X186690000Y-106680000D03*
X176530000Y-114300000D03*
X184150000Y-106680000D03*
X179070000Y-114300000D03*
X181610000Y-106680000D03*
X181610000Y-114300000D03*
X179070000Y-106680000D03*
X184150000Y-114300000D03*
X176530000Y-106680000D03*
X186690000Y-114300000D03*
X173990000Y-106680000D03*
X189230000Y-114300000D03*
X171450000Y-106680000D03*
D11*
X143510000Y-102870000D03*
D13*
X158750000Y-95250000D03*
X146050000Y-102870000D03*
X156210000Y-95250000D03*
X148590000Y-102870000D03*
X153670000Y-95250000D03*
X151130000Y-102870000D03*
X151130000Y-95250000D03*
X153670000Y-102870000D03*
X148590000Y-95250000D03*
X156210000Y-102870000D03*
X146050000Y-95250000D03*
X158750000Y-102870000D03*
X143510000Y-95250000D03*
D11*
X171450000Y-125730000D03*
D13*
X186690000Y-118110000D03*
X173990000Y-125730000D03*
X184150000Y-118110000D03*
X176530000Y-125730000D03*
X181610000Y-118110000D03*
X179070000Y-125730000D03*
X179070000Y-118110000D03*
X181610000Y-125730000D03*
X176530000Y-118110000D03*
X184150000Y-125730000D03*
X173990000Y-118110000D03*
X186690000Y-125730000D03*
X171450000Y-118110000D03*
D11*
X143510000Y-137160000D03*
D13*
X166370000Y-129540000D03*
X146050000Y-137160000D03*
X163830000Y-129540000D03*
X148590000Y-137160000D03*
X161290000Y-129540000D03*
X151130000Y-137160000D03*
X158750000Y-129540000D03*
X153670000Y-137160000D03*
X156210000Y-129540000D03*
X156210000Y-137160000D03*
X153670000Y-129540000D03*
X158750000Y-137160000D03*
X151130000Y-129540000D03*
X161290000Y-137160000D03*
X148590000Y-129540000D03*
X163830000Y-137160000D03*
X146050000Y-129540000D03*
X166370000Y-137160000D03*
X143510000Y-129540000D03*
D11*
X143510000Y-125730000D03*
D13*
X166370000Y-118110000D03*
X146050000Y-125730000D03*
X163830000Y-118110000D03*
X148590000Y-125730000D03*
X161290000Y-118110000D03*
X151130000Y-125730000D03*
X158750000Y-118110000D03*
X153670000Y-125730000D03*
X156210000Y-118110000D03*
X156210000Y-125730000D03*
X153670000Y-118110000D03*
X158750000Y-125730000D03*
X151130000Y-118110000D03*
X161290000Y-125730000D03*
X148590000Y-118110000D03*
X163830000Y-125730000D03*
X146050000Y-118110000D03*
X166370000Y-125730000D03*
X143510000Y-118110000D03*
D11*
X143510000Y-114300000D03*
D13*
X166370000Y-106680000D03*
X146050000Y-114300000D03*
X163830000Y-106680000D03*
X148590000Y-114300000D03*
X161290000Y-106680000D03*
X151130000Y-114300000D03*
X158750000Y-106680000D03*
X153670000Y-114300000D03*
X156210000Y-106680000D03*
X156210000Y-114300000D03*
X153670000Y-106680000D03*
X158750000Y-114300000D03*
X151130000Y-106680000D03*
X161290000Y-114300000D03*
X148590000Y-106680000D03*
X163830000Y-114300000D03*
X146050000Y-106680000D03*
X166370000Y-114300000D03*
X143510000Y-106680000D03*
D11*
X104775000Y-59055000D03*
D13*
X112395000Y-66675000D03*
X104775000Y-61595000D03*
X112395000Y-64135000D03*
X104775000Y-64135000D03*
X112395000Y-61595000D03*
X104775000Y-66675000D03*
X112395000Y-59055000D03*
D20*
X71120000Y-96520000D03*
X71120000Y-101520000D03*
D12*
X109855000Y-92075000D03*
X112355000Y-92075000D03*
D11*
X180975000Y-53975000D03*
D13*
X188595000Y-61595000D03*
X180975000Y-56515000D03*
X188595000Y-59055000D03*
X180975000Y-59055000D03*
X188595000Y-56515000D03*
X180975000Y-61595000D03*
X188595000Y-53975000D03*
M02*
